<?xml version="1.0" encoding="utf-8"?>
<!DOCTYPE svg PUBLIC "-//W3C//DTD SVG 1.1//EN" "http://www.w3.org/Graphics/SVG/1.1/DTD/svg11.dtd">
<svg version="1.1" id="Layer_1" xmlns="http://www.w3.org/2000/svg" xmlns:xlink="http://www.w3.org/1999/xlink" x="0px" y="0px"
	 width="24px" height="24px" viewBox="0 0 24 24" enable-background="new 0 0 24 24" xml:space="preserve">
<path fill="none" d="M0,0h24v24H0V0z"/>
<path d="M20,2H4C2.9,2,2.01,2.9,2.01,4L2,22l4-4h14c1.1,0,2-0.9,2-2V4C22,2.9,21.1,2,20,2z M20,16H5.17l-0.59,0.59L4,17.17V4h16V16z
	 M6,12h2v2H6V12z M6,9h2v2H6V9z M6,6h2v2H6V6z M10,12h5v2h-5V12z M10,9h8v2h-8V9z M10,6h8v2h-8V6z"/>
</svg>
