<svg xmlns="http://www.w3.org/2000/svg" viewBox="0 0 24 24"><path d="M12.29 3.943l11.062 5.76V23.31H.678V9.994zm2.964 16.836h4.86v-9.924L12.29 6.969l-8.373 4.164v9.646h4.859z"/><path d="M23.466 8.697l-.05-2.52L12.39.587.51 6.6l.015 2.419L12.392 2.88zM8.465 14.206a4.3 4.3 0 00-.01.868l-1.048.859a.255.255 0 00-.059.323l1.009 1.808c.059.11.186.151.304.11l1.253-.504c.226.172.47.313.735.424l.196 1.374c.02.131.117.222.245.222h2.027a.253.253 0 00.245-.212l.196-1.374c.255-.11.5-.262.725-.424l1.254.505c.117.05.244 0 .303-.111l1.01-1.808a.255.255 0 00-.06-.323l-1.048-.869a4.3 4.3 0 00.01-.868l1.048-.859a.255.255 0 00.059-.323l-1.009-1.808c-.059-.111-.186-.152-.304-.111l-1.244.505a3.342 3.342 0 00-.734-.424l-.196-1.374a.246.246 0 00-.245-.212H11.1a.254.254 0 00-.245.212l-.196 1.374c-.255.11-.5.262-.725.424l-1.254-.505a.235.235 0 00-.303.11l-1.01 1.809a.255.255 0 00.06.323zm3.634-1.081c.813 0 1.469.677 1.469 1.515 0 .838-.656 1.515-1.47 1.515-.812 0-1.469-.677-1.469-1.515 0-.838.657-1.515 1.47-1.515z"/></svg>