<svg xmlns="http://www.w3.org/2000/svg" width="24" height="24">
  <path d="M1.263 16.378v6.26c0 .208.147.486.369.555.147.07.295.14.368.14.074 0 .222 0 .295-.07L8.64 20.62l6.343 2.643c.221.07.442.07.59 0l6.638-2.782c.295-.14.443-.348.443-.626V7.336c0-.209-.148-.487-.37-.556l-2.678-.933-4.508 1.816L9.832 5.56s-.895-.537-1.042-.468l-7.51 2.73s-.017-.103-.017 2.296zm1.475.486L7.9 14.708v4.73l-5.163 2.156zm6.638-2.225l5.163 2.156v4.73l-5.163-2.157zm5.163-3.825v4.52l-5.163-2.156v-6.24l5.201 2.265c-.074.07-.038 1.541-.038 1.61zm1.475 10.78v-4.73l5.163-2.156v4.73zm5.163-8.485l-5.163 2.156v-4.451c0-.07-.037-1.575-.037-1.575l3.87-1.887 1.223.486zM8.01 6.977L7.9 13.11l-5.163 2.156-.036-6.348zM.944 6.707l11.718-4.282-.476-1.5L.468 5.207z"/>
  <path d="M11.774 2.457L23.09 6.38l.412-1.533L12.186.925z"/>
</svg>