<svg xmlns="http://www.w3.org/2000/svg" fill-rule="evenodd" stroke-linejoin="round" stroke-miterlimit="2" clip-rule="evenodd" viewBox="0 0 40 40"><g transform="translate(42.275 -2.541) scale(1.38666)"><path fill="none" d="M-30.487 1.833h28.846v28.846h-28.846z"/><clipPath id="a"><path d="M-30.487 1.833h28.846v28.846h-28.846z"/></clipPath><g clip-path="url(#a)"><path d="M-24.852 30.679c-.541 0-1.015-.217-1.42-.65a2.143 2.143 0 01-.609-1.514V3.996c0-.577.203-1.082.609-1.514.405-.433.879-.65 1.42-.65h12.202l7.404 7.897v18.786c0 .577-.203 1.082-.609 1.515-.405.432-.878.649-1.42.649h-17.577zm17.578-10.692v-9.284h-6.39V3.996h-11.188v15.99h17.578z"/><path fill="#fff" fill-rule="nonzero" d="M-18.503 22.356v.61h-1.222v4.887h-.714v-4.887h-1.221v-.61h3.157zM-16.258 24.37l.944-2.014h.714l-1.253 2.554c.11.238.23.484.356.738.12.261.246.515.365.77.12.26.23.507.334.753.103.246.198.468.277.682h-.706c-.055-.159-.127-.333-.198-.524-.08-.182-.167-.373-.254-.57-.095-.2-.19-.397-.286-.604-.103-.198-.198-.396-.293-.587-.095.19-.19.389-.294.587-.103.207-.198.405-.285.603-.087.198-.175.389-.246.571-.08.19-.143.365-.198.524h-.69c.07-.206.166-.428.27-.666.102-.238.213-.484.332-.738.12-.246.238-.5.357-.754.12-.254.23-.5.341-.73l-1.269-2.61h.73l.952 2.015zM-10.888 22.356v.61h-1.221v4.887h-.714v-4.887h-1.222v-.61h3.157z"/></g></g></svg>