<?xml version="1.0" encoding="utf-8"?>
<!DOCTYPE svg PUBLIC "-//W3C//DTD SVG 1.1//EN" "http://www.w3.org/Graphics/SVG/1.1/DTD/svg11.dtd">
<svg version="1.1" id="Layer_1" xmlns="http://www.w3.org/2000/svg" xmlns:xlink="http://www.w3.org/1999/xlink" x="0px" y="0px"
	 width="24px" height="24px" viewBox="0 0 24 24" enable-background="new 0 0 24 24" xml:space="preserve">
<path fill="none" d="M0,0h24v24H0V0z"/>
<g>
	<path d="M5.315,4.026h5.886c1.327,0,2.338,0.102,3.036,0.305c0.936,0.275,1.736,0.765,2.404,1.469
		c0.666,0.703,1.174,1.564,1.523,2.583c0.348,1.02,0.521,2.275,0.521,3.77c0,1.313-0.164,2.444-0.49,3.394
		c-0.398,1.16-0.967,2.1-1.707,2.818c-0.559,0.543-1.312,0.969-2.264,1.273c-0.711,0.225-1.66,0.336-2.85,0.336h-6.06V4.026z
		 M8.535,6.724v10.562h2.404c0.899,0,1.548-0.049,1.947-0.152c0.523-0.129,0.955-0.352,1.301-0.662
		c0.344-0.312,0.625-0.826,0.844-1.539c0.217-0.715,0.326-1.688,0.326-2.922c0-1.232-0.109-2.179-0.326-2.839
		c-0.219-0.66-0.523-1.175-0.914-1.545c-0.393-0.37-0.889-0.62-1.492-0.751c-0.45-0.102-1.33-0.152-2.643-0.152H8.535z"/>
</g>
</svg>
