<svg xmlns="http://www.w3.org/2000/svg" viewBox="0 0 24 24"><path d="M12 0A12 12 0 00.18 9.93 12.65 12.65 0 000 11.68h1.52v.67H0a12.51 12.51 0 00.18 1.74A12 12 0 1012 0zM1.75 12a1.5 1.5 0 111.5 1.5 1.5 1.5 0 01-1.5-1.5zM12 21.6a9.61 9.61 0 01-9.36-7.51h1.7a7.94 7.94 0 100-4.16H2.62A9.6 9.6 0 1112 21.6zM4.86 11.23l2.83-.87.2.63-2.83.87zM16 10.65l.58.32-1.9 3.76-.58-.32zm-.39-1.42a1.5 1.5 0 111.5 1.5 1.5 1.5 0 01-1.52-1.5zm-.54 6.93a1.5 1.5 0 11-1.5-1.5 1.5 1.5 0 011.48 1.5zm-2.7-1.35l-2.26-3.12.56-.36 2.26 3.12zm-2.94-3.28a1.5 1.5 0 111.5-1.5 1.5 1.5 0 01-1.5 1.5z"/></svg>