<svg xmlns="http://www.w3.org/2000/svg" width="24" height="24">
  <path d="M20.87 18.62l-.7-.7v2.25h-2.34v-2.34h2.25l-.64-.64a6.48 6.48 0 0 1-6.27-11V3.83h2.33v1a6.3 6.3 0 0 1 2-.32h.33v-.68h2.34v1.26a6.59 6.59 0 0 1 2.33 1.82V1.5h-21v21h21v-3.05a3 3 0 0 1-1.63-.83zm-14.7 1.55H3.83v-2.34h2.34zm0-4.67H3.83v-2.33h2.34zm0-4.67H3.83V8.5h2.34zm0-4.66H3.83V3.83h2.34zm4.66 14H8.5v-2.34h2.33zm0-4.67H8.5v-2.33h2.33zm0-4.67H8.5V8.5h2.33zm0-4.66H8.5V3.83h2.33zm4.67 14h-2.33v-2.34h2.33z"/>
  <path d="M21.29 13.39a4.46 4.46 0 0 0 .71-2.66 4.54 4.54 0 0 0-4-4.2 4.36 4.36 0 0 0-.51 0 4.5 4.5 0 0 0 0 9 4.43 4.43 0 0 0 2.39-.7l2.41 2.41a1 1 0 0 0 .71.29 1 1 0 0 0 .71-1.71zm-3.8.11A2.5 2.5 0 1 1 20 11a2.5 2.5 0 0 1-2.51 2.5z"/>
</svg>
