<svg xmlns="http://www.w3.org/2000/svg" xmlns:xlink="http://www.w3.org/1999/xlink" width="24" height="24">
    <defs>
        <path id="a"
              d="M16.021 21.146h-1.273a15.722 15.722 0 0 1-4.076 2.777 12.036 12.036 0 0 0 9.725-3.307 16.62 16.62 0 0 1-4.375.573m-8.238 2.018c.268.114.539.215.815.301a14.305 14.305 0 0 0 4.604-2.549 19.496 19.496 0 0 1-3.961-1.131l-1.458 3.379zm10.854-7.687a16.205 16.205 0 0 1-2.789 4.466 14.689 14.689 0 0 0 6.021-1.146 11.824 11.824 0 0 0 1.859-4.195 15.094 15.094 0 0 1-5.091.875m-8.937 3.221a16.522 16.522 0 0 0 4.633 1.173 15.434 15.434 0 0 0 3.06-4.438 18.922 18.922 0 0 1-5.72-1.36l-1.973 4.625zM.034 11.897v.115a11.997 11.997 0 0 0 6.691 10.666l1.431-3.394a18.442 18.442 0 0 1-8.151-7.63 1.124 1.124 0 0 0 0 .201m4.475 3.578a17.385 17.385 0 0 0 4.147 2.864l2.002-4.625c-1.855-.848-3.556-2-5.034-3.407A15.57 15.57 0 0 0 4.48 15.49m15.502-6.828a17.563 17.563 0 0 1-.944 5.726 13.105 13.105 0 0 0 4.891-1.045 12.002 12.002 0 0 0-.643-5.383 9.082 9.082 0 0 1-3.303.73m-7.78 4.367a17.688 17.688 0 0 0 5.72 1.26 16.423 16.423 0 0 0 1.001-5.727 14.181 14.181 0 0 1-4.291-1.017l-2.43 5.484zM.992 7.33a11.615 11.615 0 0 0-.673 2.219 16.49 16.49 0 0 0 3.161 4.838c.163-1.745.608-3.45 1.315-5.054a15.317 15.317 0 0 1-2.66-4.109A11.5 11.5 0 0 0 .992 7.33m5.191 1.761a16.912 16.912 0 0 0 4.934 3.565l2.359-5.469a14.003 14.003 0 0 1-3.904-2.662 16.245 16.245 0 0 0-3.433 4.624M14.977 6.6c4.29 1.704 7.15.672 7.908.3a11.898 11.898 0 0 0-5.577-5.726L14.977 6.6zM2.908 4.209A13.412 13.412 0 0 0 5.31 8.247 17.743 17.743 0 0 1 8.8 3.65 8.02 8.02 0 0 1 7.369.959a11.883 11.883 0 0 0-4.419 3.25m7.523-.458a12.498 12.498 0 0 0 3.504 2.391L16.308.773l-.515-.186a19.471 19.471 0 0 0-5.32 3.164M8.442.558a6.807 6.807 0 0 0 1.244 2.334A20.856 20.856 0 0 1 13.977.143 11.596 11.596 0 0 0 12.118 0 11.865 11.865 0 0 0 8.5.558"/>
    </defs>
    <clipPath id="b">
        <use xlink:href="#a" overflow="visible"/>
    </clipPath>
    <g clip-path="url(#b)">
        <path fill="#eee"
                d="M-8.637 20.68L3.568-8.645 32.767 3.536 20.562 32.86-8.637 20.68z"/>
        <path fill="#8FB823"
              d="M11.488 13.257L14.205 7a15.82 15.82 0 0 0 2.774.859c.844.196 1.707.307 2.574.33a15.805 15.805 0 0 1-.229 3.35 16.592 16.592 0 0 1-.886 3.436s-1.745-.229-3.117-.558a17.735 17.735 0 0 1-3.833-1.16"/>
    </g>
</svg>