<svg xmlns="http://www.w3.org/2000/svg" width="24" height="24">
  <path d="M19.42 19a3.64 3.64 0 0 0 .46-1.77 3.72 3.72 0 1 0-3.71 3.72 3.61 3.61 0 0 0 1.76-.47l1.76 1.76a1.05 1.05 0 1 0 1.49-1.48zm-1.65-1.7a1.61 1.61 0 0 1-1.48 1.49h-.12a1.62 1.62 0 1 1 0-3.23 1.61 1.61 0 0 1 1.61 1.61.49.49 0 0 1-.01.13z"/>
  <path d="M10.45 17.18a5.72 5.72 0 0 1 5.72-5.71 5.29 5.29 0 0 1 .8.06V1.5H5.3v21h8.79a5.71 5.71 0 0 1-3.64-5.32zM12.3 3.83h2.34v2.34H12.3zm0 4.67h2.34v2.33H12.3zM10 20.17H7.64v-2.34H10zm0-4.67H7.64v-2.33H10zm0-4.67H7.64V8.5H10zm0-4.66H7.64V3.83H10z"/>
</svg>
