<svg xmlns="http://www.w3.org/2000/svg" width="24" height="24">
  <path d="M0 1.5v21h24V17a3 3 0 0 1-4.8 2.39v.78h-4.8V17.9a6.48 6.48 0 0 1-4.8-3.68v1.28H4.8v-2.33h4.42A6.59 6.59 0 0 1 9 11.5v-.67H4.8V8.5h4.8v.28a6.53 6.53 0 0 1 4.8-3.68V3.83h4.8v2.34a6.51 6.51 0 0 1 2.8 4.94 6.41 6.41 0 0 1-.29 2.34l1.43 1.42A3 3 0 0 1 24 17V1.5zm9.6 16.33v2.34H4.8v-2.34zm0-11.66H4.8V3.83h4.8z"/>
  <path d="M19.3 13.89a4.46 4.46 0 0 0 .7-2.66A4.54 4.54 0 0 0 16 7h-.5a4.5 4.5 0 0 0 0 9 4.43 4.43 0 0 0 2.39-.7l2.41 2.41a1 1 0 0 0 .7.29 1 1 0 0 0 .71-.29 1 1 0 0 0 0-1.42zm-3.8.11a2.5 2.5 0 1 1 2.5-2.5 2.5 2.5 0 0 1-2.5 2.5z"/>
</svg>
