<svg xmlns="http://www.w3.org/2000/svg" width="24" height="24">
  <path d="M1.5 18.68h1.91v1.91H1.5zM1.5 14.86h1.91v1.91H1.5zM1.5 7.23h1.91v1.91H1.5zM1.5 3.41h1.91v1.91H1.5zM5.32 3.41h1.91v1.91H5.32zM9.14 3.41h1.91v1.91H9.14zM1.5 11.05h1.91v1.91H1.5zM20.59 11.05h1.91v1.91h-1.91zM20.59 14.86h1.91v1.91h-1.91zM13 3.41v2.35a5.73 5.73 0 0 1 3.57 3.38h6V3.41zM20.59 18.68h1.91v1.91h-1.91zM5.32 18.68h1.91v1.91H5.32zM16.77 18.68h1.91v1.91h-1.91zM9.14 18.68h1.91v1.91H9.14zM12.95 18.68h1.91v1.91h-1.91zM14.45 13a3.68 3.68 0 0 0 .47-1.77 3.72 3.72 0 1 0-3.72 3.71 3.6 3.6 0 0 0 1.8-.49l1.76 1.76a1.05 1.05 0 0 0 1.49 0 1.06 1.06 0 0 0 0-1.49zm-1.65-1.68a1.61 1.61 0 0 1-1.48 1.48h-.12a1.62 1.62 0 1 1 1.62-1.61.5.5 0 0 1-.02.13z"/>
</svg>
