<svg xmlns="http://www.w3.org/2000/svg" width="24" height="24" viewBox="0 0 24 24"><title>gbd-icon-markieren-messen</title><g id="mark-measure-3"><path d="M1.5,10.77H18.56V8.14H1.5Zm0-7.88V5.52h21V2.89Z"/><path d="M20.8,13.39H1.5v7.72h21V13.39Zm0,6H3.2V15.09h1v1.57a.5.5,0,0,0,.5.5.51.51,0,0,0,.5-.5V15.09H6v2.47a.5.5,0,0,0,.5.5.5.5,0,0,0,.5-.5V15.09h.82v1.57a.5.5,0,0,0,.5.5.51.51,0,0,0,.5-.5V15.09h.82v2.47a.5.5,0,0,0,1,0V15.09h.82v1.57a.5.5,0,0,0,1,0V15.09h.82v2.47a.5.5,0,0,0,1,0V15.09h.82v1.57a.51.51,0,0,0,.5.5.5.5,0,0,0,.5-.5V15.09H17v2.47a.5.5,0,0,0,.5.5.5.5,0,0,0,.5-.5V15.09h.82v1.57a.51.51,0,0,0,.5.5.5.5,0,0,0,.5-.5V15.09h1Z"/></g></svg>