<svg xmlns="http://www.w3.org/2000/svg" width="24" height="24">
  <path d="M8.6 4.69a.12.12 0 0 1 .09 0l1.69 1.7.67.67H21.6a.11.11 0 0 1 .11.11v12a.11.11 0 0 1-.11.11H2.4a.1.1 0 0 1-.11-.11V4.8a.1.1 0 0 1 .1-.11H8.6m0-2.29H2.4A2.39 2.39 0 0 0 0 4.8v14.4a2.39 2.39 0 0 0 2.4 2.4h19.2a2.41 2.41 0 0 0 2.4-2.4v-12a2.41 2.41 0 0 0-2.4-2.4H12l-1.69-1.69A2.41 2.41 0 0 0 8.6 2.4z"/>
  <path d="M19.2 14.4h-2.4v2.4a1.2 1.2 0 0 1-2.4 0v-2.4H12a1.2 1.2 0 1 1 0-2.4h2.4V9.6a1.2 1.2 0 0 1 2.4 0V12h2.4a1.2 1.2 0 0 1 0 2.4z"/>
</svg>
