<svg xmlns="http://www.w3.org/2000/svg" width="24" height="24">
  <path d="M0 1.5v21h24v-21zm2.4 2.1h2.4V6H2.4zm2.4 16.8H2.4V18h2.4zm0-4.8H2.4v-2.4h2.4zm4.8 4.8H7.2V18h2.4zm12 0h-2.4V18h2.4zm0-4.8h-2.25a3 3 0 0 1 .15.9 3 3 0 0 1-.88 2.12 2.92 2.92 0 0 1-1.82.85v.93h-2.4v-1.76L13 17.19A6.47 6.47 0 0 1 4.5 11v-.2H2.4V8.4h2.4v.65a6.53 6.53 0 0 1 2.4-3.31V3.6h2.4v1.06A6.46 6.46 0 0 1 11 4.5a5.85 5.85 0 0 1 .73 0 6.2 6.2 0 0 1 2.67 1V3.6h2.4V6h-1.69a6.57 6.57 0 0 1 2.38 4.61 6.64 6.64 0 0 1-.3 2.34l1.43 1.42a2.81 2.81 0 0 1 .58.84v-2h2.4zm0-4.8h-2.4V8.4h2.4zm0-4.8h-2.4V3.6h2.4z"/>
  <path d="M14.8 13.39a4.46 4.46 0 0 0 .69-2.66A4.5 4.5 0 1 0 11 15.5a4.43 4.43 0 0 0 2.39-.7l2.41 2.41a1 1 0 0 0 .71.29 1 1 0 0 0 .71-.29 1 1 0 0 0 0-1.42zm-3.8.11a2.5 2.5 0 1 1 2.5-2.5 2.5 2.5 0 0 1-2.5 2.5z"/>
</svg>
