<svg xmlns="http://www.w3.org/2000/svg" width="24" height="24">
  <path d="M15.57 20.59a6.46 6.46 0 0 1-6.17-1.31v.89H7.07v-2.34h1.1a6.12 6.12 0 0 1-.9-2.33h-.2v-2.33h.21a6.42 6.42 0 0 1 1-2.34H7.07V8.5H9.4v1a6.45 6.45 0 0 1 4.27-1.61h.73a6.42 6.42 0 0 1 2 .58v-7H4.73v21H16.4v-1.06zM11.73 3.83h2.34v2.34h-2.34zm-4.66 0H9.4v2.34H7.07z"/>
  <path d="M17.46 16.77a4.46 4.46 0 0 0 .69-2.66 4.54 4.54 0 0 0-4-4.2h-.51a4.5 4.5 0 0 0 0 9 4.43 4.43 0 0 0 2.39-.7l2.41 2.41a1 1 0 0 0 .71.29 1 1 0 0 0 .71-.29 1 1 0 0 0 0-1.42zm-3.8.11a2.5 2.5 0 1 1 2.5-2.5 2.5 2.5 0 0 1-2.5 2.5z"/>
</svg>
