<svg xmlns="http://www.w3.org/2000/svg" width="24" height="24">
  <path d="M1.5 13.17h2.33v-2.34H1.5zm0 4.66h2.33V15.5H1.5zm0-9.33h2.33V6.17H1.5zm14 14h2.33v-2.33H15.5zm7-21H6.17v16.33H22.5zm-2.33 14H8.5V3.83h11.67zm-9.34 7h2.34v-2.33h-2.34zm-4.66 0H8.5v-2.33H6.17zm-4.67 0h2.33v-2.33H1.5z"/>
  <path d="M16.78 10.55a3.65 3.65 0 0 0 .47-1.77 3.72 3.72 0 1 0-3.72 3.72 3.65 3.65 0 0 0 1.77-.5l1.76 1.76a1 1 0 0 0 1.48 0 1 1 0 0 0 0-1.48zM15.14 8.9a1.61 1.61 0 0 1-1.49 1.49h-.12a1.62 1.62 0 1 1 1.62-1.62s-.01.09-.01.13z"/>
</svg>
