<svg id="d-procon" xmlns="http://www.w3.org/2000/svg" width="24" height="24" viewBox="0 0 24 24"><title>gbd-icon-d-procon</title><path d="M13.15,16.07a.38.38,0,0,0,.75,0,.38.38,0,1,0-.75,0Z"/><circle cx="17.36" cy="9.29" r="0.38"/><path d="M3.46,12a.37.37,0,0,0-.37-.37.38.38,0,1,0,0,.75A.37.37,0,0,0,3.46,12Z"/><path d="M9.39,9.74a.38.38,0,1,0,.37.37A.38.38,0,0,0,9.39,9.74Z"/><path d="M12,0A12,12,0,0,0,.18,9.93,12.65,12.65,0,0,0,0,11.68H1.57v.67H0a12.51,12.51,0,0,0,.18,1.74A12,12,0,1,0,12,0ZM1.91,12a1.18,1.18,0,1,1,1.18,1.18A1.17,1.17,0,0,1,1.91,12ZM12,21.6a9.61,9.61,0,0,1-9.36-7.51H4.34a7.94,7.94,0,1,0,0-4.16H2.62A9.6,9.6,0,1,1,12,21.6ZM4.41,11.39,8,10.26l.2.64L4.6,12Zm11.94-1,.59.32L14.6,15,14,14.68Zm-.16-1.13a1.18,1.18,0,1,1,1.17,1.17A1.17,1.17,0,0,1,16.19,9.29ZM14.7,16.07a1.18,1.18,0,1,1-1.18-1.18A1.18,1.18,0,0,1,14.7,16.07Zm-2.43-1L9.93,11.43l.56-.35,2.34,3.66ZM9.39,11.29a1.18,1.18,0,1,1,0-2.35,1.18,1.18,0,0,1,0,2.35Z"/></svg>