<svg xmlns="http://www.w3.org/2000/svg" width="24" height="24">
  <path d="M11 17.5A6.5 6.5 0 0 1 4.5 11v-.17H2.33V8.5h2.34v1.05A6.42 6.42 0 0 1 7 5.89V3.83h2.33v.89A6.65 6.65 0 0 1 11 4.5a5 5 0 0 1 .67 0v-3H0v21h11.67v-5.05c-.23.02-.45.05-.67.05zM2.33 3.83h2.34v2.34H2.33zm2.34 16.34H2.33v-2.34h2.34zm0-4.67H2.33v-2.33h2.34zm4.66 4.67H7v-2.34h2.33zM12.33 1.5v3.16a6.51 6.51 0 0 1 2.34 1V3.83H17v2.34h-1.71A6.53 6.53 0 0 1 17 8.5v.06a6.69 6.69 0 0 1 .49 2 6.64 6.64 0 0 1-.3 2.34l1.43 1.42a3 3 0 0 1 0 4.25 2.91 2.91 0 0 1-1.62.83v.72h-2.33v-1.26a3.5 3.5 0 0 1-.3-.24L13 17.19a6.23 6.23 0 0 1-.62.15v5.16H24v-21zm9.34 18.67h-2.34v-2.34h2.34zm0-4.67h-2.34v-2.33h2.34zm0-4.67h-2.34V8.5h2.34zm0-4.66h-2.34V3.83h2.34z"/>
  <path d="M14.8 13.39a4.46 4.46 0 0 0 .69-2.66A4.5 4.5 0 1 0 11 15.5a4.43 4.43 0 0 0 2.39-.7l2.41 2.41a1 1 0 0 0 .71.29 1 1 0 0 0 .71-.29 1 1 0 0 0 0-1.42zm-3.8.11a2.5 2.5 0 1 1 2.5-2.5 2.5 2.5 0 0 1-2.5 2.5z"/>
</svg>
