<svg id="flurstueck-3" xmlns="http://www.w3.org/2000/svg" width="24" height="24" viewBox="0 0 24 24"><title>gbd-icon-flurstuecksuche</title><rect x="1.5" y="18.68" width="1.91" height="1.91"/><rect x="1.5" y="14.86" width="1.91" height="1.91"/><rect x="1.5" y="7.23" width="1.91" height="1.91"/><rect x="1.5" y="3.41" width="1.91" height="1.91"/><rect x="5.32" y="3.41" width="1.91" height="1.91"/><rect x="9.14" y="3.41" width="1.91" height="1.91"/><rect x="1.5" y="11.05" width="1.91" height="1.91"/><rect x="20.59" y="11.05" width="1.91" height="1.91"/><rect x="20.59" y="14.86" width="1.91" height="1.91"/><rect x="20.59" y="18.68" width="1.91" height="1.91"/><rect x="5.32" y="18.68" width="1.91" height="1.91"/><rect x="16.77" y="18.68" width="1.91" height="1.91"/><rect x="9.14" y="18.68" width="1.91" height="1.91"/><rect x="12.95" y="18.68" width="1.91" height="1.91"/><path d="M14.8,13.39a4.46,4.46,0,0,0,.69-2.66A4.5,4.5,0,1,0,11,15.5a4.43,4.43,0,0,0,2.39-.7l2.41,2.41a1,1,0,0,0,.71.29,1,1,0,0,0,.71-.29,1,1,0,0,0,0-1.42ZM11,13.5A2.5,2.5,0,1,1,13.5,11,2.5,2.5,0,0,1,11,13.5Z"/><path d="M13,3.41v1.4A6.55,6.55,0,0,1,17.2,9.14h5.3V3.41Z"/></svg>