<svg xmlns="http://www.w3.org/2000/svg" xmlns:xlink="http://www.w3.org/1999/xlink" width="100" height="24" viewBox="699.246 271.5 100 24">
  <path fill="#EEE" d="M714.299 285.767c0-1.062-.608-1.625-1.555-1.788a1.673 1.673 0 0 0 1.278-1.771l-.011-.007c0-1.122-.707-1.72-1.834-1.819a11.898 11.898 0 0 0-1.165-.047h-2.223v7.651h2.198a6.344 6.344 0 0 0 1.958-.223 2.012 2.012 0 0 0 1.354-1.996zm-4.475-4.585h1.188c.392-.021.784.012 1.165.099.491.114.835.558.822 1.062v-.021c.028.451-.204.879-.599 1.102-.409.132-.84.182-1.268.145h-1.31v-2.387zm2.665 5.742a4.369 4.369 0 0 1-1.416.167h-1.249l-.011-2.624h1.366c.451-.029.902.028 1.331.17.471.152.777.604.747 1.098a1.19 1.19 0 0 1-.768 1.189zM757.1 282.481v4.343a3.329 3.329 0 0 1-1.601.379c-.478 0-.821-.17-.945-.492a4.268 4.268 0 0 1-.121-1.097v-3.133h-1.022v3.299c-.016.463.03.926.135 1.377.213.708.811.956 1.564.956a2.48 2.48 0 0 0 1.99-.836l.045.708h.966v-5.505H757.1zM707.35 283.968h-2.957v.889h1.912v2.068a5.476 5.476 0 0 1-1.734.233c-1.565 0-2.5-.931-2.5-3.087 0-2.234 1.08-2.957 2.758-2.957.701-.001 1.399.062 2.088.188l.179-.888a8.918 8.918 0 0 0-2.312-.255c-2.333 0-3.823 1.166-3.823 3.99 0 2.826 1.277 3.987 3.54 3.987a7.198 7.198 0 0 0 2.857-.577h-.007v-3.591zM750.122 283.635l-.78-.276c-.889-.312-1.122-.687-1.122-1.2 0-.754.489-1.062 1.522-1.062a8.563 8.563 0 0 1 1.855.188l.181-.9a7.792 7.792 0 0 0-2.012-.233c-1.547 0-2.644.708-2.644 2.125 0 1.111.51 1.699 1.844 2.167l.775.27c.978.333 1.3.676 1.3 1.278 0 .754-.511 1.186-1.771 1.186a7.136 7.136 0 0 1-2.064-.297l-.298.892a7.794 7.794 0 0 0 2.334.354c1.887 0 2.899-.878 2.899-2.266.002-1.168-.519-1.681-2.019-2.226zM744.013 282.347a2.5 2.5 0 0 0-1.89.846v-3.3H741.1v7.92a8.911 8.911 0 0 0 2.291.312c1.543 0 2.667-.92 2.667-3.045 0-1.976-.813-2.733-2.045-2.733zm-.618 4.931a9.233 9.233 0 0 1-1.267-.067v-3.597a3.412 3.412 0 0 1 1.468-.354c.89 0 1.417.478 1.417 1.898l.003-.004c0 1.646-.656 2.124-1.621 2.124zM731.962 286.535c-.244-1.02-.545-2.021-1.734-6.209h-1.126c-1.243 4.167-1.564 5.183-1.834 6.209-.209-1.041-.453-2.124-1.477-6.209h-1.168l2 7.661h1.122c1.416-4.603 1.646-5.342 1.912-6.334.255.97.456 1.771 1.746 6.334h1.111l2.188-7.654h-1.144c-1.111 4.191-1.356 5.175-1.596 6.202zM721.886 284.06c0-1.912-.707-3.168-2.067-3.522a8.483 8.483 0 0 0-2.178-.212h-2.124v7.661h1.887c1.201 0 1.689-.053 2.302-.254 1.611-.521 2.189-1.934 2.189-3.665l-.009-.008zm-2.181 2.609a4.277 4.277 0 0 1-2.068.379h-1.062v-5.768h1.062a5.251 5.251 0 0 1 1.933.245c.968.421 1.254 1.434 1.254 2.556l.012.01c-.001 1.357-.434 2.168-1.131 2.578zM739.489 283.278c-.354-.666-1.01-.966-1.976-.966-1.512 0-2.624.945-2.624 2.91 0 1.855.911 2.889 2.656 2.889a5.549 5.549 0 0 0 2.124-.378l-.191-.708a7.65 7.65 0 0 1-1.575.156c-1.355 0-1.958-.566-1.969-1.771l3.855.039v-.294a4.224 4.224 0 0 0-.3-1.877zm-3.533 1.37c.077-1.257.856-1.501 1.512-1.501.923 0 1.355.378 1.366 1.501h-2.878zM759.775 282.481h1.034v5.498h-1.034v-5.498zM760.912 280.693c0-.492-.245-.634-.612-.634a.564.564 0 0 0-.62.645c0 .489.266.634.62.634.353 0 .612-.181.612-.645m4.528 7.293l-.043-.747h-.634c-.411 0-.598-.121-.687-.266a1.541 1.541 0 0 1-.134-.8v-2.861h1.397v-.832h-1.397v-1.601h-.967c-.047 1.543-.047 1.601-.047 1.601h-.874v.832h.867v2.903c-.042.474.059.95.291 1.367a1.5 1.5 0 0 0 1.189.503 6.72 6.72 0 0 0 1.041-.079m4.655-3.358h-2.879c.078-1.257.856-1.501 1.513-1.501.919 0 1.354.378 1.366 1.501m.955.8v-.294a4.25 4.25 0 0 0-.301-1.876c-.354-.666-1.009-.966-1.979-.966-1.509 0-2.62.945-2.62 2.91 0 1.855.91 2.889 2.655 2.889a5.508 5.508 0 0 0 2.124-.378l-.188-.708a7.671 7.671 0 0 1-1.578.156c-1.355 0-1.954-.566-1.965-1.771l3.852.038z"/>
  <defs>
    <path id="a" d="M790.68 290.923h-.972a11.959 11.959 0 0 1-3.108 2.117 9.181 9.181 0 0 0 7.417-2.521 12.775 12.775 0 0 1-3.337.437m-6.282 1.539c.203.086.411.164.622.229a10.897 10.897 0 0 0 3.51-1.945 14.823 14.823 0 0 1-3.021-.861l-1.111 2.577zm8.279-5.863a12.446 12.446 0 0 1-2.128 3.407 11.223 11.223 0 0 0 4.592-.875 9 9 0 0 0 1.416-3.2 11.436 11.436 0 0 1-3.88.668m-6.817 2.458c1.127.467 2.318.769 3.532.894a11.729 11.729 0 0 0 2.334-3.384 14.418 14.418 0 0 1-4.362-1.038l-1.504 3.528zm-7.373-5.22v.087a9.15 9.15 0 0 0 5.104 8.134l1.092-2.588a14.063 14.063 0 0 1-6.218-5.819 1.319 1.319 0 0 0 0 .154m3.414 2.729a13.273 13.273 0 0 0 3.162 2.184l1.526-3.527a13.983 13.983 0 0 1-3.838-2.598c-.512 1.27-.8 2.617-.851 3.984m11.822-5.207a13.364 13.364 0 0 1-.721 4.367 9.957 9.957 0 0 0 3.731-.798 9.194 9.194 0 0 0-.49-4.104 6.884 6.884 0 0 1-2.521.556m-5.93 3.33c1.39.561 2.863.885 4.36.96a12.51 12.51 0 0 0 .765-4.367 10.797 10.797 0 0 1-3.273-.776l-1.852 4.183zm-8.55-4.367a8.95 8.95 0 0 0-.514 1.692 12.576 12.576 0 0 0 2.41 3.689c.124-1.33.464-2.63 1.003-3.854a11.688 11.688 0 0 1-2.028-3.134 8.85 8.85 0 0 0-.871 1.607m3.959 1.343a12.902 12.902 0 0 0 3.763 2.718l1.799-4.17a10.656 10.656 0 0 1-2.978-2.031 12.44 12.44 0 0 0-2.619 3.526m6.741-1.942c3.271 1.3 5.451.512 6.03.229a9.08 9.08 0 0 0-4.252-4.367l-1.778 4.138zm-9.204-1.824a10.209 10.209 0 0 0 1.832 3.079 13.527 13.527 0 0 1 2.661-3.505 6.104 6.104 0 0 1-1.09-2.052 9.06 9.06 0 0 0-3.371 2.478m5.737-.349a9.544 9.544 0 0 0 2.671 1.824l1.779-4.095-.394-.142a14.905 14.905 0 0 0-4.056 2.413m-1.55-2.434c.197.648.52 1.253.948 1.779a16.019 16.019 0 0 1 3.272-2.097 8.845 8.845 0 0 0-1.417-.108 9.017 9.017 0 0 0-2.76.426"/>
  </defs>
  <clipPath id="b">
    <use xlink:href="#a" overflow="visible"/>
  </clipPath>
  <g clip-path="url(#b)">
    <path fill="#EEE" d="M771.875 290.568l9.308-22.363 22.268 9.289-9.308 22.361-22.268-9.287z"/>
    <path fill="#8FB823" d="M787.222 284.906l2.072-4.771c.685.283 1.392.502 2.116.656a9.918 9.918 0 0 0 1.962.252c.033.854-.025 1.711-.174 2.554a12.598 12.598 0 0 1-.676 2.62s-1.33-.174-2.377-.426a13.54 13.54 0 0 1-2.923-.885"/>
  </g>
</svg>