<svg xmlns="http://www.w3.org/2000/svg" width="24" height="24">
  <path d="M22.85 8.86a1.5 1.5 0 0 0-1.2-.61h-.84l.08-1.41a1.49 1.49 0 0 0-.4-1.12 1.51 1.51 0 0 0-1.09-.47h-6.88l-1.81-1.81A1.53 1.53 0 0 0 9.65 3h-6a1.5 1.5 0 0 0-1.5 1.5v15.17a.34.34 0 0 1 0 .1 1.53 1.53 0 0 0 .26.6l.06.07.15.17.09.07a.94.94 0 0 0 .18.12l.1.05a.83.83 0 0 0 .22.08h.09a1.15 1.15 0 0 0 .33 0h15a1.61 1.61 0 0 0 .43-.07h.07a1.55 1.55 0 0 0 .36-.19h.06a1.33 1.33 0 0 0 .29-.29 1.69 1.69 0 0 0 .19-.38l3-9.75a1.51 1.51 0 0 0-.18-1.39zM3.65 4.5h6l2.25 2.25h7.5l-.09 1.5H6.65a1.51 1.51 0 0 0-1.44 1.06L3.65 14.4zm16.85 9l-1.85 6h-15l3-9.75h15z"/>
</svg>
