<svg xmlns="http://www.w3.org/2000/svg" width="24" height="24" viewBox="0 0 24 24"><title>gbd-icon-flurstuecksuche</title><g id="flurstueck-4"><path d="M15.57,20.59A6.46,6.46,0,0,1,9.4,19.28v.89H7.07V17.83h1.1a6.12,6.12,0,0,1-.9-2.33h-.2V13.17h.21a6.42,6.42,0,0,1,1-2.34H7.07V8.5H9.4v1a6.45,6.45,0,0,1,4.27-1.61c.24,0,.49,0,.73,0a6.42,6.42,0,0,1,2,.58v-7H4.73v21H16.4V21.41h0ZM11.73,3.83h2.34V6.17H11.73Zm-4.66,0H9.4V6.17H7.07Z"/><path d="M17.46,16.77a4.46,4.46,0,0,0,.69-2.66,4.54,4.54,0,0,0-4-4.2l-.51,0a4.5,4.5,0,0,0,0,9,4.43,4.43,0,0,0,2.39-.7l2.41,2.41a1,1,0,0,0,.71.29,1,1,0,0,0,.71-.29,1,1,0,0,0,0-1.42Zm-3.8.11a2.5,2.5,0,1,1,2.5-2.5A2.5,2.5,0,0,1,13.66,16.88Z"/></g></svg>