<svg xmlns="http://www.w3.org/2000/svg" width="24" height="24">
  <path d="M13 15.56a.33.33 0 1 0 .33-.33.33.33 0 0 0-.33.33z"/>
  <circle cx="16.69" cy="9.62" r=".33"/>
  <path d="M4.53 12a.33.33 0 1 0-.33.33.33.33 0 0 0 .33-.33zM9.71 10a.33.33 0 1 0 .33.33.33.33 0 0 0-.33-.33z"/>
  <path d="M12 1.5a10.5 10.5 0 0 0-10.34 8.69 9.67 9.67 0 0 0-.15 1.53h1.36v.58H1.51a11 11 0 0 0 .15 1.53A10.5 10.5 0 1 0 12 1.5zM3.17 12a1 1 0 1 1 1 1 1 1 0 0 1-1-1zM12 20.4a8.41 8.41 0 0 1-8.2-6.57h1.5a7 7 0 1 0 0-3.64H3.79A8.4 8.4 0 1 1 12 20.4zm-6.65-8.93l3.16-1 .17.55-3.15.98zm10.46-.85l.51.28-2 3.73-.52-.28zm-.15-1a1 1 0 1 1 1 1 1 1 0 0 1-1-1zm-1.3 5.94a1 1 0 1 1-1-1 1 1 0 0 1 1 1zm-2.12-.85l-2.05-3.2.49-.32 2.05 3.21zm-2.53-3.33a1 1 0 1 1 1-1 1 1 0 0 1-1 1z"/>
</svg>
