<svg xmlns="http://www.w3.org/2000/svg" width="24" height="24">
  <path d="M17.11 21.41l-.85-.86a5.42 5.42 0 0 1-1.26.15 5.77 5.77 0 0 1-2.39-.53h-.16v-.08a5.68 5.68 0 0 1-2.33-2.15v2.23H7.78v-2.34h2.27a5.8 5.8 0 0 1-.74-2.33H7.78v-2.33h1.8a5.81 5.81 0 0 1 2.87-3.3V8.5h2.33v.78H15a5.76 5.76 0 0 1 2.12.41V1.5H5.45v21h11.67v-1.09zM12.45 3.83h2.33v2.34h-2.33zm-4.67 0h2.34v2.34H7.78zm0 4.67h2.34v2.33H7.78z"/>
  <path d="M18.25 16.75a3.65 3.65 0 0 0 .47-1.75A3.72 3.72 0 1 0 15 18.7a3.61 3.61 0 0 0 1.76-.47L18.52 20A1.05 1.05 0 1 0 20 18.51zM16.6 15.1a1.61 1.61 0 0 1-1.48 1.49H15A1.62 1.62 0 1 1 16.62 15a.5.5 0 0 1-.02.1z"/>
</svg>
