<svg xmlns="http://www.w3.org/2000/svg" width="24" height="24">
  <path d="M13.15 16.07a.38.38 0 0 0 .75 0 .38.38 0 1 0-.75 0z"/>
  <circle cx="17.36" cy="9.29" r=".38"/>
  <path d="M3.46 12a.37.37 0 0 0-.37-.37.38.38 0 1 0 0 .75.37.37 0 0 0 .37-.38zM9.39 9.74a.38.38 0 1 0 .37.37.38.38 0 0 0-.37-.37z"/>
  <path d="M12 0A12 12 0 0 0 .18 9.93 12.65 12.65 0 0 0 0 11.68h1.57v.67H0a12.51 12.51 0 0 0 .18 1.74A12 12 0 1 0 12 0zM1.91 12a1.18 1.18 0 1 1 1.18 1.18A1.17 1.17 0 0 1 1.91 12zM12 21.6a9.61 9.61 0 0 1-9.36-7.51h1.7a7.94 7.94 0 1 0 0-4.16H2.62A9.6 9.6 0 1 1 12 21.6zM4.41 11.39L8 10.26l.2.64L4.6 12zm11.94-1l.59.32L14.6 15l-.6-.32zm-.16-1.13a1.18 1.18 0 1 1 1.17 1.17 1.17 1.17 0 0 1-1.17-1.14zm-1.49 6.81a1.18 1.18 0 1 1-1.18-1.18 1.18 1.18 0 0 1 1.18 1.18zm-2.43-1l-2.34-3.64.56-.35 2.34 3.66zm-2.88-3.78a1.18 1.18 0 1 1 0-2.35 1.18 1.18 0 0 1 0 2.35z"/>
</svg>
