<svg xmlns="http://www.w3.org/2000/svg" width="24" height="24">
  <path d="M12 1.5h-.59a9.23 9.23 0 0 0-1.4.17l.4 2.06A8.4 8.4 0 0 1 12 3.6V1.5zM8.75 2a10.68 10.68 0 0 0-1.83.8l1 1.84A8.19 8.19 0 0 1 9.4 4l-.65-2zM5.83 3.51a10.43 10.43 0 0 0-1.5 1.32l1.53 1.43a10.11 10.11 0 0 1 1.2-1.06L5.83 3.51zM3.5 5.83l-.21.31a10.23 10.23 0 0 0-.77 1.37l1.9.89a8.22 8.22 0 0 1 .78-1.33L3.5 5.83zM2 8.76c-.07.22-.13.44-.19.66v.06h-.13c0 .17 0 .33-.07.5L3.66 11A8.2 8.2 0 0 1 4 9.41l-2-.65zM3.6 12H1.5v.9c0 .27.07.54.12.8l2.06-.39A8.51 8.51 0 0 1 3.6 12zm.4 2.6l-2 .65c.08.24.17.48.26.71h.1c0 .06 0 .11.07.17h.07v.06h.1l.15.28 1.84-1A8.28 8.28 0 0 1 4 14.6zm1.2 2.34l-1.7 1.24q.3.41.63.78h.29l.4.39 1.44-1.53a8.59 8.59 0 0 1-1.06-1.2zm1.87 1.86l-1.23 1.7.4.28h.16a11.82 11.82 0 0 0 1.16.64l.89-1.91a8.31 8.31 0 0 1-1.38-.81zM9.41 20l-.64 2h1.41l.53.08.29-1.74A8.38 8.38 0 0 1 9.41 20zm4.19.26a8.4 8.4 0 0 1-1.6.14v2.1h.78a9.77 9.77 0 0 0 1.22-.19l-.4-2.06zm2.47-.9a9 9 0 0 1-1.46.64l.65 2c.26-.08.51-.18.76-.28H16.71l.38-.2-1-1.84zm2.07-1.62a8.06 8.06 0 0 1-1.2 1.06l1.24 1.7.26-.2h.1a11.25 11.25 0 0 0 1.14-1.05l-1.54-1.43zm1.48-2.18a8.8 8.8 0 0 1-.82 1.38l1.7 1.23.14-.19h.11a9 9 0 0 0 .5-.85h.1l.16-.32-1.9-.89zm.72-2.56a9.12 9.12 0 0 1-.34 1.58l2 .65c.06-.21.13-.43.18-.65v-.06c.05-.25.09-.51.12-.77L20.34 13zm2-3l-2.06.4a8.51 8.51 0 0 1 .12 1.6h2.1v-.57c0-.25-.06-.49-.11-.74zm-1.16-3.09l-1.83 1A8.28 8.28 0 0 1 20 9.39l2-.65-.12-.35h-.13a11 11 0 0 0-.52-1.1zm-2-2.59l-1.46 1.53a9.36 9.36 0 0 1 1.07 1.2l1.69-1.24a10.42 10.42 0 0 0-1.32-1.49zm-2.75-1.84l-.89 1.9a8.61 8.61 0 0 1 1.38.81l1.23-1.7a9.82 9.82 0 0 0-1.72-1zm-3.16-.9L13 3.66a9.23 9.23 0 0 1 1.58.34l.64-2A12.29 12.29 0 0 0 14 1.69h-.25l-.47-.06zM10.95 10.95h2.1v6.3h-2.1zM10.95 6.75h2.1v2.1h-2.1z"/>
</svg>
