<svg id="mark-measure-2" xmlns="http://www.w3.org/2000/svg" width="24" height="24" viewBox="0 0 24 24"><title>gbd-icon-markieren-messen</title><path d="M17.55,8.83v-3H4L1.5,7.33,4,8.83Zm4.95,0v-3H18.9v3Z"/><path d="M20.8,10.47H1.5v7.72h21V10.47Zm0,6H3.2V12.17h1v1.57a.5.5,0,0,0,1,0V12.17H6v2.48a.5.5,0,0,0,.5.5.51.51,0,0,0,.5-.5V12.17h.82v1.57a.5.5,0,0,0,.5.5.5.5,0,0,0,.5-.5V12.17h.82v2.48a.5.5,0,0,0,1,0V12.17h.82v1.57a.5.5,0,1,0,1,0V12.17h.82v2.48a.5.5,0,0,0,1,0V12.17h.82v1.57a.5.5,0,0,0,.5.5.5.5,0,0,0,.5-.5V12.17H17v2.48a.51.51,0,0,0,.5.5.5.5,0,0,0,.5-.5V12.17h.82v1.57a.5.5,0,0,0,.5.5.5.5,0,0,0,.5-.5V12.17h1Z"/></svg>