<svg xmlns="http://www.w3.org/2000/svg" width="24" height="24">
  <path d="M18.83 3.47H5.17a1.71 1.71 0 0 0-1.7 1.7v16.36l3.41-3.41h12a1.71 1.71 0 0 0 1.7-1.71V5.17a1.71 1.71 0 0 0-1.75-1.7zM18 16.41H6.88l-1.71 1.71V6A.87.87 0 0 1 6 5.17h12a.87.87 0 0 1 .86.86v9.53a.86.86 0 0 1-.86.85z"/>
  <path d="M6.88 11.1h1.61V9.49H6.88zm0-2.37h1.61V7.12H6.88zm2.37 2.37h5.87V9.49H9.25zm0-4v1.63h7.87V7.12zm-2.37 4h1.61V9.49H6.88zm0-2.37h1.61V7.12H6.88zm2.37 2.37h5.87V9.49H9.25zm0-4v1.63h7.87V7.12zM16.64 11.86v.94a.25.25 0 0 1-.5 0v-.94h-.59v1.6a.25.25 0 0 1-.25.25.25.25 0 0 1-.25-.25v-1.6h-.58v.94a.25.25 0 0 1-.25.25.25.25 0 0 1-.22-.25v-.94h-.59v1.6a.25.25 0 0 1-.5 0v-1.6h-.59v.94a.25.25 0 0 1-.5 0v-.94h-.62v1.6a.25.25 0 0 1-.5 0v-1.6h-.59v.94a.25.25 0 0 1-.5 0v-.94H9v1.6a.25.25 0 0 1-.25.25.25.25 0 0 1-.25-.25v-1.6h-.56v.94a.25.25 0 0 1-.25.25.25.25 0 0 1-.25-.25v-.94h-.56v3h10.24v-3z"/>
</svg>
