<svg xmlns="http://www.w3.org/2000/svg" width="24" height="24">
  <path d="M20.78 8.26h-.05l-7-5.1a1.72 1.72 0 0 0-3.44 0l-7 5.1A1.73 1.73 0 0 0 1.5 10a1.7 1.7 0 0 0 .81 1.45L5 19.85a1.72 1.72 0 1 0 3 1.77h8a1.72 1.72 0 1 0 3-1.77l2.72-8.41A1.7 1.7 0 0 0 22.5 10a1.73 1.73 0 0 0-1.72-1.74zM17 19.14a1.77 1.77 0 0 0-.65.38H7.66a1.77 1.77 0 0 0-.66-.38l-2.56-7.93A1.72 1.72 0 0 0 5 10a3.16 3.16 0 0 0 0-.32l6.59-4.8a1.54 1.54 0 0 0 1 0l6.59 4.8a3.16 3.16 0 0 0 0 .32 1.72 1.72 0 0 0 .51 1.22z"/>
  <path d="M16.21 15.72L14.45 14a3.68 3.68 0 0 0 .47-1.77 3.72 3.72 0 1 0-3.72 3.71 3.6 3.6 0 0 0 1.8-.49l1.76 1.76a1.05 1.05 0 0 0 1.49 0 1.06 1.06 0 0 0-.04-1.49zm-5-1.91a1.62 1.62 0 1 1 1.62-1.61.5.5 0 0 1 0 .12 1.61 1.61 0 0 1-1.48 1.48z"/>
</svg>
