<svg xmlns="http://www.w3.org/2000/svg" width="24" height="24">
  <path d="M17.55 9.83v-3H4l-2.5 1.5L4 9.83zm4.95 0v-3h-3.6v3zM20.8 11.47H1.5v7.72h21v-7.72zm0 6H3.2v-4.3h1v1.57a.5.5 0 0 0 1 0v-1.57H6v2.48a.5.5 0 0 0 .5.5.51.51 0 0 0 .5-.5v-2.48h.82v1.57a.5.5 0 0 0 .5.5.5.5 0 0 0 .5-.5v-1.57h.82v2.48a.5.5 0 0 0 1 0v-2.48h.82v1.57a.5.5 0 1 0 1 0v-1.57h.82v2.48a.5.5 0 0 0 1 0v-2.48h.82v1.57a.5.5 0 0 0 .5.5.5.5 0 0 0 .5-.5v-1.57h.9v2.48a.51.51 0 0 0 .5.5.5.5 0 0 0 .5-.5v-2.48h.82v1.57a.5.5 0 0 0 .5.5.5.5 0 0 0 .5-.5v-1.57h1z"/>
</svg>
