<svg xmlns="http://www.w3.org/2000/svg" xmlns:xlink="http://www.w3.org/1999/xlink" width="24" height="24">
  <defs>
    <path id="a" d="M16.021 21.146h-1.273a15.722 15.722 0 0 1-4.076 2.777 12.033 12.033 0 0 0 9.724-3.307 16.662 16.662 0 0 1-4.375.573m-8.237 2.018c.267.114.539.215.815.301a14.284 14.284 0 0 0 4.604-2.548 19.46 19.46 0 0 1-3.961-1.131l-1.458 3.378zm10.854-7.688a16.23 16.23 0 0 1-2.788 4.467 14.7 14.7 0 0 0 6.02-1.146 11.854 11.854 0 0 0 1.859-4.195 15.052 15.052 0 0 1-5.091.874M9.7 18.74a16.567 16.567 0 0 0 4.633 1.174 15.434 15.434 0 0 0 3.06-4.438 18.922 18.922 0 0 1-5.72-1.36L9.7 18.74zM.034 11.897v.114a11.996 11.996 0 0 0 6.692 10.666l1.43-3.393a18.439 18.439 0 0 1-8.151-7.631.965.965 0 0 0 0 .201m4.475 3.579a17.385 17.385 0 0 0 4.147 2.864l2.002-4.625c-1.855-.849-3.556-2-5.034-3.407a15.57 15.57 0 0 0-1.116 5.225m15.503-6.828a17.573 17.573 0 0 1-.944 5.727 13.11 13.11 0 0 0 4.891-1.045 11.99 11.99 0 0 0-.644-5.383 9.073 9.073 0 0 1-3.303.73m-7.779 4.366a17.682 17.682 0 0 0 5.72 1.26 16.404 16.404 0 0 0 1.001-5.727 14.138 14.138 0 0 1-4.291-1.017l-2.43 5.484zM.992 7.33a11.615 11.615 0 0 0-.673 2.219 16.538 16.538 0 0 0 3.16 4.839 16.302 16.302 0 0 1 1.315-5.054 15.338 15.338 0 0 1-2.659-4.109c-.453.66-.837 1.365-1.143 2.105m5.191 1.761a16.921 16.921 0 0 0 4.933 3.565l2.359-5.469a14.021 14.021 0 0 1-3.904-2.663A16.233 16.233 0 0 0 6.14 9.148M14.977 6.6c4.29 1.704 7.15.673 7.908.301a11.913 11.913 0 0 0-5.577-5.727L14.977 6.6zM2.908 4.209A13.395 13.395 0 0 0 5.31 8.246a17.73 17.73 0 0 1 3.489-4.595A8.04 8.04 0 0 1 7.369.959a11.86 11.86 0 0 0-4.418 3.25m7.521-.458a12.498 12.498 0 0 0 3.504 2.391L16.307.773l-.515-.186a19.5 19.5 0 0 0-5.32 3.164M8.442.558a6.807 6.807 0 0 0 1.244 2.334A20.773 20.773 0 0 1 13.977.143 11.716 11.716 0 0 0 12.117 0a11.874 11.874 0 0 0-3.618.558"/>
  </defs>
  <clipPath id="b">
    <use xlink:href="#a" overflow="visible"/>
  </clipPath>
  <g clip-path="url(#b)">
    <linearGradient id="c" gradientUnits="userSpaceOnUse" x1="-13.821" y1="528.789" x2="-13.702" y2="528.789" gradientTransform="rotate(112.62 34368.02 54584.067) scale(202.8912)">
      <stop offset="0" stop-color="#0081c7"/>
      <stop offset="0" stop-color="#0081c7"/>
      <stop offset=".01" stop-color="#0081c7"/>
      <stop offset=".16" stop-color="#007ac1"/>
      <stop offset=".47" stop-color="#0072bb"/>
      <stop offset="1" stop-color="#006fb9"/>
    </linearGradient>
    <path fill="url(#c)" d="M-8.636 20.68L3.568-8.645l29.198 12.18L20.562 32.86-8.636 20.68z"/>
    <path fill="#8FB823" d="M11.487 13.257l2.717-6.256c.897.37 1.826.657 2.774.859.844.196 1.707.307 2.574.329a15.73 15.73 0 0 1-.229 3.35 16.56 16.56 0 0 1-.886 3.436s-1.745-.229-3.117-.558a17.77 17.77 0 0 1-3.833-1.16"/>
  </g>
</svg>