<svg id="Ebene_1" data-name="Ebene 1" xmlns="http://www.w3.org/2000/svg" viewBox="0 0 228.97 29.3"><defs><style>.cls-1{fill:none}.cls-2{clip-path:url(#clip-path)}.cls-3{fill:#fff}</style><clipPath id="clip-path" transform="translate(-16.43 -10.13)"><path class="cls-1" d="M16.43 15.7h223.64v23.73H16.43z"/></clipPath><clipPath id="clip-path-3" transform="translate(-16.43 -10.13)"><path class="cls-1" d="M233.67 30.93h-.89a11 11 0 0 1-2.85 1.94 8.42 8.42 0 0 0 6.8-2.31 11.65 11.65 0 0 1-3.06.4m-5.76 1.41q.28.12.57.21a10 10 0 0 0 3.22-1.78 13.61 13.61 0 0 1-2.77-.79zM235.5 27a11.33 11.33 0 0 1-1.95 3.12 10.29 10.29 0 0 0 4.21-.8 8.3 8.3 0 0 0 .87-1.58 8.46 8.46 0 0 0 .43-1.35 10.55 10.55 0 0 1-3.56.61m-6.25 2.25a11.6 11.6 0 0 0 3.24.82 10.78 10.78 0 0 0 2.14-3.1 13.26 13.26 0 0 1-4-.95zm-6.76-4.78v.08a8.38 8.38 0 0 0 4.68 7.45l1-2.37a12.89 12.89 0 0 1-5.7-5.33.71.71 0 0 0 0 .14m3.13 2.5a12.15 12.15 0 0 0 2.9 2l1.4-3.23a12.86 12.86 0 0 1-3.52-2.38 10.86 10.86 0 0 0-.78 3.65m10.84-4.77a12.26 12.26 0 0 1-.66 4 9.18 9.18 0 0 0 3.42-.73 8.38 8.38 0 0 0-.45-3.76 6.35 6.35 0 0 1-2.31.51M231 25.28a12.36 12.36 0 0 0 4 .88 11.47 11.47 0 0 0 .7-4 9.9 9.9 0 0 1-3-.71zm-7.84-4a8.1 8.1 0 0 0-.47 1.55 11.53 11.53 0 0 0 2.21 3.38 11.37 11.37 0 0 1 .92-3.53 10.72 10.72 0 0 1-1.86-2.87 8 8 0 0 0-.8 1.47m3.63 1.23a11.84 11.84 0 0 0 3.45 2.49l1.65-3.82a9.79 9.79 0 0 1-2.73-1.86 11.34 11.34 0 0 0-2.4 3.23m6.18-1.78c3 1.19 5 .47 5.53.21a8.32 8.32 0 0 0-3.9-4zm-8.44-1.67a9.37 9.37 0 0 0 1.68 2.82 12.39 12.39 0 0 1 2.44-3.21 5.6 5.6 0 0 1-1-1.88 8.3 8.3 0 0 0-3.09 2.27m5.26-.32a8.74 8.74 0 0 0 2.45 1.67l1.63-3.75-.36-.13a13.64 13.64 0 0 0-3.72 2.21m-1.42-2.23a4.75 4.75 0 0 0 .87 1.63 14.56 14.56 0 0 1 3-1.92 8.13 8.13 0 0 0-1.3-.1 8.31 8.31 0 0 0-2.53.39"/></clipPath></defs><g class="cls-2"><path class="cls-3" d="M34.48 37.79V27.65h-8.35v2.51h5.4V36a15.58 15.58 0 0 1-4.9.66c-4.42 0-7.06-2.63-7.06-8.72 0-6.31 3.05-8.35 7.79-8.35a32.52 32.52 0 0 1 5.9.53l.5-2.51a25.27 25.27 0 0 0-6.53-.72c-6.59 0-10.8 3.29-10.8 11.27s3.61 11.26 10 11.26a20.33 20.33 0 0 0 8.07-1.63M50.44 23a3.33 3.33 0 0 1-1.69 3.11 9.08 9.08 0 0 1-3.58.41h-3.7v-6.74h3.36a11.82 11.82 0 0 1 3.29.28 3 3 0 0 1 2.32 3m-9 6h3.86a9.85 9.85 0 0 1 3.76.48 3.06 3.06 0 0 1 2.11 3.1A3.37 3.37 0 0 1 49 36a12.36 12.36 0 0 1-4 .47h-3.53zm11.86-6.4c0-3.17-2-4.86-5.18-5.14-.88-.1-2.26-.13-3.29-.13h-6.28V39h6.21a17.94 17.94 0 0 0 5.53-.63 5.69 5.69 0 0 0 3.82-5.64c0-3-1.72-4.59-4.39-5.05a4.73 4.73 0 0 0 3.61-5M72.57 28c0 3.83-1.22 6.12-3.19 7.28a12.08 12.08 0 0 1-5.84 1.07h-3V20.06h3a14.84 14.84 0 0 1 5.46.69c2.73 1.19 3.54 4.05 3.54 7.22m3-.06c0-5.4-2-8.95-5.84-9.95a24.1 24.1 0 0 0-6.15-.6h-6V39h5.33c3.39 0 4.77-.15 6.5-.72 4.55-1.47 6.18-5.46 6.18-10.35M92.09 39c4-13 4.65-15.09 5.4-17.89.72 2.74 1.29 5 4.93 17.89h3.14l6.18-21.62h-3.23C105.37 29.22 104.68 32 104 34.9c-.69-2.88-1.54-5.71-4.9-17.54h-3.18C92.41 29.13 91.5 32 90.74 34.9c-.59-2.94-1.28-6-4.17-17.54h-3.3L88.92 39zM123.41 29.57h-8.13c.22-3.55 2.42-4.24 4.27-4.24 2.61 0 3.83 1.07 3.86 4.24m2.7 2.26V31a12 12 0 0 0-.85-5.3c-1-1.88-2.85-2.73-5.58-2.73-4.27 0-7.41 2.67-7.41 8.22 0 5.24 2.57 8.16 7.5 8.16a15.61 15.61 0 0 0 6-1.07l-.54-2a21.57 21.57 0 0 1-4.45.44c-3.83 0-5.53-1.6-5.56-5zM140.87 31c0 4.65-1.85 6-4.58 6a26.32 26.32 0 0 1-3.58-.19V26.65a9.69 9.69 0 0 1 4.15-1c2.51 0 4 1.35 4 5.36m2.95-.22c0-5.58-2.29-7.72-5.77-7.72a7.07 7.07 0 0 0-5.34 2.39v-9.32h-2.89v22.37a25.18 25.18 0 0 0 6.47.88c4.36 0 7.53-2.6 7.53-8.6M146.22 38.39a22 22 0 0 0 6.59 1c5.33 0 8.19-2.48 8.19-6.4 0-3.29-1.47-4.74-5.71-6.28l-2.2-.78c-2.51-.88-3.17-1.94-3.17-3.39 0-2.13 1.38-3 4.3-3a24.27 24.27 0 0 1 5.24.53l.51-2.54a22.12 22.12 0 0 0-5.68-.66c-4.37 0-7.47 2-7.47 6 0 3.14 1.44 4.8 5.21 6.12l2.19.76c2.76.94 3.67 1.91 3.67 3.61 0 2.13-1.44 3.35-5 3.35a20.06 20.06 0 0 1-5.83-.84zM177.86 39V23.45H175v12.27a9.43 9.43 0 0 1-4.52 1.07c-1.35 0-2.32-.48-2.67-1.39a12 12 0 0 1-.34-3.1v-8.85h-2.89v9.32a15.14 15.14 0 0 0 .38 3.89c.6 2 2.29 2.7 4.42 2.7A7 7 0 0 0 175 37l.13 2z" transform="translate(-16.43 -10.13)"/></g><path class="cls-3" d="M166.13 13.32h2.92v15.53h-2.92z"/><g class="cls-2"><path class="cls-3" d="M185.77 18.4c0-1.39-.69-1.79-1.73-1.79a1.59 1.59 0 0 0-1.75 1.82c0 1.38.75 1.79 1.75 1.79s1.73-.51 1.73-1.82M198.56 39l-.12-2.11h-1.79c-1.16 0-1.69-.34-1.94-.75a4.36 4.36 0 0 1-.38-2.26V25.8h3.95v-2.35h-3.95v-4.52h-2.73c-.13 4.36-.13 4.52-.13 4.52H189v2.35h2.45V34a6.7 6.7 0 0 0 .82 3.86 4.24 4.24 0 0 0 3.36 1.42 18.83 18.83 0 0 0 2.94-.22M211.71 29.57h-8.13c.22-3.55 2.42-4.24 4.27-4.24 2.6 0 3.83 1.07 3.86 4.24m2.7 2.26V31a12 12 0 0 0-.85-5.3c-1-1.88-2.85-2.73-5.59-2.73-4.26 0-7.4 2.67-7.4 8.22 0 5.24 2.57 8.16 7.5 8.16a15.52 15.52 0 0 0 6-1.07l-.53-2a21.6 21.6 0 0 1-4.46.44c-3.83 0-5.52-1.6-5.55-5z" transform="translate(-16.43 -10.13)"/></g><g clip-path="url(#clip-path-3)"><path class="cls-3" transform="rotate(-67.38 215.10041785 31.89230287)" d="M219.83 13.56h22.19v22.12h-22.19z"/><path d="M230.5 25.42l1.9-4.37a11.15 11.15 0 0 0 1.94.6 9 9 0 0 0 1.8.23 11 11 0 0 1-.16 2.34 11.57 11.57 0 0 1-.62 2.4s-1.22-.16-2.18-.39a12.43 12.43 0 0 1-2.68-.81" transform="translate(-16.43 -10.13)" fill="#8fb823"/></g></svg>
