<?xml version="1.0" encoding="utf-8"?>
<!DOCTYPE svg PUBLIC "-//W3C//DTD SVG 1.1//EN" "http://www.w3.org/Graphics/SVG/1.1/DTD/svg11.dtd">
<svg version="1.1" id="Layer_1" xmlns="http://www.w3.org/2000/svg" xmlns:xlink="http://www.w3.org/1999/xlink" x="0px" y="0px"
	 width="24px" height="24px" viewBox="0 0 24 24" enable-background="new 0 0 24 24" xml:space="preserve">
<path fill="none" d="M0,0h24v24H0V0z"/>
<g>
	<path d="M12.166,14.234V11.28h7.63v6.985c-0.74,0.717-1.815,1.351-3.223,1.896c-1.408,0.545-2.832,0.818-4.275,0.818
		c-1.834,0-3.433-0.384-4.796-1.153c-1.364-0.771-2.388-1.87-3.074-3.302c-0.686-1.432-1.029-2.988-1.029-4.67
		c0-1.825,0.382-3.448,1.148-4.868s1.886-2.508,3.361-3.265c1.124-0.582,2.524-0.874,4.198-0.874c2.177,0,3.877,0.457,5.102,1.37
		c1.223,0.914,2.011,2.175,2.361,3.786l-3.517,0.658c-0.247-0.862-0.712-1.542-1.393-2.04c-0.682-0.499-1.534-0.748-2.554-0.748
		c-1.547,0-2.777,0.49-3.689,1.471c-0.914,0.981-1.37,2.436-1.37,4.366c0,2.082,0.463,3.642,1.388,4.682
		c0.925,1.041,2.137,1.562,3.636,1.562c0.742,0,1.485-0.146,2.23-0.437c0.747-0.292,1.385-0.645,1.919-1.059v-2.225H12.166z"/>
</g>
</svg>
