<svg data-name="Layer 1" xmlns="http://www.w3.org/2000/svg" width="8.47mm" height="8.47mm" viewBox="0 0 24 24">
  <path d="M1 20.84h22l-11-19zm3.47-2L12 5.83l7.53 13z"/>
  <path d="M18.36 18.21l-4.21-7.27c-.59 0-.48.38-.78.89s-.8.23-1.1.74-.42.44-.72 1 .33.87 0 1.39-.41.45-.7 1-.6.34-.9.86-.71.67-.37 1.15a1.23 1.23 0 0 0 .34.32h8.41zM12.64 11.82a.35.35 0 0 1-.48 0 .38.38 0 0 1 0-.51.4.4 0 0 1 .52 0 .36.36 0 0 1-.04.51zM11.24 13.36c-.12.12-.3.08-.46.08a.5.5 0 0 1-.4-.13.52.52 0 0 1-.17-.4.5.5 0 0 1 .2-.37.53.53 0 0 1 .37-.21.53.53 0 0 1 .4.18.51.51 0 0 1 .16.4.59.59 0 0 1-.1.45zM9.92 14.11a.38.38 0 0 1-.61 0 .5.5 0 0 1-.15-.33.5.5 0 0 1 .14-.33c.09-.09.22-.06.34-.06a.36.36 0 0 1 .29.1.41.41 0 0 1 .13.29.4.4 0 0 1-.14.33zM10.27 15a.31.31 0 0 1-.42.05c-.11-.11 0-.29.07-.4a.26.26 0 0 1 .38 0 .29.29 0 0 1-.03.35zM9.35 16.94c-.12.12-.2.26-.36.3s-.36.17-.52.12A1.18 1.18 0 0 1 8 17c-.12-.12-.1-.32-.15-.48s-.14-.33-.1-.48.23-.24.35-.36.18-.37.33-.42a1.32 1.32 0 0 1 .56 0c.15 0 .27.25.39.37s.11.29.15.44a.86.86 0 0 1 0 .45.8.8 0 0 1-.18.42z"/>
</svg>
