<svg data-name="Layer 1" xmlns="http://www.w3.org/2000/svg" width="8.47mm" height="8.47mm" viewBox="0 0 24 24">
  <path d="M12 4.5l8.33 13.34H3.66L12 4.5m-1.11-3.14L.2 18.45a1.31 1.31 0 0 0 1.1 2h21.39a1.31 1.31 0 0 0 1.11-2L13.11 1.36a1.3 1.3 0 0 0-2.22 0z"/>
  <path d="M18.87 16.77L14.6 9.93c-.34.13-.27.46-.48.92s-.76.31-1 .86-.38.48-.62 1 .42.84.18 1.38-.36.49-.6 1-.56.4-.8.94-.64.74-.25 1.19h8.17zM13.55 10.21c-.24.24-.6.14-.91.14a1 1 0 0 1-.79-.26 1.05 1.05 0 0 1-.35-.79 1 1 0 0 1 .4-.74 1 1 0 0 1 .74-.4 1.05 1.05 0 0 1 .79.35 1 1 0 0 1 .33.79 1.26 1.26 0 0 1-.21.91zM11 11a.84.84 0 0 1-.57.35 1 1 0 0 1-.66-.26 1 1 0 0 1-.29-.66 1 1 0 0 1 .29-.66c.17-.18.43-.11.66-.11a.73.73 0 0 1 .58.19.79.79 0 0 1 .25.58.73.73 0 0 1-.26.57zM11.88 12.87A.63.63 0 0 1 11 13c-.23-.22-.09-.59.13-.81a.54.54 0 0 1 .77-.09.57.57 0 0 1-.02.77zM10 16.41c-.24.24-.41.52-.71.61s-.72.32-1 .24a2.36 2.36 0 0 1-.86-.64c-.24-.24-.21-.65-.29-1s-.29-.65-.21-1 .46-.47.7-.71.36-.75.66-.83a2.27 2.27 0 0 1 1.1 0c.31.08.54.48.78.72s.22.59.3.89a1.65 1.65 0 0 1 0 .88 1.55 1.55 0 0 1-.47.84z"/>
</svg>
