<svg xmlns="http://www.w3.org/2000/svg" viewBox="0 0 24 24"><path d="M12 24a12.1 12.1 0 01-1.21-.06l.31-3.2a8.8 8.8 0 001.85 0l.34 3.2A10.91 10.91 0 0112 24zm-3.67-.58a11.81 11.81 0 01-2.3-1l1.6-2.79a7.87 7.87 0 001.68.74zm7.41 0l-1-3a8.75 8.75 0 001.68-.76L18 22.37a11.22 11.22 0 01-2.26 1.03zM4 20.94a12.33 12.33 0 01-1.68-1.86l2.58-1.9a8.86 8.86 0 001.24 1.36zm16.06-.05l-2.16-2.38a8.93 8.93 0 001.23-1.38l2.6 1.87a12.84 12.84 0 01-1.67 1.89zm-19-4a12.37 12.37 0 01-.78-2.39l3.13-.68A8.76 8.76 0 004 15.58zM23 16.84l-2.92-1.31a9.54 9.54 0 00.56-1.74l3.14.65a12.25 12.25 0 01-.78 2.4zM.4 12H0a12.41 12.41 0 01.26-2.53l3.14.67A8.55 8.55 0 003.21 12zm20.39 0a8.61 8.61 0 00-.19-1.83l3.14-.67A12.34 12.34 0 0124 12zM4 8.38l-3-1.3A11.55 11.55 0 012.29 4.9l2.59 1.89A9 9 0 004 8.38zm16-.01a8.66 8.66 0 00-.92-1.59l2.59-1.9A12.74 12.74 0 0123 7.06zM6.11 5.42L4 3a12.18 12.18 0 012-1.45l1.6 2.78a9.33 9.33 0 00-1.49 1.09zm11.76 0a8.62 8.62 0 00-1.48-1.08L18 1.54A12.69 12.69 0 0120 3zm-8.6-1.84L8.28.52A12.1 12.1 0 0110.74 0l.33 3.2a8.61 8.61 0 00-1.8.38zm5.44 0a8.48 8.48 0 00-1.8-.38l.33-3.2a12.25 12.25 0 012.46.52zM10.8 6h2.4v2.4h-2.4zm0 4.8h2.4V18h-2.4z"/></svg>