<svg width="6.35mm" height="6.35mm" inkscape:version="0.92.3 (2405546, 2018-03-11)" sodipodi:docname="Info_Hand_Klick_02_opt.svg" version="1.1" viewBox="0 0 6.35 6.35" xmlns="http://www.w3.org/2000/svg" xmlns:inkscape="http://www.inkscape.org/namespaces/inkscape" xmlns:sodipodi="http://sodipodi.sourceforge.net/DTD/sodipodi-0.dtd">
 <sodipodi:namedview id="base" bordercolor="#666666" borderopacity="1.0" fit-margin-bottom="0" fit-margin-left="0" fit-margin-right="0" fit-margin-top="0" inkscape:current-layer="layer1" inkscape:cx="2.9906354" inkscape:cy="13.016567" inkscape:document-units="mm" inkscape:pageopacity="0.0" inkscape:pageshadow="2" inkscape:window-height="1051" inkscape:window-maximized="1" inkscape:window-width="1920" inkscape:window-x="1920" inkscape:window-y="0" inkscape:zoom="16" pagecolor="#ffffff" showgrid="false"/>
 <g transform="translate(-101.9 -53.432)" inkscape:groupmode="layer" inkscape:label="Ebene 1">
  <g transform="matrix(.25027 0 0 .25027 101.9 53.433)">
   <path d="m0 0h24v24h-24z" fill="none" inkscape:connector-curvature="0"/>
   <path d="m12 2c-5.52 0-10 4.48-10 10s4.48 10 10 10 10-4.48 10-10-4.48-10-10-10zm1 15h-2v-6h2zm0-8h-2v-2h2z" inkscape:connector-curvature="0"/>
  </g>
  <g transform="matrix(.005728 0 0 .005728 105.56 57.399)">
   <path d="m438.83 186.35-80.213-88.149c-15.872-15.872-41.728-15.893-57.749 0.128-5.077 5.077-8.533 11.157-10.325 17.643-15.957-12.224-38.976-11.008-53.675 3.691-5.056 5.077-8.512 11.157-10.347 17.621-15.957-12.181-38.976-10.987-53.653 3.712-4.971 4.971-8.384 10.901-10.24 17.216l-37.803-37.803c-15.872-15.872-41.728-15.893-57.749 0.128-15.893 15.872-15.893 41.728 0 57.621l145.24 145.24-86.144 13.525c-23.275 3.328-40.832 23.552-40.832 47.083 0 17.643 14.357 32 32 32h201.15c31.339 0 60.8-12.203 82.965-34.368l33.557-33.557c22.144-22.123 34.325-51.563 34.325-82.859 0-29.227-10.837-57.237-30.506-78.869zm-18.902 146.64-33.557 33.557c-18.133 18.133-42.24 28.117-67.883 28.117h-201.15c-5.888 0-10.667-4.779-10.667-10.667 0-12.971 9.685-24.128 22.677-25.984l106.99-16.811c3.968-0.619 7.232-3.413 8.491-7.232 1.237-3.797 0.235-8-2.603-10.837l-160.06-160.06c-7.573-7.573-7.573-19.904 0.107-27.605 3.797-3.776 8.768-5.675 13.739-5.675s9.941 1.899 13.739 5.696l106.73 106.73c4.16 4.16 10.923 4.16 15.083 0 2.069-2.091 3.115-4.821 3.115-7.552s-1.045-5.461-3.136-7.552l-43.584-43.584c-7.573-7.573-7.573-19.883 0.128-27.584 7.552-7.552 19.904-7.552 27.456 0l43.605 43.605c4.16 4.16 10.923 4.16 15.083 0 2.069-2.091 3.115-4.821 3.115-7.552s-1.045-5.461-3.136-7.552l-22.251-22.251c-7.573-7.573-7.573-19.883 0.128-27.584 7.552-7.552 19.904-7.552 27.456 0l22.357 22.357c0.043 0.021 0.021 0.021 0.021 0.021l0.063 0.063h0.021c0.021 0 0.021 0.021 0.021 0.021 4.181 3.968 10.795 3.883 14.869-0.213 4.16-4.16 4.16-10.923 0-15.083l-0.917-0.917c-3.669-3.669-5.696-8.555-5.696-13.739s2.005-10.048 5.803-13.845c7.595-7.552 19.883-7.531 27.115-0.363l79.872 87.787c16.063 17.687 24.938 40.599 24.938 64.514 0 25.6-9.963 49.664-28.075 67.776z" inkscape:connector-curvature="0"/>
  </g>
  <g fill="#fff">
   <g transform="matrix(.005728 0 0 .005728 105.56 57.399)">
    <g fill="#fff">
     <path d="m205.92 129.18c-11.781-1.1748-24.002 2.7542-33.052 11.817-4.971 4.971-8.384 10.901-10.24 17.216l-37.803-37.803c-15.872-15.872-41.728-15.893-57.749 0.128-15.893 15.872-15.893 41.728 0 57.621l33.913 33.913c18.781-11.384 72.057-44.721 104.93-82.892zm-86.149 71.509-37.612-37.612c-7.573-7.573-7.573-19.904 0.107-27.605 3.797-3.776 8.768-5.675 13.739-5.675s9.941 1.899 13.739 5.696l42.394 42.394z" fill="#fff" inkscape:connector-curvature="0" sodipodi:nodetypes="cccscscccscsccc"/>
    </g>
   </g>
   <g stroke-width=".0067919">
    <path d="m105.67 57.74c-0.0263-0.02632-0.069-0.02632-0.0954 0-0.0264 0.02635-0.0264 0.06906 0 0.09541l0.14989 0.14989c0.0132 0.01316 0.0304 0.01976 0.0477 0.01976s0.0345-0.0066 0.0477-0.01976c0.0263-0.02635 0.0263-0.06906 0-0.09541z" inkscape:connector-curvature="0"/>
    <path d="m105.72 58.206c0-0.03725-0.0302-0.06745-0.0675-0.06745h-0.21198c-0.0372 0-0.0675 0.03019-0.0675 0.06745 0 0.03725 0.0302 0.06746 0.0675 0.06746h0.21198c0.0373-7e-6 0.0675-0.03021 0.0675-0.06746z" inkscape:connector-curvature="0"/>
    <path d="m105.7 58.415-0.14991 0.1499c-0.0263 0.02633-0.0263 0.06905 0 0.09539 0.0132 0.01317 0.0304 0.01976 0.0477 0.01976s0.0345-0.0066 0.0477-0.01976l0.14991-0.1499c0.0263-0.02634 0.0263-0.06906 0-0.0954s-0.069-0.02634-0.0954 0z" inkscape:connector-curvature="0"/>
    <path d="m106.04 57.886c0.0373 0 0.0675-0.03021 0.0675-0.06746v-0.212c0-0.03725-0.0302-0.06746-0.0675-0.06746s-0.0675 0.0302-0.0675 0.06746v0.212c0 0.03725 0.0302 0.06746 0.0675 0.06746z" inkscape:connector-curvature="0"/>
    <path d="m106.3 57.974c0.0173 0 0.0345-0.0066 0.0477-0.01975l0.14988-0.14989c0.0263-0.02635 0.0263-0.06906 0-0.0954-0.0263-0.02635-0.0691-0.02635-0.0954 0l-0.14989 0.14989c-0.0263 0.02634-0.0263 0.06906 0 0.0954 0.0132 0.01318 0.0304 0.01975 0.0477 0.01975z" inkscape:connector-curvature="0"/>
   </g>
  </g>
 </g>
</svg>
