<svg width="6.35mm" height="6.35mm" inkscape:version="0.92.3 (2405546, 2018-03-11)" sodipodi:docname="Info_Klick_opt.svg" version="1.1" viewBox="0 0 6.35 6.35" xmlns="http://www.w3.org/2000/svg" xmlns:inkscape="http://www.inkscape.org/namespaces/inkscape" xmlns:sodipodi="http://sodipodi.sourceforge.net/DTD/sodipodi-0.dtd">
 <sodipodi:namedview id="base" bordercolor="#666666" borderopacity="1.0" fit-margin-bottom="0" fit-margin-left="0" fit-margin-right="0" fit-margin-top="0" inkscape:current-layer="layer1" inkscape:cx="5.6387418" inkscape:cy="2.0480059" inkscape:document-units="mm" inkscape:pageopacity="0.0" inkscape:pageshadow="2" inkscape:window-height="1051" inkscape:window-maximized="1" inkscape:window-width="1920" inkscape:window-x="1920" inkscape:window-y="0" inkscape:zoom="16.000001" pagecolor="#ffffff" showgrid="false"/>
 <g transform="translate(-101.9 -53.432)" inkscape:groupmode="layer" inkscape:label="Ebene 1">
  <g transform="matrix(.25027 0 0 .25027 101.9 53.433)">
   <path d="m0 0h24v24h-24z" fill="none" inkscape:connector-curvature="0"/>
   <path d="m12 2c-5.52 0-10 4.48-10 10s4.48 10 10 10 10-4.48 10-10-4.48-10-10-10zm1 15h-2v-6h2zm0-8h-2v-2h2z" inkscape:connector-curvature="0"/>
  </g>
  <path d="m108.1 59.374-0.54505-0.54508 0.38884-0.22462c0.0304-0.01756 0.0481-0.05092 0.0455-0.08592-2e-3 -0.03501-0.0248-0.06549-0.0575-0.07848l-1.734-0.6917c-0.034-0.01357-0.0728-0.0056-0.0987 0.0203-0.0259 0.02589-0.0339 0.06471-0.0203 0.09869l0.6916 1.7342c0.013 0.0326 0.0435 0.0549 0.0785 0.05742 0.0351 0.0025 0.0683-0.01516 0.0859-0.04554l0.22459-0.38886 0.54504 0.54509c0.0171 0.0172 0.0406 0.02684 0.0648 0.02684s0.0476-0.0097 0.0648-0.02684l0.26597-0.266c0.0359-0.03577 0.0359-0.09376 0-0.12953zm-0.33073 0.20125-0.56466-0.56472c-0.0174-0.01731-0.0406-0.02684-0.0648-0.02684-5e-3 0-8e-3 2.58e-4 -0.0119 7.84e-4 -0.0282 0.0037-0.0532 0.02034-0.0674 0.04501l-0.18983 0.32869-0.54272-1.3608 1.3607 0.54278-0.32871 0.18986c-0.0247 0.01423-0.0412 0.03912-0.045 0.06737-3e-3 0.02822 6e-3 0.05658 0.0261 0.07672l0.56467 0.56471z" stroke-width=".0092221" inkscape:connector-curvature="0"/>
  <path d="m106.85 58.009-0.65256-0.2603c-0.034-0.01357-0.0728-0.0056-0.0987 0.0203-0.0259 0.02589-0.0339 0.06471-0.0203 0.09869l0.24999 0.62688 0.14779-0.11777 0.24167-0.22283zm-0.37384 0.3678-0.1486-0.37896 0.39027 0.15613z" fill="#fff" stroke-width=".0092221" inkscape:connector-curvature="0" sodipodi:nodetypes="cccccccccccc"/>
 </g>
</svg>
