<svg viewBox="0 0 24 24" xmlns="http://www.w3.org/2000/svg" xml:space="preserve" style="fill-rule:evenodd;clip-rule:evenodd;stroke-linejoin:round;stroke-miterlimit:2"><path d="M9.35 20.5H8.17v-1.36a7.873 7.873 0 0 1 0-8.87v-2.1h2.1A7.851 7.851 0 0 1 14.7 6.8c.296-.015.594-.015.89 0a7.644 7.644 0 0 1 3.52 1.32h1.39v1.2a8 8 0 0 1 2 4.12V1.5h-21v21h12a7.822 7.822 0 0 1-4.15-2Zm8.15-17h3v3h-3v-3Zm-4.67 0h3v3h-3v-3Zm-4.66 0h3v3h-3v-3Zm-1.67 17h-3v-3h3v3Zm0-4.67h-3v-3h3v3Zm0-4.66h-3v-3h3v3Zm0-4.67h-3v-3h3v3Z" style="fill-rule:nonzero"/><path d="M16.61 11.13 7.2 7.2l3.93 9.41 1.22-3.12 3.31 3.31 1.14-1.14-3.31-3.31 3.12-1.22Z" style="fill-rule:nonzero" transform="translate(5.176 5.224)"/></svg>