<svg xmlns="http://www.w3.org/2000/svg" viewBox="0 0 24 24"><path fill="none" d="M0 0h24v24H0V0z"/><path d="M15.061 13.487c.424-.69.668-1.51.668-2.38a4.59 4.59 0 00-4.583-4.583 4.588 4.588 0 00-4.583 4.583 4.588 4.588 0 004.583 4.585c.87 0 1.687-.244 2.377-.666l2.052 2.051c.213.211.493.315.771.315s.555-.104.768-.315a1.082 1.082 0 000-1.537l-2.053-2.053zm-6.325-2.38a2.412 2.412 0 012.409-2.409 2.412 2.412 0 010 4.823 2.415 2.415 0 01-2.409-2.414zM12 24c-.409 0-.814-.021-1.213-.061l.316-3.199a8.86 8.86 0 001.842-.006l.346 3.195c-.424.048-.853.071-1.291.071zm-3.673-.575c-.8-.257-1.572-.601-2.295-1.018l1.6-2.788a8.615 8.615 0 001.679.746l-.984 3.06zm7.413-.023l-1-3.055a8.707 8.707 0 001.677-.755l1.612 2.778c-.722.425-1.493.773-2.289 1.032zM4 20.938a12.333 12.333 0 01-1.684-1.86l2.586-1.901c.363.496.78.955 1.236 1.365L4 20.938zm16.057-.047L17.9 18.506a8.907 8.907 0 001.227-1.372l2.602 1.884a12.484 12.484 0 01-1.672 1.873zM1.054 16.904a12.011 12.011 0 01-.784-2.393l3.135-.677c.129.601.322 1.188.574 1.748l-2.925 1.322zm21.921-.063l-2.929-1.309a8.74 8.74 0 00.562-1.746l3.142.655a12.12 12.12 0 01-.775 2.4zM.396 12.005L0 12.003c0-.876.087-1.717.258-2.533l3.139.665a8.912 8.912 0 00-.19 1.834l-2.811.036zm20.398-.055a8.967 8.967 0 00-.194-1.834l3.137-.669c.176.82.264 1.66.265 2.498l-3.208.005zM3.963 8.384l-2.93-1.308a12 12 0 011.255-2.178L4.883 6.79a8.752 8.752 0 00-.92 1.594zm16.068-.014a8.838 8.838 0 00-.924-1.593l2.591-1.896a12.17 12.17 0 011.26 2.174L20.031 8.37zM6.114 5.419L3.966 3.031a12.046 12.046 0 012.026-1.48L7.6 4.334a8.795 8.795 0 00-1.486 1.085zm11.761-.01a8.905 8.905 0 00-1.488-1.083l1.604-2.785c.722.417 1.404.914 2.027 1.477l-2.143 2.391zm-8.6-1.826L8.282.525c.795-.26 1.62-.436 2.454-.523l.336 3.198a8.795 8.795 0 00-1.797.383zm5.433-.005a8.66 8.66 0 00-1.796-.379L13.241 0c.834.086 1.659.26 2.454.519l-.987 3.059z"/></svg>