<svg xmlns="http://www.w3.org/2000/svg" width="24" height="24">
  <path d="M9.35 20.5H8.17v-1.36a7.86 7.86 0 0 1 0-8.87v-2.1h2.1A7.85 7.85 0 0 1 14.7 6.8a8.69 8.69 0 0 1 .89 0 7.65 7.65 0 0 1 3.52 1.32h1.39v1.2a8 8 0 0 1 2 4.12V1.5h-21v21h12a7.82 7.82 0 0 1-4.15-2zm8.15-17h3v3h-3zm-4.67 0h3v3h-3zm-4.66 0h3v3h-3zm-1.67 17h-3v-3h3zm0-4.67h-3v-3h3zm0-4.66h-3v-3h3zm0-4.67h-3v-3h3z"/>
  <path d="M19.26 17.57a5.38 5.38 0 0 0-3.94-8.23 4.3 4.3 0 0 0-.62 0 5.4 5.4 0 0 0 0 10.8 5.27 5.27 0 0 0 2.86-.84l2.9 2.89a1.2 1.2 0 0 0 1.7-1.7zm-4.56.13a3 3 0 1 1 3-3 3 3 0 0 1-3 3z"/>
</svg>
