<?xml version="1.0" encoding="utf-8"?>
<!DOCTYPE svg PUBLIC "-//W3C//DTD SVG 1.1//EN" "http://www.w3.org/Graphics/SVG/1.1/DTD/svg11.dtd">
<svg version="1.1" id="Layer_1" xmlns="http://www.w3.org/2000/svg" xmlns:xlink="http://www.w3.org/1999/xlink" x="0px" y="0px"
	 width="24px" height="24px" viewBox="0 0 24 24" enable-background="new 0 0 24 24" xml:space="preserve">
<g>
	<path d="M21.705,7.411l-7.736-5.854c-1.186-0.898-2.782-0.901-3.971-0.002L2.299,7.362C1.157,8.225,0.633,9.762,0.996,11.19
		l2.353,9.256c0.396,1.559,1.746,2.649,3.28,2.652l10.767,0.02c0.001,0,0.003,0,0.006,0c1.542,0,2.895-1.095,3.29-2.664l2.315-9.23
		C23.363,9.802,22.84,8.27,21.705,7.411z M20.856,10.628l-2.315,9.23c-0.137,0.544-0.604,0.923-1.139,0.923H17.4L6.636,20.761l0,0
		c-0.532-0.002-0.999-0.379-1.135-0.918l-2.354-9.257C3.019,10.092,3.2,9.559,3.596,9.261l7.699-5.808
		c0.205-0.155,0.446-0.232,0.687-0.232c0.241,0,0.482,0.077,0.688,0.233l7.736,5.854C20.799,9.605,20.98,10.136,20.856,10.628z"/>
	<path d="M14.936,14.622c0.405-0.699,0.64-1.52,0.64-2.396c0-2.546-1.971-4.618-4.394-4.618s-4.394,2.07-4.394,4.618
		c0,2.547,1.972,4.617,4.394,4.617c0.834,0,1.616-0.247,2.281-0.672l1.966,2.066c0.203,0.214,0.47,0.321,0.736,0.321
		c0.267,0,0.534-0.107,0.736-0.321c0.408-0.428,0.408-1.12,0-1.548L14.936,14.622z M8.872,12.226c0-1.339,1.037-2.428,2.31-2.428
		c1.274,0,2.31,1.089,2.31,2.428s-1.036,2.427-2.31,2.427C9.909,14.653,8.872,13.563,8.872,12.226z"/>
</g>
</svg>
