<svg xmlns="http://www.w3.org/2000/svg" width="24" height="24"><path fill="none" d="M0 0h24v24H0V0z"/><path d="M13.54 12.241c0-1.377-1.061-2.497-2.366-2.497s-2.366 1.12-2.366 2.497c0 1.378 1.061 2.498 2.366 2.498 1.304 0 2.366-1.122 2.366-2.498z"/><path d="M21.101 8.411l-7.853-5.979a2.075 2.075 0 0 0-2.531-.002L2.902 8.363c-.732.555-1.06 1.528-.828 2.447l2.394 9.472c.252 1 1.108 1.695 2.088 1.697L17.474 22c.985.003 1.848-.699 2.099-1.704l2.355-9.447c.228-.916-.101-1.884-.827-2.438zm-4.15 9.931c-.205.216-.475.325-.743.325s-.539-.109-.744-.325l-2.021-2.134a4.185 4.185 0 0 1-2.268.685c-2.43 0-4.406-2.087-4.406-4.652 0-2.564 1.977-4.651 4.406-4.651 2.429 0 4.405 2.087 4.405 4.651a4.81 4.81 0 0 1-.647 2.396l2.021 2.134a1.156 1.156 0 0 1-.003 1.571z"/></svg>