<?xml version="1.0" encoding="UTF-8" standalone="no"?>
<!DOCTYPE svg PUBLIC "-//W3C//DTD SVG 1.1//EN" "http://www.w3.org/Graphics/SVG/1.1/DTD/svg11.dtd">
<svg width="100%" height="100%" viewBox="0 0 24 24" version="1.1" xmlns="http://www.w3.org/2000/svg" xmlns:xlink="http://www.w3.org/1999/xlink" xml:space="preserve" xmlns:serif="http://www.serif.com/" style="fill-rule:evenodd;clip-rule:evenodd;stroke-linejoin:round;stroke-miterlimit:2;">
    <path d="M24,9.19C24,8.093 23.097,7.19 22,7.19L21.89,7.19L14,1.69C14,0.593 13.097,-0.31 12,-0.31C10.903,-0.31 10,0.593 10,1.69L2.15,7.16L2,7.16C1.966,7.158 1.932,7.157 1.898,7.157C0.8,7.157 -0.102,8.06 -0.102,9.157C-0.102,9.96 0.381,10.688 1.12,11L4.05,19.66C3.874,19.964 3.781,20.31 3.781,20.662C3.781,21.759 4.684,22.662 5.781,22.662C5.807,22.662 5.834,22.661 5.86,22.66C6.539,22.667 7.177,22.327 7.55,21.76L16.45,21.76C16.806,22.381 17.469,22.766 18.185,22.766C19.282,22.766 20.185,21.863 20.185,20.766C20.185,20.717 20.184,20.668 20.18,20.62C20.176,20.3 20.098,19.984 19.95,19.7L22.88,11C23.569,10.662 24.005,9.957 24,9.19ZM18.14,18.54C17.365,18.534 16.653,18.98 16.32,19.68L7.68,19.68C7.347,18.98 6.635,18.534 5.86,18.54L3.22,10.85C3.99,10.301 4.286,9.287 3.93,8.41L10.76,3.65C11.484,4.222 12.516,4.222 13.24,3.65L20.07,8.41C19.714,9.287 20.01,10.301 20.78,10.85L18.17,18.54L18.14,18.54Z" style="fill-rule:nonzero;"/>
    <path d="M16.61,11.13L7.2,7.2L11.13,16.61L12.35,13.49L15.66,16.8L16.8,15.66L13.49,12.35L16.61,11.13Z" style="fill-rule:nonzero;"/>
</svg>
