<svg xmlns="http://www.w3.org/2000/svg" width="17.379" height="23.876" viewBox="0 0 17.378607 23.875736">
 <path d="m0 0.25086h16.588v16.588h-16.588z" stroke-width=".69117" fill="none"/>
 <g stroke="#ffffff" stroke-width=".46986">
  <ellipse rx="1.5624" ry="1.5481" cy="1.783" cx="15.253"/>
  <ellipse rx="1.5624" ry="1.5481" cy="14.052" cx="13.565"/>
  <ellipse rx="1.5624" ry="1.5481" cy="6.147" cx="9.6706"/>
  <ellipse rx="1.5624" ry="1.5481" cy="13.824" cx="5.6717"/>
  <ellipse rx="1.5624" ry="1.5481" cy="1.8983" cx="3.646"/>
 </g>
 <path d="m15.484 17.22-3.7166-1.8501c-0.13917-0.0573-0.28652-0.09005-0.44206-0.09005h-0.62216v-4.9118c0-0.67946-0.54848-1.2279-1.2279-1.2279-0.67946 0-1.2279 0.54848-1.2279 1.2279v8.7921l-2.8079-0.58941c-0.06549-0.0082-0.12279-0.02456-0.19647-0.02456-0.25378 0-0.48299 0.10642-0.64672 0.27015l-0.64672 0.6549 4.044 4.044c0.22103 0.22103 0.53211 0.3602 0.86775 0.3602h5.5585c0.61397 0 1.0888-0.45025 1.1788-1.0478l0.614-4.314c0.0082-0.0573 0.01637-0.11461 0.01637-0.16373 0-0.50755-0.31108-0.94961-0.74495-1.1297z" stroke-width=".81863"/>
 <g stroke="#ffffff" stroke-width="1.9" fill="none">
   <path d="m5.2844 13.9-1.4491-11.517" stroke-dasharray="3.8, 1.9"/>
   <path d="m13.649 13.926 1.576-12.61" stroke-dasharray="3.79999995, 1.89999998"/>
   <path d="m11.589 4.5953 5.238-3.7373" stroke-dasharray="1.89999998, 1.89999998"/>
   <path d="m10.457 6.9494-5.3132-4.0423" stroke-dasharray="1.9, 1.9"/>
  <path d="ms5.969 14.055 1.9323-0.152" />
  <path d="m11.284 14.18 1.322 0.07627" />
 </g>
</svg>
