<svg xmlns="http://www.w3.org/2000/svg" width="23" height="24" viewBox="0 0 23 24">
 <path d="m1.865 7.1287h28.701v28.701h-28.701z" fill="none" />
  <g id="g4184" transform="translate(29.198 19.504)">
  <path id="path4146" d="m-23.537 1.5359-3.2678-17.715 8.8574 5.1596 8.9433-5.4176-2.4938 18.317z" stroke="#ffffff" stroke-width="2.033" fill="none"/>
    <g>
    <ellipse id="path4143-8-6" rx="2.3489" ry="2.3274" cy="-16.824" cx="-9.0468"/>
    <ellipse id="path4143-8-6-7" rx="2.3489" ry="2.3274" cy="1.6219" cx="-11.584"/>
    <ellipse id="path4143-8-6-5" rx="2.3489" ry="2.3274" cy="-11.621" cx="-18.033"/>
    <ellipse id="path4143-8-6-3" rx="2.3489" ry="2.3274" cy="1.278" cx="-23.451"/>
    <ellipse id="path4143-8-6-7-5" rx="2.3489" ry="2.3274" cy="-16.65" cx="-26.496"/>
    </g>
    <path d="m-10.001-16.02-15.386 16.256c0.08428 0.3364 0.25284 0.64311 0.47758 0.89047 0.23411 0.23746 0.52441 0.41555 0.8428 0.5046l15.396-16.256c-0.17792-0.68269-0.6836-1.217-1.3297-1.3951zm-10.247 3.3022-5.2139 5.4046v2.8l7.4064-7.4165zm-4.2054-2.7203c-0.90678-0.48869-1.0085 0.22945-1.0085 1.3178v1.9788l2.4237-2.5339zm13.975 17.148c0.51504 0 0.98326-0.21767 1.3204-0.58375 0.34648-0.35619-1.2503-0.23416-1.5577-0.6832l-0.4322-0.63136-1.2034 1.8983zm-9.0928 0h2.6501l7.2732-7.6927-0.17797-2.2915z"/>
 </g>
</svg>
