<svg xmlns="http://www.w3.org/2000/svg" viewBox="0 0 24 24"><path d="M15.223 12.155l-6.445-4.92 1.052 7.776 1.534-1.94 2.177 3.695 1.209-.711-2.093-3.553 2.566-.347zM12 24c-.409 0-.814-.021-1.213-.061l.316-3.199c.608.062 1.239.06 1.843-.006l.345 3.196c-.424.047-.854.07-1.291.07zm-3.673-.575a11.899 11.899 0 01-2.295-1.018l1.6-2.788a8.615 8.615 0 001.679.746l-.984 3.06zm7.413-.023l-1-3.054a8.768 8.768 0 001.677-.755l1.613 2.778c-.723.424-1.494.772-2.29 1.031zM4 20.938a12.293 12.293 0 01-1.684-1.861l2.586-1.901c.363.496.78.955 1.236 1.365L4 20.938zm16.056-.048L17.9 18.506a8.907 8.907 0 001.227-1.372l2.601 1.884a12.267 12.267 0 01-1.672 1.872zM1.054 16.904a12.002 12.002 0 01-.784-2.392l3.135-.677c.129.601.322 1.188.574 1.748l-2.925 1.321zm21.921-.063l-2.929-1.309a8.72 8.72 0 00.562-1.746l3.141.656a12.065 12.065 0 01-.774 2.399zM.396 12.005L0 12.003c0-.876.087-1.717.258-2.533l3.139.665a8.912 8.912 0 00-.19 1.834l-2.811.036zm20.398-.055a8.967 8.967 0 00-.194-1.834l3.136-.669c.176.82.264 1.66.265 2.499l-3.207.004zM3.963 8.384l-2.93-1.308c.34-.765.762-1.499 1.255-2.178L4.883 6.79a8.752 8.752 0 00-.92 1.594zm16.068-.014a8.902 8.902 0 00-.923-1.593l2.59-1.896a12.17 12.17 0 011.26 2.174L20.031 8.37zM6.114 5.419L3.966 3.031a12.046 12.046 0 012.026-1.48l1.607 2.783a8.828 8.828 0 00-1.485 1.085zm11.761-.01a8.905 8.905 0 00-1.488-1.083l1.603-2.785c.722.417 1.405.914 2.028 1.477l-2.143 2.391zm-8.6-1.826L8.282.525c.795-.26 1.621-.436 2.454-.523l.336 3.198a8.795 8.795 0 00-1.797.383zm5.433-.005a8.647 8.647 0 00-1.796-.379L13.241 0c.834.086 1.659.26 2.455.519l-.988 3.059z"/></svg>