<svg id="polygon" xmlns="http://www.w3.org/2000/svg" width="24" height="24" viewBox="0 0 24 24"><title>gbd-icon-raeumliche-suche</title><path d="M24,9.51a2,2,0,0,0-2-2l-.11,0L14,2a2,2,0,0,0-4,0L2.15,7.49,2,7.47a2,2,0,0,0-.92,3.86L4.05,20a2.06,2.06,0,0,0-.23.93,2,2,0,0,0,3.73,1.14h8.9A2,2,0,0,0,20,20l2.93-8.65A2,2,0,0,0,24,9.51Zm-5.86,9.35A2,2,0,0,0,16.32,20H7.68a2,2,0,0,0-1.82-1.15h0l-2.61-7.7a2,2,0,0,0,.86-1.66,2,2,0,0,0-.15-.77L10.76,4a2,2,0,0,0,2.48,0l6.83,4.77a2,2,0,0,0-.15.77,2,2,0,0,0,.86,1.66l-2.61,7.7Z"/><path d="M14.8,13.83a4.46,4.46,0,0,0,.69-2.66A4.5,4.5,0,1,0,11,15.94a4.43,4.43,0,0,0,2.39-.7l2.41,2.41a1,1,0,0,0,.71.29,1,1,0,0,0,.71-.29,1,1,0,0,0,0-1.42Zm-3.8.11a2.5,2.5,0,1,1,2.5-2.5A2.5,2.5,0,0,1,11,13.94Z"/></svg>