<svg xmlns="http://www.w3.org/2000/svg" viewBox="0 0 24 24"><path d="M18.556 4.303L4.1 18.76c.078.3.237.572.448.792.22.211.492.37.792.448L19.806 5.543a1.765 1.765 0 00-1.25-1.24zm-6.713-.07l-7.814 7.814v2.489L14.332 4.233h-2.489zm-6.055 0c-.967 0-1.76.792-1.76 1.759v1.76l3.52-3.52h-1.76zm12.32 15.838c.484 0 .924-.194 1.24-.52.326-.316.52-.756.52-1.24v-1.76l-3.52 3.52h1.76zm-8.544 0h2.49l7.814-7.814V9.768L9.564 20.071z"/><path d="M19 5v14H5V5h14m0-2H5c-1.1 0-2 .9-2 2v14c0 1.1.9 2 2 2h14c1.1 0 2-.9 2-2V5c0-1.1-.9-2-2-2z"/></svg>