<svg xmlns="http://www.w3.org/2000/svg" width="24" height="24">
  <path d="M5.54 14.62h3v2.45h-3zM10.04 14.62h3v2.45h-3zM4 14.54H1.5v1.31a1.22 1.22 0 0 0 1.23 1.22H4v-2.45zM1.5 5.54h2.45v3H1.5zM1.5 10.04h2.45v3H1.5zM1.5 2.73V4H4V1.5H2.73A1.23 1.23 0 0 0 1.5 2.73zM5.54 1.5h3v2.45h-3zM10.04 1.5h3v2.45h-3zM14.62 4h2.46V2.73a1.23 1.23 0 0 0-1.23-1.23h-1.31V4h.08zM14.62 10.04h2.45v3h-2.45zM14.62 5.54h2.45v3h-2.45zM22.12 20.29l-5-5.06v-.69h-2.5v.08h-.08v2.45h.69l5.06 5.05a1.27 1.27 0 0 0 1.82 0 1.27 1.27 0 0 0 .01-1.83z"/>
</svg>
