<?xml version="1.0" encoding="utf-8"?>
<svg version="1.1" id="Layer_1" xmlns="http://www.w3.org/2000/svg" xmlns:xlink="http://www.w3.org/1999/xlink" x="0px" y="0px"
	 width="24px" height="24px" viewBox="0 0 24 24" enable-background="new 0 0 24 24" xml:space="preserve">
<g>
	<path d="M15,11h-2V9c0-0.552-0.448-1-1-1s-1,0.448-1,1v2H9c-0.552,0-1,0.448-1,1s0.448,1,1,1h2v2c0,0.552,0.448,1,1,1s1-0.448,1-1
		v-2h2c0.552,0,1-0.448,1-1S15.552,11,15,11z"/>
	<path d="M4,8c0.552,0,1-0.448,1-1V5h2c0.552,0,1-0.448,1-1S7.552,3,7,3H4C3.448,3,3,3.448,3,4v3C3,7.552,3.448,8,4,8z"/>
	<path d="M20,16c-0.552,0-1,0.448-1,1v2h-2c-0.552,0-1,0.448-1,1s0.448,1,1,1h3c0.552,0,1-0.448,1-1v-3C21,16.448,20.552,16,20,16z"
		/>
	<path d="M7,19H5v-2c0-0.552-0.448-1-1-1s-1,0.448-1,1v3c0,0.552,0.448,1,1,1h3c0.552,0,1-0.448,1-1S7.552,19,7,19z"/>
	<path d="M20,3h-3c-0.552,0-1,0.448-1,1s0.448,1,1,1h2v2c0,0.552,0.448,1,1,1s1-0.448,1-1V4C21,3.448,20.552,3,20,3z"/>
</g>
</svg>
