<svg xmlns="http://www.w3.org/2000/svg" viewBox="0 0 24 24"><path d="M4 8a1 1 0 001-1V5h2a1 1 0 000-2H4a1 1 0 00-1 1v3a1 1 0 001 1zm16 8a1 1 0 00-1 1v2h-2a1 1 0 000 2h3a1 1 0 001-1v-3a1 1 0 00-1-1zM7 19H5v-2a1 1 0 00-2 0v3a1 1 0 001 1h3a1 1 0 000-2zM20 3h-3a1 1 0 000 2h2v2a1 1 0 002 0V4a1 1 0 00-1-1zm-4 8.5a1 1 0 00-1 1c0 1.654-1.346 3-3 3s-3-1.346-3-3 1.346-3 3-3c.006 0 .012-.004.018-.004v1.619c0 .229.262.36.445.223l3.388-2.541a.371.371 0 000-.594l-3.388-2.541a.278.278 0 00-.445.223v1.619c-.006 0-.012-.004-.018-.004-2.757 0-5 2.243-5 5s2.243 5 5 5 5-2.243 5-5a1 1 0 00-1-1z"/></svg>