<?xml version="1.0" encoding="UTF-8" standalone="no"?>
<svg
   xmlns:osb="http://www.openswatchbook.org/uri/2009/osb"
   xmlns:dc="http://purl.org/dc/elements/1.1/"
   xmlns:cc="http://creativecommons.org/ns#"
   xmlns:rdf="http://www.w3.org/1999/02/22-rdf-syntax-ns#"
   xmlns:svg="http://www.w3.org/2000/svg"
   xmlns="http://www.w3.org/2000/svg"
   xmlns:xlink="http://www.w3.org/1999/xlink"
   xmlns:sodipodi="http://sodipodi.sourceforge.net/DTD/sodipodi-0.dtd"
   xmlns:inkscape="http://www.inkscape.org/namespaces/inkscape"
   width="24"
   height="24"
   viewBox="0 0 24 24"
   version="1.1"
   id="svg6"
   sodipodi:docname="baseline-select1-24px.svg"
   inkscape:version="0.92.3 (2405546, 2018-03-11)">
  <metadata
     id="metadata12">
    <rdf:RDF>
      <cc:Work
         rdf:about="">
        <dc:format>image/svg+xml</dc:format>
        <dc:type
           rdf:resource="http://purl.org/dc/dcmitype/StillImage" />
        <dc:title></dc:title>
      </cc:Work>
    </rdf:RDF>
  </metadata>
  <defs
     id="defs10">
    <inkscape:perspective
       sodipodi:type="inkscape:persp3d"
       inkscape:vp_x="0 : 12 : 1"
       inkscape:vp_y="0 : 1000 : 0"
       inkscape:vp_z="24 : 12 : 1"
       inkscape:persp3d-origin="12 : 8 : 1"
       id="perspective825" />
    <linearGradient
       id="linearGradient2288"
       osb:paint="solid">
      <stop
         style="stop-color:#ffffff;stop-opacity:1;"
         offset="0"
         id="stop2286" />
    </linearGradient>
    <linearGradient
       osb:paint="solid"
       id="linearGradient8184">
      <stop
         id="stop8186"
         offset="0"
         style="stop-color:#000000;stop-opacity:1;" />
    </linearGradient>
    <path
       d="M0 0h24v24H0V0z"
       id="a" />
    <clipPath
       id="b-5">
      <use
         id="use5-3"
         overflow="visible"
         xlink:href="#a" />
    </clipPath>
  </defs>
  <sodipodi:namedview
     pagecolor="#ffffff"
     bordercolor="#666666"
     borderopacity="1"
     objecttolerance="10"
     gridtolerance="10"
     guidetolerance="10"
     inkscape:pageopacity="0"
     inkscape:pageshadow="2"
     inkscape:window-width="1853"
     inkscape:window-height="1025"
     id="namedview8"
     showgrid="false"
     inkscape:zoom="19.666667"
     inkscape:cx="22.067797"
     inkscape:cy="15.9961"
     inkscape:window-x="67"
     inkscape:window-y="27"
     inkscape:window-maximized="1"
     inkscape:current-layer="svg6" />
  <path
     d="M0 0h24v24H0z"
     fill="none"
     id="path2" />
  <path
     inkscape:connector-curvature="0"
     d="M 15.891277,8.6666661 H 10.084561 V 14.143664 H 8.1489888 V 8.6666661 H 2.3422727 V 6.8410016 H 8.1489888 V 1.3640033 h 1.9355722 v 5.4769983 h 5.806716 z"
     id="path2-3"
     style="fill:#000000;fill-opacity:1;stroke:none;stroke-width:0;stroke-miterlimit:4;stroke-dasharray:none;stroke-opacity:1" />
  <g
     style="fill:#000000"
     id="g885"
     transform="translate(5.3301076,10.27418)">
    <g
       inkscape:label="hintergrund"
       id="layer1-2" />
    <path
       id="path6-9"
       d="M 0,0 H 24 V 24 H 0 Z"
       inkscape:connector-curvature="0"
       style="fill:none" />
  </g>
  <g
     id="g917"
     transform="translate(4.0392609,-0.21495063)">
    <path
       id="path6-2"
       d="M 1.6627407,1.0698071 H 16.602186 V 16.009252 H 1.6627407 Z"
       style="fill:none;stroke-width:0.62247688"
       inkscape:connector-curvature="0" />
    <path
       transform="matrix(0.8186291,0,0,0.8186291,3.014434,4.6134734)"
       sodipodi:nodetypes="ccscsssccsccsssccsc"
       inkscape:connector-curvature="0"
       id="path8"
       clip-path="url(#b)"
       d="M 18.84,15.87 14.3,13.61 C 14.13,13.54 13.95,13.5 13.76,13.5 H 13 v -6 C 13,6.67 12.33,6 11.5,6 10.67,6 10,6.67 10,7.5 V 18.24 L 6.57,17.52 C 6.49,17.51 6.42,17.49 6.33,17.49 c -0.31,0 -0.59,0.13 -0.79,0.33 l -0.79,0.8 4.94,4.94 C 9.96,23.83 10.34,24 10.75,24 h 6.79 c 0.75,0 1.33,-0.55 1.44,-1.28 l 0.75,-5.27 c 0.01,-0.07 0.02,-0.14 0.02,-0.2 0,-0.62 -0.38,-1.16 -0.91,-1.38 z" />
  </g>
</svg>
