<?xml version="1.0" encoding="UTF-8" standalone="no"?>
<svg
   xmlns:dc="http://purl.org/dc/elements/1.1/"
   xmlns:cc="http://creativecommons.org/ns#"
   xmlns:rdf="http://www.w3.org/1999/02/22-rdf-syntax-ns#"
   xmlns:svg="http://www.w3.org/2000/svg"
   xmlns="http://www.w3.org/2000/svg"
   xmlns:sodipodi="http://sodipodi.sourceforge.net/DTD/sodipodi-0.dtd"
   xmlns:inkscape="http://www.inkscape.org/namespaces/inkscape"
   width="24"
   height="24"
   viewBox="0 0 24 24"
   version="1.1"
   id="svg6"
   sodipodi:docname="baseline-layerinfo-24px.svg"
   inkscape:version="0.92.3 (2405546, 2018-03-11)">
  <metadata
     id="metadata12">
    <rdf:RDF>
      <cc:Work
         rdf:about="">
        <dc:format>image/svg+xml</dc:format>
        <dc:type
           rdf:resource="http://purl.org/dc/dcmitype/StillImage" />
        <dc:title></dc:title>
      </cc:Work>
    </rdf:RDF>
  </metadata>
  <defs
     id="defs10" />
  <sodipodi:namedview
     pagecolor="#ffffff"
     bordercolor="#666666"
     borderopacity="1"
     objecttolerance="10"
     gridtolerance="10"
     guidetolerance="10"
     inkscape:pageopacity="0"
     inkscape:pageshadow="2"
     inkscape:window-width="1853"
     inkscape:window-height="1025"
     id="namedview8"
     showgrid="false"
     inkscape:zoom="3.4766083"
     inkscape:cx="12"
     inkscape:cy="12"
     inkscape:window-x="67"
     inkscape:window-y="27"
     inkscape:window-maximized="1"
     inkscape:current-layer="svg6" />
  <path
     d="M0 0h24v24H0z"
     fill="none"
     id="path2" />
  <path
     d="M 8.9524451,15.741697 2.0136813,10.346973 0.48847129,11.533247 8.96186,18.123662 17.435249,11.533247 15.900623,10.337558 Z M 8.9618605,13.350318 15.891209,7.9555943 17.43525,6.7599049 8.9618605,0.16949156 0.48847184,6.7599049 2.0230966,7.9555943 Z"
     id="path4"
     inkscape:connector-curvature="0"
     style="stroke-width:0.94148767" />
  <path
     inkscape:connector-curvature="0"
     d="m 16.57494,11.695158 c -3.10617,0 -5.627119,2.520949 -5.627119,5.627118 0,3.10617 2.520949,5.627119 5.627119,5.627119 3.106169,0 5.627118,-2.520949 5.627118,-5.627119 0,-3.106169 -2.520949,-5.627118 -5.627118,-5.627118 z m 0.562711,8.440678 h -1.125423 v -3.376271 h 1.125423 z m 0,-4.501695 h -1.125423 v -1.125424 h 1.125423 z"
     id="path4-3"
     style="stroke-width:0.56271183" />
</svg>
