<svg data-name="Layer 1" xmlns="http://www.w3.org/2000/svg" width="24" height="24" viewBox="0 0 24 24">
  <path d="M0 0h24v24H0zm0 0h24v24H0zm0 0h24v24H0zm0 0h24v24H0z" fill="none"/>
  <path d="M12 7a5 5 0 0 1 5 5 4.85 4.85 0 0 1-.36 1.83l2.92 2.92A11.82 11.82 0 0 0 23 12a11.83 11.83 0 0 0-11-7.5 11.65 11.65 0 0 0-4 .7l2.16 2.16A4.85 4.85 0 0 1 12 7zM2 4.27l2.28 2.28.46.45A11.8 11.8 0 0 0 1 12a11.82 11.82 0 0 0 15.38 6.66l.42.42L19.73 22 21 20.73 3.27 3zM7.53 9.8l1.55 1.55A2.82 2.82 0 0 0 9 12a3 3 0 0 0 3 3 2.82 2.82 0 0 0 .65-.08l1.55 1.55A5 5 0 0 1 7.53 9.8zm4.31-.8L15 12.17V12a3 3 0 0 0-3-3z" fill="#37474f" opacity=".4"/>
</svg>
