<?xml version="1.0" encoding="UTF-8"?>
<svg xmlns="http://www.w3.org/2000/svg" xmlns:xlink="http://www.w3.org/1999/xlink" width="24px" height="24px" viewBox="0 0 24 24" version="1.1">
<g id="surface1">
<path style=" stroke:none;fill-rule:nonzero;fill:rgb(0%,0%,0%);fill-opacity:1;" d="M 18.851562 10.390625 L 19.910156 9.328125 C 20.691406 8.550781 20.691406 7.28125 19.910156 6.5 L 18.5 5.089844 C 17.71875 4.308594 16.449219 4.308594 15.671875 5.089844 L 14.609375 6.148438 Z M 13.191406 7.558594 L 4 16.761719 L 4 21 L 8.238281 21 L 17.429688 11.808594 Z M 19 17.5 C 19 19.691406 16.460938 21 14 21 C 13.449219 21 13 20.550781 13 20 C 13 19.449219 13.449219 19 14 19 C 15.539062 19 17 18.269531 17 17.5 C 17 17.03125 16.519531 16.628906 15.769531 16.300781 L 17.25 14.820312 C 18.320312 15.449219 19 16.289062 19 17.5 Z M 4.578125 13.351562 C 3.609375 12.789062 3 12.058594 3 11 C 3 9.199219 4.890625 8.371094 6.558594 7.640625 C 7.589844 7.179688 9 6.558594 9 6 C 9 5.589844 8.21875 5 7 5 C 5.738281 5 5.199219 5.609375 5.171875 5.640625 C 4.820312 6.050781 4.191406 6.101562 3.769531 5.761719 C 2.179688 6.140625 0.582031 5.160156 0.199219 3.570312 C -0.179688 1.980469 0.800781 0.382812 2.390625 0 C 3.730469 4.238281 4.761719 3 7 3 C 9.238281 3 11 4.320312 11 6 C 11 7.871094 9.070312 8.71875 7.359375 9.46875 C 6.421875 9.878906 5 10.5 5 11 C 5 11.308594 5.429688 11.601562 6.070312 11.859375 Z M 4.578125 13.351562 "/>
</g>
</svg>
