<svg xmlns="http://www.w3.org/2000/svg" width="24" height="24">
  <path d="M19.11 5.42a9.71 9.71 0 0 0-5-3.31 8.49 8.49 0 0 0-12 12 9.71 9.71 0 0 0 3.31 5A10 10 0 1 0 19.11 5.42zM1.88 10a6.3 6.3 0 0 1-.18-1.5 6.81 6.81 0 0 1 6.8-6.8 6.3 6.3 0 0 1 1.5.18A9.72 9.72 0 0 0 1.88 10zM4 13.6v.08-.11A7.77 7.77 0 0 1 13.57 4h.11-.08A10 10 0 0 0 4 13.6zM14 22a7.89 7.89 0 0 1-3.46-.8A8 8 0 0 1 7 17.86a7.86 7.86 0 0 1-.5-1.11 7.69 7.69 0 0 1-.5-1.92V14a8 8 0 0 1 8-8h.83a7.69 7.69 0 0 1 1.92.46 7.86 7.86 0 0 1 1.11.5 8 8 0 0 1 3.34 3.54A7.89 7.89 0 0 1 22 14a8 8 0 0 1-8 8z"/>
  <path d="M15 9h-2v4H9v2h4v4h2v-4h4v-2h-4V9z"/>
</svg>
