<svg xmlns="http://www.w3.org/2000/svg" width="24" height="24">
  <path d="M23.66 8.41a1.7 1.7 0 0 0-1.37-.7h-1l.1-1.61A1.74 1.74 0 0 0 21 4.82a1.71 1.71 0 0 0-1.25-.53h-7.9L9.78 2.22a1.67 1.67 0 0 0-1.21-.51H1.71A1.72 1.72 0 0 0 0 3.43v17.14a1.11 1.11 0 0 0 0 .19.49.49 0 0 0 0 .12 1.65 1.65 0 0 0 .29.68l.07.09.18.19.1.08.2.14.12.06a1.84 1.84 0 0 0 .25.09h.1a1.57 1.57 0 0 0 .37.05h17.18a2 2 0 0 0 .49-.08h.08a1.44 1.44 0 0 0 .41-.21l.07-.06a1.82 1.82 0 0 0 .34-.34 1.72 1.72 0 0 0 .21-.43l3.46-11.21a1.69 1.69 0 0 0-.26-1.52zm-21.95-5h6.86L11.14 6h8.57l-.1 1.71H5.14A1.74 1.74 0 0 0 3.5 8.92l-1.79 5.82zM21 13.67l-2.12 6.9H1.71L5.14 9.43h17.15z"/>
</svg>
