<svg data-name="Layer 1" xmlns="http://www.w3.org/2000/svg" width="500" height="500">
  <g opacity=".77">
    <path d="M219.92 313.63a17.64 17.64 0 0 1-1.8-.09c-5.73-.6-7.54-4.11-8.06-5.59s-1.25-5.38 2.91-9.41a261.69 261.69 0 0 0 27.33-30.87l.85-1.13c7.49-10 16-21.28 19.79-32.8 1.73-5.2 1.66-10.28-.19-13.92a11.17 11.17 0 0 0-6.88-5.57 10.13 10.13 0 0 0-2-.39 14.51 14.51 0 0 0-3.19 8.39c-.31 8.34-12.75 12.52-19.63 12.52-3.53 0-6.27-1-8.13-2.91a7.94 7.94 0 0 1-2.2-5.88c.66-18.18 18.84-31.18 36-33.25a42.24 42.24 0 0 1 4.93-.29c13.62 0 28.84 6.71 32.14 21.7 3.91 17.76-8.54 35.39-17.63 48.26-.69 1-1.36 1.92-2 2.85a291.51 291.51 0 0 1-36.28 42.21c-3.74 3.63-10.31 6.17-15.96 6.17z" fill="#dd2f00"/>
    <path d="M259.67 197.94c11.44 0 24.11 5.29 26.77 17.39 3.66 16.59-9.88 34-18.77 46.77a284.25 284.25 0 0 1-35.59 41.4c-2.82 2.72-8 4.63-12.16 4.63q-.63 0-1.23-.06c-3.86-.4-4.67-2.9-1.9-5.57A266.07 266.07 0 0 0 244.7 271c8-10.7 17.22-22.67 21.46-35.5 3.56-10.73 1.21-22.63-10.59-26.45a25.71 25.71 0 0 0-5.86-.87l.27-.23c.38-.06.62-.32.51-.32a1.43 1.43 0 0 0-.51.32h-.14a1 1 0 0 1-.42-.1c.26.13-.06.16-.47.16h-1s.26 0 1.54.17h.27c-.18.16-.39.35-.64.6a20.19 20.19 0 0 0-5.89 13.3c-.14 3.75-8.56 7.22-14.13 7.22-2.82 0-4.92-.89-4.84-3.09.58-15.76 17.1-26.29 31.19-28a35.24 35.24 0 0 1 4.27-.25m0-11a46.71 46.71 0 0 0-5.58.33 53.12 53.12 0 0 0-26.26 11.08c-9 7.3-14.23 17-14.61 27.43a13.39 13.39 0 0 0 3.74 9.9c2 2.1 5.76 4.59 12.09 4.59 8.53 0 24.66-5.22 25.12-17.82a7.83 7.83 0 0 1 .29-1.83 4.77 4.77 0 0 1 1.38 1.69c1.16 2.27 1.11 6-.12 9.71-3.53 10.66-11.73 21.58-19 31.21l-.85 1.14a255.74 255.74 0 0 1-26.75 30.22c-4.47 4.31-6.07 10-4.29 15.15s6.53 8.63 12.69 9.27a23.07 23.07 0 0 0 2.37.12c7.07 0 15-3.1 19.8-7.72a295.47 295.47 0 0 0 37-43l2-2.83c9.68-13.71 22.95-32.49 18.51-52.61-4-18-21.69-26-37.51-26z" fill="#fff"/>
    <path d="M228.29 315.06c-6.24 0-12.41-4.42-16.1-8.55-.91-1-5.31-6.3-3.07-11.3.57-1.28 2.43-4.27 7.27-4.27h61.32c6.24 0 12.41 4.42 16.1 8.55.91 1 5.31 6.3 3.07 11.3-.57 1.28-2.43 4.27-7.27 4.27z" fill="#dd2f00"/>
    <path d="M277.71 296.44c4.36 0 9.27 3.66 12 6.71 1.58 1.78 4.29 6.41-.11 6.41h-61.31c-4.36 0-9.27-3.66-12-6.71-1.58-1.78-4.29-6.41.11-6.41h61.32m0-11h-61.33c-5.59 0-10.19 2.82-12.29 7.53-1.15 2.56-2 6.71.51 12a22.4 22.4 0 0 0 3.48 5.24c8.61 9.63 17.64 10.38 20.2 10.38h61.32c5.59 0 10.19-2.82 12.29-7.53 1.15-2.56 2-6.71-.51-12a22.4 22.4 0 0 0-3.48-5.24c-8.61-9.63-17.64-10.38-20.2-10.38z" fill="#fff"/>
  </g>
  <path d="M243.18 222.05a20.19 20.19 0 0 1 5.89-13.3c2.28-2.27 1.44-.39.35-.92.8.39-3.84-.11 0 .29a28.36 28.36 0 0 1 6.13.9c11.8 3.82 14.15 15.72 10.59 26.45-4.24 12.83-13.43 24.8-21.46 35.5a266.07 266.07 0 0 1-27.91 31.53c-2.77 2.67-2 5.17 1.9 5.57a19 19 0 0 0 13.39-4.57 284.25 284.25 0 0 0 35.59-41.4c8.89-12.73 22.43-30.18 18.77-46.77-3-13.64-18.71-18.63-31-17.14-14.09 1.7-30.61 12.23-31.19 28-.24 6.55 18.76 1.51 19-4.13z" fill="#dd2f00"/>
  <path d="M228.29 309.56h61.32c4.4 0 1.69-4.63.11-6.41-2.74-3-7.65-6.71-12-6.71h-61.33c-4.4 0-1.69 4.63-.11 6.41 2.74 3 7.65 6.71 12 6.71z" fill="#dd2f00"/>
  <g opacity=".77">
    <path d="M286.93 360.16C256 372.94 220 364.7 192.66 347c-30.42-19.64-48.37-53.72-45.9-90.13 2.52-37.18 26.59-69.29 58.07-87.78 16.87-9.9 35.58-16 55.27-15.71 18.51.29 36.38 6.28 51.87 16.3 33 21.37 57.42 58.38 52 98.78-5.05 37.88-30.42 72.77-63.79 90.81-32.13 17.37-73.67 22.45-106.23 3.37-31.93-18.71-51.11-55.53-57.49-91-6.86-38.15 3.82-77.07 25.81-108.57 10.41-14.92 24-28.37 41.27-35 16.46-6.33 35.41-4.56 52.11-.07 7.46 2 15 5.41 20.82 10.61l-1.91-4.61.17 2.12c.21 8.24 13 8.27 12.83 0-.13-4.73-1.79-7.11-5.35-10.23a45.17 45.17 0 0 0-12.78-7.75 73.82 73.82 0 0 0-29.78-5.35c-18.84.31-38.85 4.55-55.35 13.82-36.84 20.7-58 64.77-62.65 105.51-4.84 42.28 9.52 87 38 118.58 13.87 15.4 31.42 27.23 51.54 32.62 19.77 5.3 40.72 4.83 60.53 0 41.55-10.11 77.68-39.28 96-78 9.4-19.9 13.59-41.8 10.55-63.7-3.25-23.36-15-43.37-30.68-60.65-29.38-32.37-72.59-50.25-116.09-40.43-42.5 9.59-79.69 42.72-94.67 83.5-14.55 39.61-4.06 87.18 26.78 116.22 26.79 25.23 65.9 37.83 102.36 32.31a86.77 86.77 0 0 0 23.25-7c3-1.38.83-6.71-2.29-5.43z" fill="#dd2f00"/>
    <path d="M283.61 348.11c-30.83 12.35-68.22 3.06-92.92-17.92-11.76-10-21.19-22.79-26.21-36.58-5.32-14.59-6.95-30.05-4.25-44.51 5.81-31 27.15-56.3 54.66-71.29 16-8.71 33.88-13.27 52.12-11.52 16.68 1.6 33.21 9.52 45.87 19.23 25.28 19.38 42 48.36 39 79.91-2.85 29.81-22.68 59.87-47.69 76.85-27.26 18.49-64.25 26.91-95.2 14-29.28-12.2-47.92-42-56.51-71.38-9.92-33.9-5.63-69.42 11.29-100.4 7.86-14.39 18-28.72 31.57-37.94 14.9-10.1 31.79-11.92 49.39-8.3 8 1.65 16.59 3.75 23 9.21 4.26 3.65 10.1 4.91 15.15 2 4.36-2.55 7.83-9.09 5.75-14.12l-1.92-4.61c-2.38-5.76-7.06-10-13.71-9-5.71.86-11.35 6-10.84 12.28.49 6 1.46 11.44 6.12 15.73a19.64 19.64 0 0 0 18.5 4.34c13.63-4.13 16.85-20.46 9.26-31.5s-22.38-17.47-35.17-20.19c-14.24-3-28.65-2.3-42.94-.07a116.41 116.41 0 0 0-64.25 32.09c-16.57 16.39-28.29 37.19-35.9 59.09a168 168 0 0 0 13.74 139.69c12.43 21.13 29.83 40.1 51.43 52 24.87 13.72 53.5 16.77 81.27 12.37 45.89-7.26 87.79-37.46 110.27-78 13.79-24.82 20-53.07 15.9-81.28-3.66-25.14-17-47.58-33.89-66.17-33.14-36.53-84-55.52-132.54-42.68-44.82 11.88-82.16 46.72-98.6 89.81-16.54 43.36-4.92 96.43 28.41 128.74A137.29 137.29 0 0 0 217 382.55c24.83 5.88 53.55 5.93 76.9-5.45 16.7-8.14 7.9-33-10.32-29-6.6 1.45-10.46 9.12-8.73 15.38 1.87 6.8 8.76 10.18 15.37 8.73l.91-.2h-6.65l-5.33-13.26 4.48-4.49c-3.7 2.57-9 3.65-13.33 4.72a74.07 74.07 0 0 1-14.57 2.15 108.08 108.08 0 0 1-28.2-1.85c-18.87-3.85-37-12.05-51.6-24.69-27-23.42-38.53-60.84-30.83-94.57 8.06-35.27 34.83-64.83 67.68-80.12 34.17-15.91 73.4-10.8 104.71 11 32.53 22.62 55.4 61.44 47.76 101.87-7.17 38-33.4 69.43-66.61 87.12-35.29 18.79-81.56 21.45-115.12-3.9-30.37-22.93-48.2-62.78-50.1-99.87-1.82-35.61 10.08-74.47 34.79-100.85a91.28 91.28 0 0 1 47.88-27.2c17.8-4 42.29-5.91 57.28 6.72-.39-.33 3 3 1.9 1.73s.5-1.46-.08.14c.75-2.08.9-4.71 3.35-6 2.22-1.19 3.31-1.33 5.48 0a9.06 9.06 0 0 1 3.09 4.2c.88 1.94.09.92-.05-.76l-24.55 3.32 1.91 4.62 20.89-12.16c-17-14.56-42.69-20-64.66-18-22.16 1.93-41.45 12.83-56.45 29-28.58 30.89-45.08 75.28-41.94 117.38 2.85 38.3 19.62 78.74 49.46 103.83a106.06 106.06 0 0 0 57.1 24.6c20.18 2.31 41.37-1.17 60.18-8.58a140.86 140.86 0 0 0 81.25-82.89 108.31 108.31 0 0 0 4.79-58.44c-3.87-19.09-13.67-36.54-26.17-51.3-27.9-32.95-71.35-51.42-114.23-41.8-38.12 8.55-73.71 37-89.93 72.64C128.44 252.1 131 294.66 154.16 327c23.49 32.84 65.35 54.15 106 51.71a96.27 96.27 0 0 0 30.08-6.48c6.27-2.51 10.67-8.35 8.73-15.38-1.62-5.96-9.06-11.26-15.36-8.74z" fill="#fff"/>
  </g>
  <path d="M286.93 360.16C256 372.94 220 364.7 192.66 347c-30.42-19.64-48.37-53.72-45.9-90.13 2.52-37.18 26.59-69.29 58.07-87.78 16.87-9.9 35.58-16 55.27-15.71 18.51.29 36.38 6.28 51.87 16.3 33 21.37 57.42 58.38 52 98.78-5.05 37.88-30.42 72.77-63.79 90.81-32.13 17.37-73.67 22.45-106.23 3.37-31.93-18.71-51.11-55.53-57.49-91-6.86-38.15 3.82-77.07 25.81-108.57 10.41-14.92 24-28.37 41.27-35 16.46-6.33 35.41-4.56 52.11-.07 7.46 2 15 5.41 20.82 10.61l-1.91-4.61.17 2.12c.21 8.24 13 8.27 12.83 0-.13-4.73-1.79-7.11-5.35-10.23a45.17 45.17 0 0 0-12.78-7.75 73.82 73.82 0 0 0-29.78-5.35c-18.84.31-38.85 4.55-55.35 13.82-36.84 20.7-58 64.77-62.65 105.51-4.84 42.28 9.52 87 38 118.58 13.87 15.4 31.42 27.23 51.54 32.62 19.77 5.3 40.72 4.83 60.53 0 41.55-10.11 77.68-39.28 96-78 9.4-19.9 13.59-41.8 10.55-63.7-3.25-23.36-15-43.37-30.68-60.65-29.38-32.37-72.59-50.25-116.09-40.43-42.5 9.59-79.69 42.72-94.67 83.5-14.55 39.61-4.06 87.18 26.78 116.22 26.79 25.23 65.9 37.83 102.36 32.31a86.77 86.77 0 0 0 23.25-7c3-1.38.83-6.71-2.29-5.43z" fill="#dd2f00"/>
</svg>
