<svg data-name="Layer 1" xmlns="http://www.w3.org/2000/svg" width="500" height="500">
  <g opacity=".77">
    <path d="M196.11 350.63c44.84 13 96 10.4 140.46-3 38.77-11.63 83.14-37.63 84.67-83.25.73-21.86-11.06-41.75-26.15-56.7C376.1 188.85 351.75 176 327 166.6c-54.07-20.52-116.41-22.2-171.09-3-42.1 14.81-102.29 49.47-89.27 102.87 6 24.48 25.22 43.61 44.89 58s42 24.25 65.05 31.57c48.76 15.51 104.31 20.3 154.12 6.88 45.2-12.17 92.16-45.22 102.68-93.42 9.81-44.95-20.22-86.57-55.75-110.93-21.77-14.92-48-23-74.08-25.93-24.37-2.78-49.64-5.61-74-1.49-10.65 1.8-21 4.73-30.12 10.74-2.67 1.77-3.43 4.31-3 7.34-.2-.51-.26-.47-.2.12-.2 8.26 12.63 8.26 12.83 0 .06-.59 0-.64-.11-.12l-3 3.88c8.51-4.6 18.45-7.09 27.9-8.84a257.43 257.43 0 0 1 34.79-4.15A163.21 163.21 0 0 1 339 152.28c20.58 8.51 40 21.5 55.07 37.9 12.75 13.86 24 31.36 27 50.25 6.83 42.92-28.2 79.74-63.3 98.12-42.71 22.35-94.49 23.33-141 14.86-44.88-8.17-92.16-26.05-121.56-62.69-12.11-15.1-19.94-34.43-13.3-53.56 7.56-21.75 30.29-36.28 49.54-46.74 45.31-24.63 99.54-30.08 149.67-19.68 26.26 5.45 52.24 14.67 75.3 28.48 17.58 10.53 34.81 24.51 43.58 43.49 7.64 16.43 5.5 34.08-3.88 49.33s-24.36 25.65-40.06 33.67c-19.11 9.76-40 15.92-61 20-21.85 4.21-44.38 6.08-66.6 4.29a186.15 186.15 0 0 1-30.77-5.06c-3.71-1-5.25 4.66-1.58 5.72z" fill="#dd2f00"/>
    <path d="M192.79 362.69c28.47 8.12 58.6 10.5 88.06 8 26.81-2.24 53.78-7.69 78.67-18.08 21.05-8.78 41.48-21 55.76-39.13 15.83-20.13 22.83-46.47 15.54-71.52-7.89-27.08-29-48-51.9-63.32-23.65-15.78-51.28-26.82-78.87-33.45-55.13-13.26-113.6-8.93-165.7 13.55-37.42 16.15-79.52 45.27-82 89.95-1.45 26.37 13 50.73 31.22 68.64 20.66 20.29 46 34.62 72.91 45 54.48 20.95 117 27.95 174 13.62C378 364 424.34 332.73 441.73 285.43 461.26 232.3 429 180 386.36 149.59c-23.36-16.65-51.26-25.33-79.46-28.95-30.27-3.89-62.48-7.33-92.32 1.09-13.06 3.68-32.18 10.94-30.67 27.58L207.2 143l-.19-.35c-6-11-23.24-5.85-23.3 6.31a18.73 18.73 0 0 0 18.76 19.15c10.92 0 18.66-8.59 19.09-19.16.25-6.14-4.94-11.57-10.84-12.27-6.41-.77-11.61 2.93-13.71 8.95 1.14-3.27-1.65 1-1.85 1.25-3.32 4.32-1.61 11.59 2 15.15a12.88 12.88 0 0 0 15.1 1.97c10-5.21 21.54-7.15 32.58-8.89a201.13 201.13 0 0 1 34.92-2.55 149.09 149.09 0 0 1 65.11 16.17c18.44 9.45 35.31 22.53 47.83 39.16 6.14 8.11 11.42 17.23 14.3 27.11a57.55 57.55 0 0 1 1.64 25.92c-3.42 18.11-13.78 33.1-27.28 45.8a136.2 136.2 0 0 1-48.7 29.17c-40.39 13.92-84.91 12.06-126.11 2.76-38-8.6-75.62-24.38-101-54.91-6.14-7.38-11-16.06-12.94-25.51-1.82-8.73.36-17.22 4.69-24.39 8.89-14.7 25.54-24.57 41.23-33 37.6-20.19 82.06-26.32 124.13-20.66a239 239 0 0 1 65.17 18.28c19.17 8.59 38.26 19.62 52.07 35.74 6 7 11.13 15.93 12.16 25.22 1.09 9.88-2.2 19.48-7.54 27.71-10.76 16.57-30.58 27.06-48.5 34.07a251.92 251.92 0 0 1-69.33 16 228.08 228.08 0 0 1-36.31.41 160.61 160.61 0 0 1-16.79-2c-6.34-1.13-13.75-4.34-20.16-2.82-13 3.1-16.63 22.8-3.61 28.68 6.15 2.77 13.45 1.77 17.1-4.49 3.14-5.35 1.7-14.31-4.48-17.1l-6.27 17.57c1.19.29 2.38.56 3.58.83s2.39.52 3.59.76c3 .59 6 1.11 9 1.56 7.24 1.09 14.51 1.9 21.82 2.29a236.86 236.86 0 0 0 40.11-1.43c26.88-3.16 53.3-9.33 78.14-20.21 21.29-9.32 42.11-22.68 54.52-42.86 14.16-23.05 12.92-51-2.53-73-13.89-19.79-34.45-34-55.86-44.64a263 263 0 0 0-70.83-23.3c-48.92-8.71-100.05-3.55-145 18.31-18.4 9-37.57 20.39-50.58 36.48-7.87 9.72-13.28 20.66-14.77 33.18s1.68 25 7.16 36.32c9.91 20.41 28.36 36.93 47 49.29 18.39 12.2 39.21 20.86 60.33 27.08 44.88 13.2 94.53 17.64 140.36 6.84 42.19-9.95 85.99-36.84 104.09-77.78 9.41-21.28 10.9-44.84 2.08-66.63-9.07-22.39-25.15-41.41-44.11-56.15a173.37 173.37 0 0 0-68.36-32.51c-26.75-5.95-53.72-4.95-80.6-.43-12.4 2.09-24.45 5.1-35.67 11l17.1 17.1a25.17 25.17 0 0 0 4.37-7.22L196.56 149c.29-7.17 12.19-7.78 12.15 0l-23.29 6.3.19.36c5.71 10.4 24.43 6.27 23.3-6.31-.47-5.21-.57 5.72-1.71 2.31.12.35 2.42-1.22 2.9-1.48a45.25 45.25 0 0 1 6.29-2.79 99.05 99.05 0 0 1 18.76-4.45c13.79-2 28-1.44 41.84-.37 25.43 2 51.48 5 74.85 15.88 38.37 17.92 75.24 57.69 70.48 101.82-4.33 40.09-41.67 71.09-77.53 85-47.29 18.33-101.24 16.07-149.6 3.3-25.21-6.66-49.86-16.1-71.6-30.7-17.11-11.49-35.32-27.57-42.66-47.17a65.31 65.31 0 0 1-2.59-8.8c-.19-.87-.35-1.74-.53-2.61-.83-3.95 0 2.12-.26-1.82-.15-2.09-.29-4.16-.26-6.26 0-1.22.07-2.44.16-3.66q.09-1.2.24-2.4c-.16 1.15-.16 1.27 0 .37 1.8-9.73 3.87-14.3 9.47-22.45.57-.82 1.16-1.64 1.76-2.45 1.37-1.83-1.83 2.17.67-.82q2.16-2.59 4.48-5.06a117.27 117.27 0 0 1 10.6-9.83c2.36-1.94 6-4.59 9.88-7.18s8-5.06 12.13-7.36c18.2-10.14 34.8-16.51 56.13-21.55a240.5 240.5 0 0 1 77.38-5 244 244 0 0 1 71.5 18.08c22.77 9.53 45 22.73 61.12 41.74 14 16.59 19.38 37 13.14 56.21-2.38 7.35-7.85 16.07-13.36 22a90.09 90.09 0 0 1-21.16 17.06c-18 11-36.35 17.13-57.7 21.84a252.06 252.06 0 0 1-77.66 4.92 201.88 201.88 0 0 1-36.62-7c-15.52-4.51-22.13 19.6-6.66 24.02z" fill="#fff"/>
  </g>
  <path d="M196.11 350.63c44.84 13 96 10.4 140.46-3 38.77-11.63 83.14-37.63 84.67-83.25.73-21.86-11.06-41.75-26.15-56.7C376.1 188.85 351.75 176 327 166.6c-54.07-20.52-116.41-22.2-171.09-3-42.1 14.81-102.29 49.47-89.27 102.87 6 24.48 25.22 43.61 44.89 58s42 24.25 65.05 31.57c48.76 15.51 104.31 20.3 154.12 6.88 45.2-12.17 92.16-45.22 102.68-93.42 9.81-44.95-20.22-86.57-55.75-110.93-21.77-14.92-48-23-74.08-25.93-24.37-2.78-49.64-5.61-74-1.49-10.65 1.8-21 4.73-30.12 10.74-2.67 1.77-3.43 4.31-3 7.34-.2-.51-.26-.47-.2.12-.2 8.26 12.63 8.26 12.83 0 .06-.59 0-.64-.11-.12l-3 3.88c8.51-4.6 18.45-7.09 27.9-8.84a257.43 257.43 0 0 1 34.79-4.15A163.21 163.21 0 0 1 339 152.28c20.58 8.51 40 21.5 55.07 37.9 12.75 13.86 24 31.36 27 50.25 6.83 42.92-28.2 79.74-63.3 98.12-42.71 22.35-94.49 23.33-141 14.86-44.88-8.17-92.16-26.05-121.56-62.69-12.11-15.1-19.94-34.43-13.3-53.56 7.56-21.75 30.29-36.28 49.54-46.74 45.31-24.63 99.54-30.08 149.67-19.68 26.26 5.45 52.24 14.67 75.3 28.48 17.58 10.53 34.81 24.51 43.58 43.49 7.64 16.43 5.5 34.08-3.88 49.33s-24.36 25.65-40.06 33.67c-19.11 9.76-40 15.92-61 20-21.85 4.21-44.38 6.08-66.6 4.29a186.15 186.15 0 0 1-30.77-5.06c-3.71-1-5.25 4.66-1.58 5.72z" fill="#dd2f00"/>
</svg>
