<svg data-name="Layer 1" xmlns="http://www.w3.org/2000/svg" width="500" height="500">
  <g opacity=".77">
    <path d="M393.07 162.82L314 117.2c-12.58-7.27-31.66 10.45-17.71 18.5l45.5 26.3-179.43-2.17c-14.18-.72-28.66-1-42.82.49-6.37.67-12.91 12.31-13.25 19.11-.06 1.19-1.9 165.22-1.9 165.22a304.77 304.77 0 0 1-1.61 36.07c-1 9.37 23-.2 23.91-9.43 1.49-14.15 1.21-28.63.49-42.81L127 194.54s-.15-12.15 5.64-11.74c3.07.22 8.08-.3 13.52-.23l199.65-2.38-48.24 27c-15 8.35-.05 26.69 13.93 18.87l79.65-44.52c6.06-3.4 9.11-14.54 1.92-18.72z" fill="#dd2f00"/>
    <path d="M399.38 152l-53.27-30.74c-8.84-5.1-17.56-10.89-26.72-15.37a27.42 27.42 0 0 0-23.14-.49c-14.13 6-23.9 23.92-11.68 36.81 6.21 6.54 16.23 10.5 24 15l26.94 15.55 6.31-23.29-70.41-.85-98.87-1.19c-15.73-.19-31.45-1.29-47.16-.15-8.62.63-15.76 2-21.65 8.84a40.15 40.15 0 0 0-9.6 20.62 71.6 71.6 0 0 0-.39 8.67q-.6 48.18-1.11 96.37c-.32 28.15.43 56.63-1.18 84.74-.47 8.38-3.46 18.43 3 25.31 4.87 5.22 11.88 5.81 18.51 4.5 10.9-2.17 23.25-10.42 25.87-21.74 2.15-9.35 1.61-20.07 1.49-29.6-.07-5.64-.44-11.26-.56-16.89-.07-3.47 0-6.95 0-10.41l-.11-102c0-8.06-.35-16.2.15-24.25-.16 2.55.07 1.09.25-.41s-1.24 1.85-.34.62-.89 1-.82 1l-3.16 1.35q-5.23 1.5-2 1.39a8.62 8.62 0 0 0 1.9 0c2 0 4.09-.15 6.13-.21 1.78-.05 3.55 0 5.33-.06 3.08 0 6.16-.07 9.24-.11l96.14-1.15 88.44-1.05 4.9-.06-6.31-23.29-25 14c-8.09 4.52-16.71 8.61-24.44 13.72-14.74 9.74-14.4 30 .63 39.4 16.41 10.22 32.8-2.84 47-10.78l51.08-28.56c8.68-4.85 16.5-9.1 19.74-19.15s-.55-20.16-9.19-26c-5.61-3.76-13.85-1.08-17.11 4.49-3.59 6.14-1.13 13.32 4.49 17.1-1.4-.94-1.58-1.9-2-3.39-.06 1.29-.05 1.48 0 .57s0-.73-.29.55c.53-1.21.45-1.18-.23.1.84-1 .78-1-.19 0l.82-.73-3.46 1.94-24.19 13.48-46.75 26.14c-1.62.91-3.74 1.7-5.19 2.9 1-.31.87-.26-.51.17 1.4-.06 1.37 0-.1 0-1.31-.07-1.48-.06-.52 0s.79 0-.44-.24c1.34.63 1.39.62.13 0-1-.68-1.14-.75-.38-.23s.66.43-.21-.38q1.37 1.91.26.16.85 2.34.24.36l.19 1.49c.35-2.33-1.2 2-1.36 2.52.91-.85 1.08-1.06.5-.63s-.38.28.88-.52c16.2-8.77 32.17-18 48.25-27 10.82-6 6-23.44-6.31-23.29l-63.64.76-105.93 1.26c-9.41.12-18.82.25-28.23.34-6.27.07-13.44-.88-19.48.72-10.71 2.83-13.86 14.09-14 23.89-.46 27.54.07 55.13.1 82.68v44c0 2.68 0 5.36.06 8 .28 9.1.7 18.17.42 27.28-.11 3.5-1.27 10-.7 12.29-.15-.62-.11 0-.13.37 0-.07.88-3.09.18-.88 0-.14 1.57-1.77.58-.83-.44.42-.91.86-1.33 1.3-1.2 1.25 1.71-1.11.2-.14-.43.27-.84.57-1.27.84-1 .63-2.07 1.17-3.14 1.7-1.29.64.55-.23.68-.28-.6.21-1.2.46-1.81.62-.44.11-.89.22-1.32.35-2 .57-.78-.12.46 0-2.31-.2 2.61.78.68.16l4.14 2.38 2.88 6.81a13 13 0 0 0 .13-1.62c1.08-4.41.86-9.66 1.1-14.18.42-7.72.35-15.44.44-23.17q.18-16.58.37-33.16.58-52.41 1.19-104.83c.1-8.28 0-16.58.31-24.86v-.15c-.09 2.52.21-.42.57-1.56.41-1.3 0-.23-.11 0a19.08 19.08 0 0 1 .88-1.75c.42-.77.85-1.53 1.32-2.27 1.16-1.82-.88 1.13.33-.52.21-.28 1.66-2.22.85-1-.55.8.11 0 .5-.29a3.34 3.34 0 0 1-1.65.6 15 15 0 0 0 2.9-.24c4.86-.38 9.73-.57 14.61-.62 8.41-.1 16.78.45 25.18.59 27.31.44 54.62.65 81.93 1l90.48 1.09 5.21.07c12.42.15 17-17.13 6.31-23.3L306 126.86l-3.37-2c-1.13-.73-1.31-.83-.52-.31.07-.62 2.14 4.1 1.65 2.46-.4-1.37-.29 5 .12 2.24-.29 1.94-1 1.11.31-.13-2.5 2.35.39-.15.59-.29-2.51 1.68.43-.13.75-.35 1.81-1.25-1.29-.21.79-.32 2.42-.14-2-.75 1.23-.21.95 0 .69 0-.77-.21a9.73 9.73 0 0 1 1.5.39l-.56-.19 3.44 2 10.31 5.95L343 148.32l43.81 25.29c13.91 8.06 26.51-13.54 12.57-21.61z" fill="#fff"/>
  </g>
  <path d="M393.07 162.82L314 117.2c-12.58-7.27-31.66 10.45-17.71 18.5l45.5 26.3-179.43-2.17c-14.18-.72-28.66-1-42.82.49-6.37.67-12.91 12.31-13.25 19.11-.06 1.19-1.9 165.22-1.9 165.22a304.77 304.77 0 0 1-1.61 36.07c-1 9.37 23-.2 23.91-9.43 1.49-14.15 1.21-28.63.49-42.81L127 194.54s-.15-12.15 5.64-11.74c3.07.22 8.08-.3 13.52-.23l199.65-2.38-48.24 27c-15 8.35-.05 26.69 13.93 18.87l79.65-44.52c6.06-3.4 9.11-14.54 1.92-18.72z" fill="#dd2f00"/>
</svg>
