<?xml version="1.0" encoding="UTF-8"?>
<svg xmlns="http://www.w3.org/2000/svg" xmlns:xlink="http://www.w3.org/1999/xlink" width="24px" height="24px" viewBox="0 0 24 24" version="1.1">
<defs>
<filter id="alpha" filterUnits="objectBoundingBox" x="0%" y="0%" width="100%" height="100%">
  <feColorMatrix type="matrix" in="SourceGraphic" values="0 0 0 0 1 0 0 0 0 1 0 0 0 0 1 0 0 0 1 0"/>
</filter>
<mask id="mask0">
  <g filter="url(#alpha)">
<rect x="0" y="0" width="24" height="24" style="fill:rgb(0%,0%,0%);fill-opacity:0.768627;stroke:none;"/>
  </g>
</mask>
<clipPath id="clip1">
  <rect x="0" y="0" width="24" height="24"/>
</clipPath>
<g id="surface5" clip-path="url(#clip1)">
<path style=" stroke:none;fill-rule:nonzero;fill:rgb(86.666667%,18.431373%,0%);fill-opacity:1;" d="M 11.167969 11.96875 C 10.828125 11.96875 10.394531 11.644531 10.296875 11.316406 C 10.230469 11.121094 10.304688 10.910156 10.476562 10.800781 C 11.050781 10.417969 11.566406 9.890625 12.019531 9.425781 C 12.117188 9.324219 12.25 9.273438 12.386719 9.277344 C 12.710938 9.277344 13.125 9.554688 13.253906 9.859375 C 13.328125 10.042969 13.300781 10.222656 13.175781 10.351562 C 12.597656 10.949219 12.066406 11.476562 11.4375 11.890625 C 11.359375 11.945312 11.265625 11.972656 11.167969 11.96875 Z M 11.167969 11.96875 "/>
<path style=" stroke:none;fill-rule:nonzero;fill:rgb(100%,100%,100%);fill-opacity:1;" d="M 12.382812 9.539062 C 12.703125 9.539062 13.175781 9.972656 12.988281 10.167969 C 12.46875 10.703125 11.917969 11.257812 11.292969 11.671875 C 11.253906 11.695312 11.210938 11.707031 11.167969 11.707031 C 10.84375 11.707031 10.332031 11.210938 10.621094 11.019531 C 11.207031 10.632812 11.71875 10.109375 12.207031 9.609375 C 12.253906 9.5625 12.316406 9.539062 12.382812 9.539062 M 12.382812 9.011719 C 12.175781 9.007812 11.972656 9.089844 11.828125 9.238281 C 11.382812 9.695312 10.882812 10.214844 10.328125 10.578125 C 10.058594 10.753906 9.941406 11.085938 10.039062 11.390625 C 10.171875 11.832031 10.710938 12.234375 11.167969 12.234375 C 11.3125 12.234375 11.457031 12.191406 11.582031 12.113281 C 12.230469 11.683594 12.796875 11.121094 13.363281 10.535156 C 13.5625 10.328125 13.613281 10.019531 13.496094 9.757812 C 13.324219 9.355469 12.816406 9.011719 12.382812 9.011719 Z M 12.382812 9.011719 "/>
<path style=" stroke:none;fill-rule:nonzero;fill:rgb(86.666667%,18.431373%,0%);fill-opacity:1;" d="M 12.925781 15.300781 C 12.8125 15.296875 12.699219 15.265625 12.601562 15.210938 C 12.359375 15.082031 12.0625 14.828125 12.023438 14.519531 C 11.957031 14.03125 11.96875 13.53125 11.980469 13.046875 C 11.984375 12.910156 11.988281 12.773438 11.988281 12.640625 C 11.992188 12.34375 11.996094 12.050781 12 11.753906 C 12.007812 11.054688 12.019531 10.332031 12.019531 9.621094 C 12.015625 9.527344 12.050781 9.4375 12.117188 9.371094 C 12.183594 9.304688 12.277344 9.269531 12.371094 9.273438 C 12.589844 9.273438 12.84375 9.449219 12.847656 9.449219 C 13.140625 9.660156 13.304688 9.914062 13.304688 10.164062 C 13.304688 10.882812 13.296875 11.617188 13.285156 12.324219 C 13.28125 12.585938 13.277344 12.847656 13.277344 13.109375 C 13.277344 13.253906 13.269531 13.40625 13.265625 13.550781 C 13.253906 13.984375 13.242188 14.4375 13.296875 14.851562 C 13.320312 14.96875 13.289062 15.085938 13.214844 15.175781 C 13.140625 15.257812 13.035156 15.300781 12.925781 15.300781 Z M 12.925781 15.300781 "/>
<path style=" stroke:none;fill-rule:nonzero;fill:rgb(100%,100%,100%);fill-opacity:1;" d="M 12.367188 9.539062 C 12.476562 9.539062 12.65625 9.640625 12.691406 9.664062 C 12.847656 9.777344 13.039062 9.960938 13.039062 10.164062 C 13.039062 11.144531 13.019531 12.125 13.011719 13.105469 C 13.003906 13.691406 12.953125 14.308594 13.035156 14.890625 C 13.050781 15 12.996094 15.035156 12.925781 15.035156 C 12.855469 15.03125 12.785156 15.007812 12.722656 14.976562 C 12.554688 14.886719 12.3125 14.6875 12.285156 14.484375 C 12.199219 13.878906 12.242188 13.246094 12.25 12.640625 C 12.261719 11.632812 12.277344 10.628906 12.28125 9.621094 C 12.28125 9.558594 12.316406 9.535156 12.367188 9.535156 M 12.367188 9.007812 C 12.203125 9.003906 12.046875 9.066406 11.929688 9.183594 C 11.8125 9.296875 11.75 9.457031 11.75 9.621094 C 11.75 10.328125 11.742188 11.050781 11.734375 11.75 C 11.730469 12.046875 11.726562 12.339844 11.722656 12.632812 C 11.722656 12.765625 11.71875 12.898438 11.714844 13.035156 C 11.703125 13.53125 11.691406 14.042969 11.761719 14.554688 C 11.835938 15.074219 12.371094 15.386719 12.476562 15.441406 C 12.617188 15.515625 12.769531 15.558594 12.925781 15.5625 C 13.113281 15.566406 13.289062 15.488281 13.414062 15.347656 C 13.539062 15.199219 13.589844 15.007812 13.558594 14.816406 C 13.503906 14.421875 13.515625 13.980469 13.527344 13.554688 C 13.53125 13.414062 13.539062 13.257812 13.539062 13.109375 L 13.550781 12.328125 C 13.558594 11.621094 13.566406 10.886719 13.566406 10.160156 C 13.566406 9.824219 13.367188 9.492188 13 9.234375 C 12.984375 9.222656 12.679688 9.007812 12.367188 9.007812 Z M 12.367188 9.007812 "/>
</g>
<mask id="mask1">
  <g filter="url(#alpha)">
<rect x="0" y="0" width="24" height="24" style="fill:rgb(0%,0%,0%);fill-opacity:0.768627;stroke:none;"/>
  </g>
</mask>
<clipPath id="clip2">
  <rect x="0" y="0" width="24" height="24"/>
</clipPath>
<g id="surface8" clip-path="url(#clip2)">
<path style=" stroke:none;fill-rule:nonzero;fill:rgb(86.666667%,18.431373%,0%);fill-opacity:1;" d="M 13.773438 17.289062 C 12.289062 17.902344 10.558594 17.503906 9.246094 16.65625 C 7.789062 15.714844 6.925781 14.078125 7.042969 12.328125 C 7.164062 10.546875 8.320312 9.003906 9.832031 8.117188 C 10.640625 7.640625 11.539062 7.347656 12.484375 7.363281 C 13.375 7.375 14.230469 7.664062 14.972656 8.144531 C 16.558594 9.171875 17.730469 10.945312 17.46875 12.886719 C 17.226562 14.703125 16.011719 16.378906 14.410156 17.246094 C 12.867188 18.078125 10.871094 18.324219 9.308594 17.40625 C 7.777344 16.507812 6.855469 14.742188 6.550781 13.039062 C 6.222656 11.207031 6.734375 9.339844 7.789062 7.828125 C 8.289062 7.109375 8.941406 6.464844 9.769531 6.148438 C 10.558594 5.84375 11.46875 5.929688 12.269531 6.144531 C 12.628906 6.238281 12.992188 6.402344 13.269531 6.652344 L 13.179688 6.433594 L 13.1875 6.535156 C 13.195312 6.929688 13.8125 6.929688 13.804688 6.535156 C 13.796875 6.308594 13.71875 6.191406 13.546875 6.042969 C 13.363281 5.886719 13.15625 5.761719 12.933594 5.671875 C 12.480469 5.488281 11.992188 5.398438 11.503906 5.414062 C 10.597656 5.429688 9.636719 5.632812 8.847656 6.078125 C 7.078125 7.070312 6.0625 9.1875 5.839844 11.140625 C 5.605469 13.171875 6.296875 15.316406 7.664062 16.832031 C 8.328125 17.574219 9.171875 18.140625 10.136719 18.398438 C 11.085938 18.652344 12.089844 18.632812 13.042969 18.398438 C 15.035156 17.914062 16.769531 16.515625 17.652344 14.65625 C 18.101562 13.699219 18.304688 12.648438 18.15625 11.597656 C 18 10.476562 17.4375 9.515625 16.683594 8.6875 C 15.273438 7.132812 13.199219 6.273438 11.113281 6.746094 C 9.070312 7.207031 7.285156 8.796875 6.566406 10.753906 C 5.871094 12.65625 6.371094 14.9375 7.851562 16.332031 C 9.140625 17.542969 11.015625 18.148438 12.765625 17.882812 C 13.152344 17.824219 13.527344 17.710938 13.882812 17.546875 C 14.027344 17.480469 13.921875 17.226562 13.773438 17.285156 Z M 13.773438 17.289062 "/>
<path style=" stroke:none;fill-rule:nonzero;fill:rgb(100%,100%,100%);fill-opacity:1;" d="M 13.613281 16.710938 C 12.132812 17.300781 10.339844 16.855469 9.152344 15.847656 C 8.589844 15.367188 8.136719 14.753906 7.894531 14.09375 C 7.640625 13.394531 7.5625 12.652344 7.691406 11.957031 C 7.96875 10.46875 8.996094 9.253906 10.316406 8.535156 C 11.082031 8.117188 11.941406 7.898438 12.816406 7.980469 C 13.617188 8.058594 14.410156 8.4375 15.019531 8.90625 C 16.230469 9.835938 17.035156 11.226562 16.890625 12.742188 C 16.753906 14.171875 15.800781 15.613281 14.601562 16.429688 C 13.292969 17.316406 11.515625 17.722656 10.03125 17.101562 C 8.625 16.515625 7.730469 15.085938 7.320312 13.675781 C 6.84375 12.046875 7.046875 10.34375 7.859375 8.855469 C 8.238281 8.164062 8.726562 7.476562 9.375 7.035156 C 10.089844 6.550781 10.902344 6.460938 11.746094 6.636719 C 12.132812 6.714844 12.542969 6.816406 12.851562 7.078125 C 13.054688 7.253906 13.335938 7.3125 13.578125 7.175781 C 13.789062 7.050781 13.953125 6.738281 13.855469 6.496094 L 13.761719 6.277344 C 13.648438 6 13.421875 5.796875 13.105469 5.84375 C 12.828125 5.886719 12.558594 6.132812 12.582031 6.433594 C 12.605469 6.722656 12.652344 6.980469 12.878906 7.1875 C 13.117188 7.40625 13.453125 7.484375 13.765625 7.394531 C 14.417969 7.199219 14.574219 6.414062 14.210938 5.882812 C 13.84375 5.355469 13.136719 5.046875 12.523438 4.914062 C 11.839844 4.769531 11.148438 4.804688 10.460938 4.910156 C 9.296875 5.085938 8.214844 5.625 7.375 6.453125 C 6.582031 7.238281 6.019531 8.238281 5.652344 9.289062 C 4.882812 11.511719 5.125 13.960938 6.3125 15.992188 C 6.910156 17.007812 7.746094 17.917969 8.78125 18.488281 C 9.976562 19.148438 11.347656 19.292969 12.683594 19.082031 C 14.886719 18.734375 16.894531 17.285156 17.976562 15.339844 C 18.636719 14.148438 18.933594 12.792969 18.738281 11.4375 C 18.5625 10.230469 17.921875 9.152344 17.113281 8.261719 C 15.519531 6.507812 13.078125 5.597656 10.75 6.214844 C 8.597656 6.785156 6.804688 8.457031 6.015625 10.523438 C 5.222656 12.605469 5.78125 15.152344 7.382812 16.703125 C 8.226562 17.515625 9.273438 18.089844 10.414062 18.363281 C 11.609375 18.644531 12.988281 18.648438 14.105469 18.101562 C 14.910156 17.710938 14.488281 16.515625 13.613281 16.707031 C 13.296875 16.777344 13.109375 17.148438 13.191406 17.445312 C 13.28125 17.773438 13.613281 17.9375 13.929688 17.867188 L 13.972656 17.855469 L 13.65625 17.855469 L 13.398438 17.21875 L 13.613281 17.003906 C 13.4375 17.128906 13.183594 17.179688 12.972656 17.230469 C 12.746094 17.289062 12.511719 17.324219 12.273438 17.335938 C 11.820312 17.363281 11.367188 17.335938 10.921875 17.246094 C 10.015625 17.0625 9.144531 16.667969 8.445312 16.058594 C 7.148438 14.9375 6.59375 13.140625 6.964844 11.519531 C 7.351562 9.828125 8.636719 8.410156 10.214844 7.675781 C 11.855469 6.910156 13.738281 7.15625 15.238281 8.203125 C 16.800781 9.289062 17.898438 11.152344 17.53125 13.09375 C 17.1875 14.917969 15.929688 16.425781 14.335938 17.273438 C 12.640625 18.175781 10.417969 18.304688 8.808594 17.085938 C 7.351562 15.988281 6.496094 14.074219 6.402344 12.292969 C 6.316406 10.585938 6.886719 8.71875 8.074219 7.453125 C 8.6875 6.792969 9.488281 6.335938 10.371094 6.148438 C 11.226562 5.957031 12.402344 5.863281 13.121094 6.46875 C 13.101562 6.453125 13.265625 6.613281 13.214844 6.554688 C 13.160156 6.492188 13.238281 6.484375 13.210938 6.558594 C 13.246094 6.460938 13.253906 6.332031 13.371094 6.273438 C 13.476562 6.214844 13.527344 6.207031 13.632812 6.273438 C 13.699219 6.324219 13.753906 6.394531 13.78125 6.472656 C 13.824219 6.566406 13.785156 6.515625 13.777344 6.4375 L 12.601562 6.597656 L 12.691406 6.816406 L 13.695312 6.234375 C 12.878906 5.535156 11.644531 5.273438 10.589844 5.371094 C 9.527344 5.460938 8.601562 5.984375 7.882812 6.761719 C 6.507812 8.246094 5.71875 10.375 5.867188 12.394531 C 6.003906 14.234375 6.808594 16.175781 8.242188 17.378906 C 9.019531 18.039062 9.972656 18.449219 10.984375 18.5625 C 11.953125 18.671875 12.96875 18.503906 13.871094 18.148438 C 15.683594 17.445312 17.105469 15.996094 17.773438 14.171875 C 18.105469 13.273438 18.183594 12.304688 18 11.367188 C 17.816406 10.449219 17.347656 9.613281 16.746094 8.902344 C 15.40625 7.320312 13.320312 6.433594 11.261719 6.898438 C 9.433594 7.308594 7.726562 8.671875 6.945312 10.382812 C 6.164062 12.101562 6.289062 14.144531 7.398438 15.695312 C 8.527344 17.273438 10.535156 18.296875 12.488281 18.179688 C 12.984375 18.152344 13.46875 18.046875 13.929688 17.867188 C 14.234375 17.746094 14.445312 17.464844 14.351562 17.128906 C 14.273438 16.84375 13.914062 16.589844 13.613281 16.710938 Z M 13.613281 16.710938 "/>
</g>
</defs>
<g id="surface1">
<use xlink:href="#surface5" mask="url(#mask0)"/>
<path style=" stroke:none;fill-rule:nonzero;fill:rgb(86.666667%,18.431373%,0%);fill-opacity:1;" d="M 11.292969 11.671875 C 11.917969 11.257812 12.46875 10.703125 12.988281 10.167969 C 13.21875 9.929688 12.46875 9.339844 12.207031 9.609375 C 11.722656 10.109375 11.207031 10.632812 10.621094 11.019531 C 10.292969 11.238281 11.011719 11.855469 11.292969 11.671875 Z M 11.292969 11.671875 "/>
<path style=" stroke:none;fill-rule:nonzero;fill:rgb(86.666667%,18.431373%,0%);fill-opacity:1;" d="M 12.28125 9.621094 C 12.28125 10.632812 12.261719 11.636719 12.25 12.640625 C 12.242188 13.25 12.203125 13.882812 12.285156 14.484375 C 12.3125 14.691406 12.554688 14.886719 12.722656 14.976562 C 12.84375 15.042969 13.0625 15.101562 13.035156 14.890625 C 12.953125 14.308594 13.003906 13.691406 13.011719 13.105469 C 13.019531 12.125 13.039062 11.144531 13.039062 10.164062 C 13.039062 9.960938 12.847656 9.777344 12.691406 9.664062 C 12.636719 9.625 12.28125 9.425781 12.28125 9.621094 Z M 12.28125 9.621094 "/>
<use xlink:href="#surface8" mask="url(#mask1)"/>
<path style=" stroke:none;fill-rule:nonzero;fill:rgb(86.666667%,18.431373%,0%);fill-opacity:1;" d="M 13.773438 17.289062 C 12.289062 17.902344 10.558594 17.503906 9.246094 16.65625 C 7.789062 15.714844 6.925781 14.078125 7.042969 12.328125 C 7.164062 10.546875 8.320312 9.003906 9.832031 8.117188 C 10.640625 7.640625 11.539062 7.347656 12.484375 7.363281 C 13.375 7.375 14.230469 7.664062 14.972656 8.144531 C 16.558594 9.171875 17.730469 10.945312 17.46875 12.886719 C 17.226562 14.703125 16.011719 16.378906 14.410156 17.246094 C 12.867188 18.078125 10.871094 18.324219 9.308594 17.40625 C 7.777344 16.507812 6.855469 14.742188 6.550781 13.039062 C 6.222656 11.207031 6.734375 9.339844 7.789062 7.828125 C 8.289062 7.109375 8.941406 6.464844 9.769531 6.148438 C 10.558594 5.84375 11.46875 5.929688 12.269531 6.144531 C 12.628906 6.238281 12.992188 6.402344 13.269531 6.652344 L 13.179688 6.433594 L 13.1875 6.535156 C 13.195312 6.929688 13.8125 6.929688 13.804688 6.535156 C 13.796875 6.308594 13.71875 6.191406 13.546875 6.042969 C 13.363281 5.886719 13.15625 5.761719 12.933594 5.671875 C 12.480469 5.488281 11.992188 5.398438 11.503906 5.414062 C 10.597656 5.429688 9.636719 5.632812 8.847656 6.078125 C 7.078125 7.070312 6.0625 9.1875 5.839844 11.140625 C 5.605469 13.171875 6.296875 15.316406 7.664062 16.832031 C 8.328125 17.574219 9.171875 18.140625 10.136719 18.398438 C 11.085938 18.652344 12.089844 18.632812 13.042969 18.398438 C 15.035156 17.914062 16.769531 16.515625 17.652344 14.65625 C 18.101562 13.699219 18.304688 12.648438 18.15625 11.597656 C 18 10.476562 17.4375 9.515625 16.683594 8.6875 C 15.273438 7.132812 13.199219 6.273438 11.113281 6.746094 C 9.070312 7.207031 7.285156 8.796875 6.566406 10.753906 C 5.871094 12.65625 6.371094 14.9375 7.851562 16.332031 C 9.140625 17.542969 11.015625 18.148438 12.765625 17.882812 C 13.152344 17.824219 13.527344 17.710938 13.882812 17.546875 C 14.027344 17.480469 13.921875 17.226562 13.773438 17.285156 Z M 13.773438 17.289062 "/>
</g>
</svg>
