<?xml version="1.0" encoding="UTF-8"?>
<svg xmlns="http://www.w3.org/2000/svg" xmlns:xlink="http://www.w3.org/1999/xlink" width="24px" height="24px" viewBox="0 0 24 24" version="1.1">
<defs>
<filter id="alpha" filterUnits="objectBoundingBox" x="0%" y="0%" width="100%" height="100%">
  <feColorMatrix type="matrix" in="SourceGraphic" values="0 0 0 0 1 0 0 0 0 1 0 0 0 0 1 0 0 0 1 0"/>
</filter>
<mask id="mask0">
  <g filter="url(#alpha)">
<rect x="0" y="0" width="24" height="24" style="fill:rgb(0%,0%,0%);fill-opacity:0.768627;stroke:none;"/>
  </g>
</mask>
<clipPath id="clip1">
  <rect x="0" y="0" width="24" height="24"/>
</clipPath>
<g id="surface5" clip-path="url(#clip1)">
<path style=" stroke:none;fill-rule:nonzero;fill:rgb(86.666667%,18.431373%,0%);fill-opacity:1;" d="M 11.527344 10.585938 C 11.171875 10.585938 10.921875 10.296875 10.808594 10.125 C 10.761719 10.050781 10.722656 9.972656 10.695312 9.890625 C 10.628906 9.71875 10.628906 9.582031 10.6875 9.46875 C 10.75 9.351562 10.871094 9.285156 11.003906 9.285156 L 13.296875 9.285156 C 13.652344 9.285156 13.902344 9.574219 14.015625 9.746094 C 14.0625 9.820312 14.101562 9.898438 14.128906 9.980469 C 14.195312 10.152344 14.195312 10.292969 14.136719 10.402344 C 14.074219 10.519531 13.953125 10.589844 13.820312 10.585938 Z M 11.527344 10.585938 "/>
<path style=" stroke:none;fill-rule:nonzero;fill:rgb(100%,100%,100%);fill-opacity:1;" d="M 13.296875 9.550781 C 13.507812 9.550781 13.6875 9.734375 13.796875 9.898438 C 13.84375 9.960938 14.027344 10.324219 13.820312 10.324219 L 11.527344 10.324219 C 11.316406 10.324219 11.136719 10.140625 11.027344 9.976562 C 10.980469 9.914062 10.796875 9.550781 11.003906 9.550781 L 13.296875 9.550781 M 13.296875 9.023438 L 11.003906 9.023438 C 10.773438 9.019531 10.5625 9.144531 10.453125 9.347656 C 10.242188 9.742188 10.550781 10.222656 10.589844 10.273438 C 10.839844 10.644531 11.175781 10.851562 11.527344 10.851562 L 13.824219 10.851562 C 14.054688 10.855469 14.265625 10.730469 14.371094 10.527344 C 14.582031 10.128906 14.273438 9.652344 14.238281 9.601562 C 13.984375 9.226562 13.652344 9.023438 13.296875 9.023438 Z M 13.296875 9.023438 "/>
<path style=" stroke:none;fill-rule:nonzero;fill:rgb(86.666667%,18.431373%,0%);fill-opacity:1;" d="M 11.398438 12.34375 C 11.0625 12.34375 10.839844 11.953125 10.761719 11.722656 C 10.648438 11.402344 10.699219 11.132812 10.894531 10.980469 L 12.824219 9.460938 C 12.894531 9.40625 12.976562 9.378906 13.066406 9.375 C 13.398438 9.375 13.621094 9.765625 13.699219 9.996094 C 13.8125 10.316406 13.761719 10.585938 13.566406 10.738281 L 11.636719 12.257812 C 11.566406 12.3125 11.484375 12.34375 11.394531 12.34375 Z M 11.398438 12.34375 "/>
<path style=" stroke:none;fill-rule:nonzero;fill:rgb(100%,100%,100%);fill-opacity:1;" d="M 13.066406 9.640625 C 13.3125 9.640625 13.660156 10.332031 13.40625 10.53125 L 11.476562 12.050781 C 11.453125 12.070312 11.425781 12.078125 11.398438 12.078125 C 11.148438 12.078125 10.800781 11.386719 11.054688 11.1875 L 12.988281 9.667969 C 13.011719 9.652344 13.039062 9.640625 13.066406 9.640625 M 13.066406 9.113281 C 12.917969 9.113281 12.777344 9.160156 12.660156 9.253906 L 11.695312 10.011719 L 10.730469 10.773438 C 10.445312 10.996094 10.363281 11.382812 10.511719 11.808594 C 10.640625 12.175781 10.945312 12.605469 11.398438 12.605469 C 11.542969 12.605469 11.6875 12.558594 11.800781 12.464844 L 13.734375 10.949219 C 14.015625 10.722656 14.097656 10.335938 13.953125 9.910156 C 13.824219 9.542969 13.515625 9.113281 13.066406 9.113281 Z M 13.066406 9.113281 "/>
<path style=" stroke:none;fill-rule:nonzero;fill:rgb(86.666667%,18.431373%,0%);fill-opacity:1;" d="M 11.792969 15.148438 C 11.207031 15.148438 10.671875 14.988281 10.246094 14.6875 C 10.15625 14.621094 10.105469 14.507812 10.125 14.398438 C 10.140625 14.28125 10.214844 14.144531 10.617188 14.019531 L 10.660156 14.007812 C 10.78125 13.96875 10.980469 13.902344 11.15625 13.902344 C 11.257812 13.898438 11.355469 13.925781 11.441406 13.980469 C 11.648438 14.132812 11.886719 14.238281 12.136719 14.289062 C 12.238281 14.3125 12.34375 14.324219 12.445312 14.324219 C 12.492188 14.328125 12.539062 14.324219 12.582031 14.308594 C 12.960938 14.140625 13.1875 13.824219 13.242188 13.390625 C 13.289062 12.988281 13.160156 12.644531 12.875 12.394531 C 12.722656 12.265625 12.550781 12.167969 12.363281 12.105469 C 12.308594 12.085938 12.253906 12.070312 12.195312 12.058594 C 12.074219 12.125 11.941406 12.171875 11.804688 12.195312 L 11.761719 12.203125 C 11.613281 12.238281 11.457031 12.257812 11.304688 12.261719 C 11.246094 12.261719 11.097656 12.261719 11.003906 12.140625 C 10.953125 12.074219 10.933594 11.984375 10.953125 11.902344 C 11.070312 11.425781 11.707031 11.316406 12.046875 11.257812 L 12.085938 11.25 C 12.265625 11.21875 12.445312 11.203125 12.625 11.203125 C 12.816406 11.203125 13.011719 11.226562 13.199219 11.269531 C 13.839844 11.421875 14.359375 11.828125 14.585938 12.351562 C 14.839844 12.929688 14.714844 13.726562 14.292969 14.203125 C 13.78125 14.785156 12.929688 15.015625 12.308594 15.109375 C 12.136719 15.132812 11.964844 15.148438 11.792969 15.148438 Z M 11.792969 15.148438 "/>
<path style=" stroke:none;fill-rule:nonzero;fill:rgb(100%,100%,100%);fill-opacity:1;" d="M 12.625 11.472656 C 12.796875 11.472656 12.972656 11.492188 13.140625 11.53125 C 13.644531 11.648438 14.136719 11.976562 14.347656 12.460938 C 14.558594 12.945312 14.445312 13.632812 14.097656 14.03125 C 13.65625 14.53125 12.90625 14.753906 12.273438 14.847656 C 12.113281 14.875 11.953125 14.886719 11.792969 14.886719 C 11.300781 14.886719 10.8125 14.765625 10.398438 14.472656 C 10.300781 14.402344 10.648438 14.285156 10.695312 14.273438 C 10.792969 14.242188 11.003906 14.167969 11.15625 14.167969 C 11.199219 14.164062 11.246094 14.175781 11.285156 14.199219 C 11.523438 14.371094 11.796875 14.492188 12.085938 14.550781 C 12.207031 14.574219 12.324219 14.585938 12.445312 14.589844 C 12.527344 14.59375 12.609375 14.578125 12.6875 14.550781 C 13.164062 14.339844 13.441406 13.9375 13.503906 13.425781 C 13.558594 12.949219 13.410156 12.507812 13.046875 12.195312 C 12.867188 12.046875 12.667969 11.933594 12.449219 11.859375 C 12.339844 11.820312 12.230469 11.796875 12.121094 11.78125 C 12.128906 11.769531 12.136719 11.753906 12.140625 11.738281 C 12.136719 11.761719 12.117188 11.773438 12.085938 11.777344 C 12.042969 11.773438 12 11.773438 11.953125 11.769531 L 11.910156 11.769531 C 11.855469 11.769531 11.933594 11.789062 12.011719 11.789062 C 12.035156 11.789062 12.0625 11.785156 12.085938 11.78125 L 12.121094 11.78125 C 12.042969 11.886719 11.796875 11.925781 11.699219 11.949219 C 11.570312 11.976562 11.4375 11.992188 11.304688 12 C 11.242188 12 11.203125 11.992188 11.207031 11.96875 C 11.289062 11.640625 11.859375 11.558594 12.132812 11.511719 C 12.292969 11.484375 12.457031 11.472656 12.625 11.472656 M 12.625 10.945312 C 12.429688 10.945312 12.234375 10.960938 12.042969 10.996094 L 12 11.003906 C 11.628906 11.066406 10.859375 11.199219 10.699219 11.84375 C 10.65625 12.003906 10.691406 12.179688 10.796875 12.308594 C 10.910156 12.457031 11.085938 12.53125 11.304688 12.53125 C 11.480469 12.523438 11.65625 12.503906 11.828125 12.464844 L 11.863281 12.457031 C 11.988281 12.433594 12.113281 12.394531 12.230469 12.34375 L 12.277344 12.359375 C 12.433594 12.410156 12.574219 12.492188 12.703125 12.59375 C 12.921875 12.789062 13.015625 13.042969 12.980469 13.359375 C 12.9375 13.695312 12.777344 13.925781 12.492188 14.058594 C 12.476562 14.0625 12.460938 14.0625 12.449219 14.058594 C 12.359375 14.058594 12.273438 14.046875 12.191406 14.03125 C 11.972656 13.984375 11.769531 13.894531 11.59375 13.765625 C 11.464844 13.679688 11.3125 13.632812 11.15625 13.636719 C 10.957031 13.636719 10.753906 13.699219 10.582031 13.753906 L 10.542969 13.765625 C 10.253906 13.855469 9.921875 14.003906 9.863281 14.355469 C 9.832031 14.566406 9.921875 14.777344 10.097656 14.902344 C 10.566406 15.238281 11.152344 15.410156 11.792969 15.410156 C 11.980469 15.410156 12.164062 15.398438 12.347656 15.371094 C 13.554688 15.191406 14.179688 14.730469 14.492188 14.378906 C 14.976562 13.828125 15.121094 12.910156 14.832031 12.246094 C 14.570312 11.644531 13.984375 11.183594 13.261719 11.015625 C 13.054688 10.964844 12.839844 10.941406 12.625 10.945312 Z M 12.625 10.945312 "/>
</g>
<mask id="mask1">
  <g filter="url(#alpha)">
<rect x="0" y="0" width="24" height="24" style="fill:rgb(0%,0%,0%);fill-opacity:0.768627;stroke:none;"/>
  </g>
</mask>
<clipPath id="clip2">
  <rect x="0" y="0" width="24" height="24"/>
</clipPath>
<g id="surface8" clip-path="url(#clip2)">
<path style=" stroke:none;fill-rule:nonzero;fill:rgb(86.666667%,18.431373%,0%);fill-opacity:1;" d="M 13.773438 17.289062 C 12.289062 17.902344 10.558594 17.503906 9.246094 16.65625 C 7.789062 15.714844 6.925781 14.078125 7.042969 12.328125 C 7.164062 10.546875 8.320312 9.003906 9.832031 8.117188 C 10.640625 7.640625 11.539062 7.347656 12.484375 7.363281 C 13.375 7.375 14.230469 7.664062 14.972656 8.144531 C 16.558594 9.171875 17.730469 10.945312 17.46875 12.886719 C 17.226562 14.703125 16.011719 16.378906 14.410156 17.246094 C 12.867188 18.078125 10.871094 18.324219 9.308594 17.40625 C 7.777344 16.507812 6.855469 14.742188 6.550781 13.039062 C 6.222656 11.207031 6.734375 9.339844 7.789062 7.828125 C 8.289062 7.109375 8.941406 6.464844 9.769531 6.148438 C 10.558594 5.84375 11.46875 5.929688 12.269531 6.144531 C 12.628906 6.238281 12.992188 6.402344 13.269531 6.652344 L 13.179688 6.433594 L 13.1875 6.535156 C 13.195312 6.929688 13.8125 6.929688 13.804688 6.535156 C 13.796875 6.308594 13.71875 6.191406 13.546875 6.042969 C 13.363281 5.886719 13.15625 5.761719 12.933594 5.671875 C 12.480469 5.488281 11.992188 5.398438 11.503906 5.414062 C 10.597656 5.429688 9.636719 5.632812 8.847656 6.078125 C 7.078125 7.070312 6.0625 9.1875 5.839844 11.140625 C 5.605469 13.171875 6.296875 15.316406 7.664062 16.832031 C 8.328125 17.574219 9.171875 18.140625 10.136719 18.398438 C 11.085938 18.652344 12.089844 18.632812 13.042969 18.398438 C 15.035156 17.914062 16.769531 16.515625 17.652344 14.65625 C 18.101562 13.699219 18.304688 12.648438 18.15625 11.597656 C 18 10.476562 17.4375 9.515625 16.683594 8.6875 C 15.273438 7.132812 13.199219 6.273438 11.113281 6.746094 C 9.070312 7.207031 7.285156 8.796875 6.566406 10.753906 C 5.871094 12.65625 6.371094 14.9375 7.851562 16.332031 C 9.140625 17.542969 11.015625 18.148438 12.765625 17.882812 C 13.152344 17.824219 13.527344 17.710938 13.882812 17.546875 C 14.027344 17.480469 13.921875 17.226562 13.773438 17.285156 Z M 13.773438 17.289062 "/>
<path style=" stroke:none;fill-rule:nonzero;fill:rgb(100%,100%,100%);fill-opacity:1;" d="M 13.613281 16.710938 C 12.132812 17.300781 10.339844 16.855469 9.152344 15.847656 C 8.589844 15.367188 8.136719 14.753906 7.894531 14.09375 C 7.640625 13.394531 7.5625 12.652344 7.691406 11.957031 C 7.96875 10.46875 8.996094 9.253906 10.316406 8.535156 C 11.082031 8.117188 11.941406 7.898438 12.816406 7.980469 C 13.617188 8.058594 14.410156 8.4375 15.019531 8.90625 C 16.230469 9.835938 17.035156 11.226562 16.890625 12.742188 C 16.753906 14.171875 15.800781 15.613281 14.601562 16.429688 C 13.292969 17.316406 11.515625 17.722656 10.03125 17.101562 C 8.625 16.515625 7.730469 15.085938 7.320312 13.675781 C 6.84375 12.046875 7.046875 10.34375 7.859375 8.855469 C 8.238281 8.164062 8.726562 7.476562 9.375 7.035156 C 10.089844 6.550781 10.902344 6.460938 11.746094 6.636719 C 12.132812 6.714844 12.542969 6.816406 12.851562 7.078125 C 13.054688 7.253906 13.335938 7.3125 13.578125 7.175781 C 13.789062 7.050781 13.953125 6.738281 13.855469 6.496094 L 13.761719 6.277344 C 13.648438 6 13.421875 5.796875 13.105469 5.84375 C 12.828125 5.886719 12.558594 6.132812 12.582031 6.433594 C 12.605469 6.722656 12.652344 6.980469 12.878906 7.1875 C 13.117188 7.40625 13.453125 7.484375 13.765625 7.394531 C 14.417969 7.199219 14.574219 6.414062 14.210938 5.882812 C 13.84375 5.355469 13.136719 5.046875 12.523438 4.914062 C 11.839844 4.769531 11.148438 4.804688 10.460938 4.910156 C 9.296875 5.085938 8.214844 5.625 7.375 6.453125 C 6.582031 7.238281 6.019531 8.238281 5.652344 9.289062 C 4.882812 11.511719 5.125 13.960938 6.3125 15.992188 C 6.910156 17.007812 7.746094 17.917969 8.78125 18.488281 C 9.976562 19.148438 11.347656 19.292969 12.683594 19.082031 C 14.886719 18.734375 16.894531 17.285156 17.976562 15.339844 C 18.636719 14.148438 18.933594 12.792969 18.738281 11.4375 C 18.5625 10.230469 17.921875 9.152344 17.113281 8.261719 C 15.519531 6.507812 13.078125 5.597656 10.75 6.214844 C 8.597656 6.785156 6.804688 8.457031 6.015625 10.523438 C 5.222656 12.605469 5.78125 15.152344 7.382812 16.703125 C 8.226562 17.515625 9.273438 18.089844 10.414062 18.363281 C 11.609375 18.644531 12.988281 18.648438 14.105469 18.101562 C 14.910156 17.710938 14.488281 16.515625 13.613281 16.707031 C 13.296875 16.777344 13.109375 17.148438 13.191406 17.445312 C 13.28125 17.773438 13.613281 17.9375 13.929688 17.867188 L 13.972656 17.855469 L 13.65625 17.855469 L 13.398438 17.21875 L 13.613281 17.003906 C 13.4375 17.128906 13.183594 17.179688 12.972656 17.230469 C 12.746094 17.289062 12.511719 17.324219 12.273438 17.335938 C 11.820312 17.363281 11.367188 17.335938 10.921875 17.246094 C 10.015625 17.0625 9.144531 16.667969 8.445312 16.058594 C 7.148438 14.9375 6.59375 13.140625 6.964844 11.519531 C 7.351562 9.828125 8.636719 8.410156 10.214844 7.675781 C 11.855469 6.910156 13.738281 7.15625 15.238281 8.203125 C 16.800781 9.289062 17.898438 11.152344 17.53125 13.09375 C 17.1875 14.917969 15.929688 16.425781 14.335938 17.273438 C 12.640625 18.175781 10.417969 18.304688 8.808594 17.085938 C 7.351562 15.988281 6.496094 14.074219 6.402344 12.292969 C 6.316406 10.585938 6.886719 8.71875 8.074219 7.453125 C 8.6875 6.792969 9.488281 6.335938 10.371094 6.148438 C 11.226562 5.957031 12.402344 5.863281 13.121094 6.46875 C 13.101562 6.453125 13.265625 6.613281 13.214844 6.554688 C 13.160156 6.492188 13.238281 6.484375 13.210938 6.558594 C 13.246094 6.460938 13.253906 6.332031 13.371094 6.273438 C 13.476562 6.214844 13.527344 6.207031 13.632812 6.273438 C 13.699219 6.324219 13.753906 6.394531 13.78125 6.472656 C 13.824219 6.566406 13.785156 6.515625 13.777344 6.4375 L 12.601562 6.597656 L 12.691406 6.816406 L 13.695312 6.234375 C 12.878906 5.535156 11.644531 5.273438 10.589844 5.371094 C 9.527344 5.460938 8.601562 5.984375 7.882812 6.761719 C 6.507812 8.246094 5.71875 10.375 5.867188 12.394531 C 6.003906 14.234375 6.808594 16.175781 8.242188 17.378906 C 9.019531 18.039062 9.972656 18.449219 10.984375 18.5625 C 11.953125 18.671875 12.96875 18.503906 13.871094 18.148438 C 15.683594 17.445312 17.105469 15.996094 17.773438 14.171875 C 18.105469 13.273438 18.183594 12.304688 18 11.367188 C 17.816406 10.449219 17.347656 9.613281 16.746094 8.902344 C 15.40625 7.320312 13.320312 6.433594 11.261719 6.898438 C 9.433594 7.308594 7.726562 8.671875 6.945312 10.382812 C 6.164062 12.101562 6.289062 14.144531 7.398438 15.695312 C 8.527344 17.273438 10.535156 18.296875 12.488281 18.179688 C 12.984375 18.152344 13.46875 18.046875 13.929688 17.867188 C 14.234375 17.746094 14.445312 17.464844 14.351562 17.128906 C 14.273438 16.84375 13.914062 16.589844 13.613281 16.710938 Z M 13.613281 16.710938 "/>
</g>
</defs>
<g id="surface1">
<use xlink:href="#surface5" mask="url(#mask0)"/>
<path style=" stroke:none;fill-rule:nonzero;fill:rgb(86.666667%,18.431373%,0%);fill-opacity:1;" d="M 11.527344 10.320312 L 13.824219 10.320312 C 14.027344 10.320312 13.84375 9.957031 13.800781 9.894531 C 13.691406 9.730469 13.507812 9.550781 13.296875 9.550781 L 11.003906 9.550781 C 10.796875 9.550781 10.980469 9.914062 11.027344 9.976562 C 11.136719 10.140625 11.316406 10.324219 11.527344 10.324219 Z M 11.527344 10.320312 "/>
<path style=" stroke:none;fill-rule:nonzero;fill:rgb(86.666667%,18.431373%,0%);fill-opacity:1;" d="M 12.988281 9.667969 L 11.054688 11.1875 C 10.773438 11.410156 11.234375 12.238281 11.476562 12.050781 L 13.40625 10.53125 C 13.691406 10.308594 13.226562 9.480469 12.988281 9.667969 Z M 12.988281 9.667969 "/>
<path style=" stroke:none;fill-rule:nonzero;fill:rgb(86.666667%,18.431373%,0%);fill-opacity:1;" d="M 12.144531 11.738281 C 12.121094 11.832031 11.75 11.753906 11.957031 11.769531 C 12.007812 11.773438 12.058594 11.773438 12.113281 11.78125 C 12.226562 11.792969 12.339844 11.820312 12.449219 11.859375 C 12.667969 11.929688 12.871094 12.042969 13.046875 12.195312 C 13.414062 12.507812 13.558594 12.949219 13.503906 13.421875 C 13.441406 13.9375 13.167969 14.339844 12.6875 14.550781 C 12.542969 14.613281 12.292969 14.589844 12.089844 14.550781 C 11.800781 14.492188 11.527344 14.371094 11.289062 14.199219 C 11.160156 14.109375 10.828125 14.230469 10.699219 14.273438 C 10.648438 14.285156 10.300781 14.402344 10.402344 14.472656 C 10.945312 14.859375 11.621094 14.945312 12.269531 14.847656 C 12.90625 14.753906 13.65625 14.527344 14.09375 14.027344 C 14.441406 13.632812 14.558594 12.941406 14.347656 12.457031 C 14.136719 11.976562 13.640625 11.648438 13.140625 11.53125 C 12.808594 11.457031 12.464844 11.453125 12.132812 11.515625 C 11.859375 11.5625 11.289062 11.644531 11.207031 11.96875 C 11.1875 12.046875 11.664062 11.960938 11.699219 11.953125 C 11.808594 11.925781 12.105469 11.875 12.140625 11.738281 Z M 12.144531 11.738281 "/>
<use xlink:href="#surface8" mask="url(#mask1)"/>
<path style=" stroke:none;fill-rule:nonzero;fill:rgb(86.666667%,18.431373%,0%);fill-opacity:1;" d="M 13.773438 17.289062 C 12.289062 17.902344 10.558594 17.503906 9.246094 16.65625 C 7.789062 15.714844 6.925781 14.078125 7.042969 12.328125 C 7.164062 10.546875 8.320312 9.003906 9.832031 8.117188 C 10.640625 7.640625 11.539062 7.347656 12.484375 7.363281 C 13.375 7.375 14.230469 7.664062 14.972656 8.144531 C 16.558594 9.171875 17.730469 10.945312 17.46875 12.886719 C 17.226562 14.703125 16.011719 16.378906 14.410156 17.246094 C 12.867188 18.078125 10.871094 18.324219 9.308594 17.40625 C 7.777344 16.507812 6.855469 14.742188 6.550781 13.039062 C 6.222656 11.207031 6.734375 9.339844 7.789062 7.828125 C 8.289062 7.109375 8.941406 6.464844 9.769531 6.148438 C 10.558594 5.84375 11.46875 5.929688 12.269531 6.144531 C 12.628906 6.238281 12.992188 6.402344 13.269531 6.652344 L 13.179688 6.433594 L 13.1875 6.535156 C 13.195312 6.929688 13.8125 6.929688 13.804688 6.535156 C 13.796875 6.308594 13.71875 6.191406 13.546875 6.042969 C 13.363281 5.886719 13.15625 5.761719 12.933594 5.671875 C 12.480469 5.488281 11.992188 5.398438 11.503906 5.414062 C 10.597656 5.429688 9.636719 5.632812 8.847656 6.078125 C 7.078125 7.070312 6.0625 9.1875 5.839844 11.140625 C 5.605469 13.171875 6.296875 15.316406 7.664062 16.832031 C 8.328125 17.574219 9.171875 18.140625 10.136719 18.398438 C 11.085938 18.652344 12.089844 18.632812 13.042969 18.398438 C 15.035156 17.914062 16.769531 16.515625 17.652344 14.65625 C 18.101562 13.699219 18.304688 12.648438 18.15625 11.597656 C 18 10.476562 17.4375 9.515625 16.683594 8.6875 C 15.273438 7.132812 13.199219 6.273438 11.113281 6.746094 C 9.070312 7.207031 7.285156 8.796875 6.566406 10.753906 C 5.871094 12.65625 6.371094 14.9375 7.851562 16.332031 C 9.140625 17.542969 11.015625 18.148438 12.765625 17.882812 C 13.152344 17.824219 13.527344 17.710938 13.882812 17.546875 C 14.027344 17.480469 13.921875 17.226562 13.773438 17.285156 Z M 13.773438 17.289062 "/>
</g>
</svg>
