<?xml version="1.0" encoding="UTF-8"?>
<svg xmlns="http://www.w3.org/2000/svg" xmlns:xlink="http://www.w3.org/1999/xlink" width="24px" height="24px" viewBox="0 0 24 24" version="1.1">
<defs>
<filter id="alpha" filterUnits="objectBoundingBox" x="0%" y="0%" width="100%" height="100%">
  <feColorMatrix type="matrix" in="SourceGraphic" values="0 0 0 0 1 0 0 0 0 1 0 0 0 0 1 0 0 0 1 0"/>
</filter>
<mask id="mask0">
  <g filter="url(#alpha)">
<rect x="0" y="0" width="24" height="24" style="fill:rgb(0%,0%,0%);fill-opacity:0.768627;stroke:none;"/>
  </g>
</mask>
<clipPath id="clip1">
  <rect x="0" y="0" width="24" height="24"/>
</clipPath>
<g id="surface5" clip-path="url(#clip1)">
<path style=" stroke:none;fill-rule:nonzero;fill:rgb(86.666667%,18.431373%,0%);fill-opacity:1;" d="M 10.554688 15.054688 C 10.527344 15.054688 10.5 15.054688 10.46875 15.050781 C 10.195312 15.019531 10.109375 14.851562 10.082031 14.78125 C 10.058594 14.710938 10.023438 14.523438 10.222656 14.328125 C 10.699219 13.871094 11.136719 13.375 11.535156 12.847656 L 11.574219 12.792969 C 11.933594 12.3125 12.34375 11.773438 12.523438 11.21875 C 12.609375 10.96875 12.605469 10.726562 12.515625 10.550781 C 12.449219 10.421875 12.328125 10.324219 12.1875 10.285156 C 12.15625 10.273438 12.121094 10.269531 12.089844 10.265625 C 11.996094 10.378906 11.945312 10.519531 11.9375 10.667969 C 11.921875 11.066406 11.324219 11.269531 10.996094 11.269531 C 10.824219 11.269531 10.695312 11.222656 10.605469 11.128906 C 10.53125 11.054688 10.492188 10.953125 10.5 10.847656 C 10.53125 9.972656 11.402344 9.351562 12.226562 9.25 C 12.304688 9.242188 12.382812 9.238281 12.464844 9.238281 C 13.117188 9.238281 13.847656 9.558594 14.007812 10.277344 C 14.195312 11.132812 13.597656 11.976562 13.160156 12.59375 C 13.125 12.644531 13.09375 12.6875 13.0625 12.730469 C 12.550781 13.460938 11.964844 14.140625 11.320312 14.757812 C 11.144531 14.933594 10.828125 15.054688 10.554688 15.054688 Z M 10.554688 15.054688 "/>
<path style=" stroke:none;fill-rule:nonzero;fill:rgb(100%,100%,100%);fill-opacity:1;" d="M 12.464844 9.5 C 13.011719 9.5 13.621094 9.753906 13.75 10.335938 C 13.925781 11.132812 13.273438 11.96875 12.847656 12.582031 C 12.34375 13.296875 11.773438 13.960938 11.140625 14.566406 C 11.003906 14.699219 10.753906 14.789062 10.554688 14.789062 C 10.535156 14.789062 10.515625 14.789062 10.496094 14.789062 C 10.3125 14.769531 10.273438 14.648438 10.40625 14.519531 C 10.890625 14.050781 11.339844 13.546875 11.746094 13.007812 C 12.128906 12.496094 12.570312 11.917969 12.777344 11.304688 C 12.945312 10.789062 12.832031 10.21875 12.265625 10.035156 C 12.175781 10.007812 12.082031 9.996094 11.984375 9.992188 L 12 9.980469 C 12.015625 9.980469 12.027344 9.964844 12.023438 9.964844 C 12.015625 9.96875 12.007812 9.976562 12 9.980469 L 11.992188 9.980469 C 11.984375 9.980469 11.976562 9.980469 11.972656 9.976562 C 11.984375 9.984375 11.96875 9.984375 11.949219 9.984375 L 11.902344 9.984375 C 11.902344 9.984375 11.914062 9.984375 11.976562 9.992188 L 11.988281 9.992188 C 11.980469 10 11.96875 10.007812 11.957031 10.019531 C 11.789062 10.191406 11.6875 10.417969 11.675781 10.660156 C 11.667969 10.839844 11.265625 11.007812 10.996094 11.007812 C 10.863281 11.007812 10.761719 10.964844 10.765625 10.859375 C 10.792969 10.101562 11.585938 9.597656 12.261719 9.515625 C 12.328125 9.507812 12.398438 9.5 12.464844 9.503906 M 12.464844 8.972656 C 12.378906 8.972656 12.289062 8.980469 12.199219 8.988281 C 11.738281 9.050781 11.300781 9.234375 10.9375 9.523438 C 10.507812 9.871094 10.253906 10.335938 10.238281 10.839844 C 10.230469 11.015625 10.292969 11.1875 10.417969 11.3125 C 10.511719 11.414062 10.691406 11.535156 10.996094 11.535156 C 11.40625 11.535156 12.179688 11.285156 12.203125 10.679688 C 12.203125 10.648438 12.207031 10.621094 12.214844 10.589844 C 12.246094 10.613281 12.265625 10.640625 12.28125 10.671875 C 12.339844 10.78125 12.335938 10.960938 12.277344 11.136719 C 12.109375 11.648438 11.714844 12.171875 11.363281 12.636719 L 11.324219 12.691406 C 10.933594 13.207031 10.503906 13.691406 10.039062 14.140625 C 9.824219 14.347656 9.75 14.621094 9.835938 14.867188 C 9.917969 15.117188 10.148438 15.28125 10.445312 15.3125 C 10.480469 15.316406 10.519531 15.320312 10.558594 15.320312 C 10.894531 15.320312 11.277344 15.171875 11.507812 14.949219 C 12.164062 14.320312 12.757812 13.628906 13.285156 12.882812 L 13.378906 12.75 C 13.84375 12.089844 14.480469 11.1875 14.269531 10.222656 C 14.074219 9.359375 13.226562 8.976562 12.46875 8.976562 Z M 12.464844 8.972656 "/>
<path style=" stroke:none;fill-rule:nonzero;fill:rgb(86.666667%,18.431373%,0%);fill-opacity:1;" d="M 10.957031 15.121094 C 10.660156 15.121094 10.363281 14.910156 10.183594 14.710938 C 10.140625 14.664062 9.929688 14.410156 10.039062 14.171875 C 10.066406 14.109375 10.15625 13.964844 10.386719 13.964844 L 13.332031 13.964844 C 13.628906 13.964844 13.925781 14.175781 14.101562 14.375 C 14.148438 14.421875 14.359375 14.679688 14.25 14.917969 C 14.222656 14.980469 14.132812 15.121094 13.902344 15.121094 Z M 10.957031 15.121094 "/>
<path style=" stroke:none;fill-rule:nonzero;fill:rgb(100%,100%,100%);fill-opacity:1;" d="M 13.332031 14.230469 C 13.539062 14.230469 13.773438 14.40625 13.90625 14.550781 C 13.980469 14.636719 14.113281 14.859375 13.902344 14.859375 L 10.957031 14.859375 C 10.75 14.859375 10.511719 14.683594 10.382812 14.535156 C 10.304688 14.453125 10.175781 14.230469 10.386719 14.230469 L 13.332031 14.230469 M 13.332031 13.699219 L 10.386719 13.699219 C 10.117188 13.699219 9.898438 13.835938 9.796875 14.0625 C 9.742188 14.183594 9.699219 14.382812 9.820312 14.636719 C 9.863281 14.730469 9.921875 14.816406 9.988281 14.890625 C 10.402344 15.351562 10.835938 15.386719 10.957031 15.386719 L 13.902344 15.386719 C 14.167969 15.386719 14.390625 15.253906 14.492188 15.027344 C 14.546875 14.902344 14.585938 14.703125 14.464844 14.449219 C 14.421875 14.359375 14.367188 14.273438 14.300781 14.199219 C 13.886719 13.738281 13.453125 13.699219 13.332031 13.699219 Z M 13.332031 13.699219 "/>
</g>
<mask id="mask1">
  <g filter="url(#alpha)">
<rect x="0" y="0" width="24" height="24" style="fill:rgb(0%,0%,0%);fill-opacity:0.768627;stroke:none;"/>
  </g>
</mask>
<clipPath id="clip2">
  <rect x="0" y="0" width="24" height="24"/>
</clipPath>
<g id="surface8" clip-path="url(#clip2)">
<path style=" stroke:none;fill-rule:nonzero;fill:rgb(86.666667%,18.431373%,0%);fill-opacity:1;" d="M 13.773438 17.289062 C 12.289062 17.902344 10.558594 17.503906 9.246094 16.65625 C 7.789062 15.714844 6.925781 14.078125 7.042969 12.328125 C 7.164062 10.546875 8.320312 9.003906 9.832031 8.117188 C 10.640625 7.640625 11.539062 7.347656 12.484375 7.363281 C 13.375 7.375 14.230469 7.664062 14.972656 8.144531 C 16.558594 9.171875 17.730469 10.945312 17.46875 12.886719 C 17.226562 14.703125 16.011719 16.378906 14.410156 17.246094 C 12.867188 18.078125 10.871094 18.324219 9.308594 17.40625 C 7.777344 16.507812 6.855469 14.742188 6.550781 13.039062 C 6.222656 11.207031 6.734375 9.339844 7.789062 7.828125 C 8.289062 7.109375 8.941406 6.464844 9.769531 6.148438 C 10.558594 5.84375 11.46875 5.929688 12.269531 6.144531 C 12.628906 6.238281 12.992188 6.402344 13.269531 6.652344 L 13.179688 6.433594 L 13.1875 6.535156 C 13.195312 6.929688 13.8125 6.929688 13.804688 6.535156 C 13.796875 6.308594 13.71875 6.191406 13.546875 6.042969 C 13.363281 5.886719 13.15625 5.761719 12.933594 5.671875 C 12.480469 5.488281 11.992188 5.398438 11.503906 5.414062 C 10.597656 5.429688 9.636719 5.632812 8.847656 6.078125 C 7.078125 7.070312 6.0625 9.1875 5.839844 11.140625 C 5.605469 13.171875 6.296875 15.316406 7.664062 16.832031 C 8.328125 17.574219 9.171875 18.140625 10.136719 18.398438 C 11.085938 18.652344 12.089844 18.632812 13.042969 18.398438 C 15.035156 17.914062 16.769531 16.515625 17.652344 14.65625 C 18.101562 13.699219 18.304688 12.648438 18.15625 11.597656 C 18 10.476562 17.4375 9.515625 16.683594 8.6875 C 15.273438 7.132812 13.199219 6.273438 11.113281 6.746094 C 9.070312 7.207031 7.285156 8.796875 6.566406 10.753906 C 5.871094 12.65625 6.371094 14.9375 7.851562 16.332031 C 9.140625 17.542969 11.015625 18.148438 12.765625 17.882812 C 13.152344 17.824219 13.527344 17.710938 13.882812 17.546875 C 14.027344 17.480469 13.921875 17.226562 13.773438 17.285156 Z M 13.773438 17.289062 "/>
<path style=" stroke:none;fill-rule:nonzero;fill:rgb(100%,100%,100%);fill-opacity:1;" d="M 13.613281 16.710938 C 12.132812 17.300781 10.339844 16.855469 9.152344 15.847656 C 8.589844 15.367188 8.136719 14.753906 7.894531 14.09375 C 7.640625 13.394531 7.5625 12.652344 7.691406 11.957031 C 7.96875 10.46875 8.996094 9.253906 10.316406 8.535156 C 11.082031 8.117188 11.941406 7.898438 12.816406 7.980469 C 13.617188 8.058594 14.410156 8.4375 15.019531 8.90625 C 16.230469 9.835938 17.035156 11.226562 16.890625 12.742188 C 16.753906 14.171875 15.800781 15.613281 14.601562 16.429688 C 13.292969 17.316406 11.515625 17.722656 10.03125 17.101562 C 8.625 16.515625 7.730469 15.085938 7.320312 13.675781 C 6.84375 12.046875 7.046875 10.34375 7.859375 8.855469 C 8.238281 8.164062 8.726562 7.476562 9.375 7.035156 C 10.089844 6.550781 10.902344 6.460938 11.746094 6.636719 C 12.132812 6.714844 12.542969 6.816406 12.851562 7.078125 C 13.054688 7.253906 13.335938 7.3125 13.578125 7.175781 C 13.789062 7.050781 13.953125 6.738281 13.855469 6.496094 L 13.761719 6.277344 C 13.648438 6 13.421875 5.796875 13.105469 5.84375 C 12.828125 5.886719 12.558594 6.132812 12.582031 6.433594 C 12.605469 6.722656 12.652344 6.980469 12.878906 7.1875 C 13.117188 7.40625 13.453125 7.484375 13.765625 7.394531 C 14.417969 7.199219 14.574219 6.414062 14.210938 5.882812 C 13.84375 5.355469 13.136719 5.046875 12.523438 4.914062 C 11.839844 4.769531 11.148438 4.804688 10.460938 4.910156 C 9.296875 5.085938 8.214844 5.625 7.375 6.453125 C 6.582031 7.238281 6.019531 8.238281 5.652344 9.289062 C 4.882812 11.511719 5.125 13.960938 6.3125 15.992188 C 6.910156 17.007812 7.746094 17.917969 8.78125 18.488281 C 9.976562 19.148438 11.347656 19.292969 12.683594 19.082031 C 14.886719 18.734375 16.894531 17.285156 17.976562 15.339844 C 18.636719 14.148438 18.933594 12.792969 18.738281 11.4375 C 18.5625 10.230469 17.921875 9.152344 17.113281 8.261719 C 15.519531 6.507812 13.078125 5.597656 10.75 6.214844 C 8.597656 6.785156 6.804688 8.457031 6.015625 10.523438 C 5.222656 12.605469 5.78125 15.152344 7.382812 16.703125 C 8.226562 17.515625 9.273438 18.089844 10.414062 18.363281 C 11.609375 18.644531 12.988281 18.648438 14.105469 18.101562 C 14.910156 17.710938 14.488281 16.515625 13.613281 16.707031 C 13.296875 16.777344 13.109375 17.148438 13.191406 17.445312 C 13.28125 17.773438 13.613281 17.9375 13.929688 17.867188 L 13.972656 17.855469 L 13.65625 17.855469 L 13.398438 17.21875 L 13.613281 17.003906 C 13.4375 17.128906 13.183594 17.179688 12.972656 17.230469 C 12.746094 17.289062 12.511719 17.324219 12.273438 17.335938 C 11.820312 17.363281 11.367188 17.335938 10.921875 17.246094 C 10.015625 17.0625 9.144531 16.667969 8.445312 16.058594 C 7.148438 14.9375 6.59375 13.140625 6.964844 11.519531 C 7.351562 9.828125 8.636719 8.410156 10.214844 7.675781 C 11.855469 6.910156 13.738281 7.15625 15.238281 8.203125 C 16.800781 9.289062 17.898438 11.152344 17.53125 13.09375 C 17.1875 14.917969 15.929688 16.425781 14.335938 17.273438 C 12.640625 18.175781 10.417969 18.304688 8.808594 17.085938 C 7.351562 15.988281 6.496094 14.074219 6.402344 12.292969 C 6.316406 10.585938 6.886719 8.71875 8.074219 7.453125 C 8.6875 6.792969 9.488281 6.335938 10.371094 6.148438 C 11.226562 5.957031 12.402344 5.863281 13.121094 6.46875 C 13.101562 6.453125 13.265625 6.613281 13.214844 6.554688 C 13.160156 6.492188 13.238281 6.484375 13.210938 6.558594 C 13.246094 6.460938 13.253906 6.332031 13.371094 6.273438 C 13.476562 6.214844 13.527344 6.207031 13.632812 6.273438 C 13.699219 6.324219 13.753906 6.394531 13.78125 6.472656 C 13.824219 6.566406 13.785156 6.515625 13.777344 6.4375 L 12.601562 6.597656 L 12.691406 6.816406 L 13.695312 6.234375 C 12.878906 5.535156 11.644531 5.273438 10.589844 5.371094 C 9.527344 5.460938 8.601562 5.984375 7.882812 6.761719 C 6.507812 8.246094 5.71875 10.375 5.867188 12.394531 C 6.003906 14.234375 6.808594 16.175781 8.242188 17.378906 C 9.019531 18.039062 9.972656 18.449219 10.984375 18.5625 C 11.953125 18.671875 12.96875 18.503906 13.871094 18.148438 C 15.683594 17.445312 17.105469 15.996094 17.773438 14.171875 C 18.105469 13.273438 18.183594 12.304688 18 11.367188 C 17.816406 10.449219 17.347656 9.613281 16.746094 8.902344 C 15.40625 7.320312 13.320312 6.433594 11.261719 6.898438 C 9.433594 7.308594 7.726562 8.671875 6.945312 10.382812 C 6.164062 12.101562 6.289062 14.144531 7.398438 15.695312 C 8.527344 17.273438 10.535156 18.296875 12.488281 18.179688 C 12.984375 18.152344 13.46875 18.046875 13.929688 17.867188 C 14.234375 17.746094 14.445312 17.464844 14.351562 17.128906 C 14.273438 16.84375 13.914062 16.589844 13.613281 16.710938 Z M 13.613281 16.710938 "/>
</g>
</defs>
<g id="surface1">
<use xlink:href="#surface5" mask="url(#mask0)"/>
<path style=" stroke:none;fill-rule:nonzero;fill:rgb(86.666667%,18.431373%,0%);fill-opacity:1;" d="M 11.671875 10.660156 C 11.683594 10.417969 11.785156 10.191406 11.957031 10.019531 C 12.066406 9.910156 12.023438 10 11.972656 9.976562 C 12.011719 9.996094 11.789062 9.96875 11.972656 9.988281 C 12.070312 9.992188 12.171875 10.007812 12.265625 10.03125 C 12.832031 10.214844 12.945312 10.789062 12.773438 11.300781 C 12.570312 11.917969 12.128906 12.492188 11.746094 13.007812 C 11.339844 13.546875 10.890625 14.050781 10.40625 14.519531 C 10.273438 14.648438 10.308594 14.769531 10.496094 14.789062 C 10.730469 14.800781 10.960938 14.722656 11.140625 14.566406 C 11.769531 13.960938 12.34375 13.296875 12.847656 12.582031 C 13.273438 11.96875 13.925781 11.132812 13.75 10.335938 C 13.605469 9.679688 12.851562 9.441406 12.261719 9.511719 C 11.582031 9.59375 10.789062 10.101562 10.761719 10.855469 C 10.75 11.171875 11.664062 10.929688 11.675781 10.660156 Z M 11.671875 10.660156 "/>
<path style=" stroke:none;fill-rule:nonzero;fill:rgb(86.666667%,18.431373%,0%);fill-opacity:1;" d="M 10.957031 14.859375 L 13.902344 14.859375 C 14.113281 14.859375 13.980469 14.636719 13.90625 14.550781 C 13.773438 14.40625 13.539062 14.230469 13.332031 14.230469 L 10.386719 14.230469 C 10.175781 14.230469 10.304688 14.453125 10.382812 14.535156 C 10.511719 14.679688 10.75 14.859375 10.957031 14.859375 Z M 10.957031 14.859375 "/>
<use xlink:href="#surface8" mask="url(#mask1)"/>
<path style=" stroke:none;fill-rule:nonzero;fill:rgb(86.666667%,18.431373%,0%);fill-opacity:1;" d="M 13.773438 17.289062 C 12.289062 17.902344 10.558594 17.503906 9.246094 16.65625 C 7.789062 15.714844 6.925781 14.078125 7.042969 12.328125 C 7.164062 10.546875 8.320312 9.003906 9.832031 8.117188 C 10.640625 7.640625 11.539062 7.347656 12.484375 7.363281 C 13.375 7.375 14.230469 7.664062 14.972656 8.144531 C 16.558594 9.171875 17.730469 10.945312 17.46875 12.886719 C 17.226562 14.703125 16.011719 16.378906 14.410156 17.246094 C 12.867188 18.078125 10.871094 18.324219 9.308594 17.40625 C 7.777344 16.507812 6.855469 14.742188 6.550781 13.039062 C 6.222656 11.207031 6.734375 9.339844 7.789062 7.828125 C 8.289062 7.109375 8.941406 6.464844 9.769531 6.148438 C 10.558594 5.84375 11.46875 5.929688 12.269531 6.144531 C 12.628906 6.238281 12.992188 6.402344 13.269531 6.652344 L 13.179688 6.433594 L 13.1875 6.535156 C 13.195312 6.929688 13.8125 6.929688 13.804688 6.535156 C 13.796875 6.308594 13.71875 6.191406 13.546875 6.042969 C 13.363281 5.886719 13.15625 5.761719 12.933594 5.671875 C 12.480469 5.488281 11.992188 5.398438 11.503906 5.414062 C 10.597656 5.429688 9.636719 5.632812 8.847656 6.078125 C 7.078125 7.070312 6.0625 9.1875 5.839844 11.140625 C 5.605469 13.171875 6.296875 15.316406 7.664062 16.832031 C 8.328125 17.574219 9.171875 18.140625 10.136719 18.398438 C 11.085938 18.652344 12.089844 18.632812 13.042969 18.398438 C 15.035156 17.914062 16.769531 16.515625 17.652344 14.65625 C 18.101562 13.699219 18.304688 12.648438 18.15625 11.597656 C 18 10.476562 17.4375 9.515625 16.683594 8.6875 C 15.273438 7.132812 13.199219 6.273438 11.113281 6.746094 C 9.070312 7.207031 7.285156 8.796875 6.566406 10.753906 C 5.871094 12.65625 6.371094 14.9375 7.851562 16.332031 C 9.140625 17.542969 11.015625 18.148438 12.765625 17.882812 C 13.152344 17.824219 13.527344 17.710938 13.882812 17.546875 C 14.027344 17.480469 13.921875 17.226562 13.773438 17.285156 Z M 13.773438 17.289062 "/>
</g>
</svg>
