<svg data-name="Layer 1" xmlns="http://www.w3.org/2000/svg" width="500" height="500">
  <g opacity=".77">
    <path d="M465.3 241.11l-79-45.62c-12.58-7.26-31.67 10.45-17.71 18.51L414 240.24l-327.4-2.16c-14.19-.72-28.66-1-42.82.49-9.22 1-18.8 24.89-9.42 23.91a304.6 304.6 0 0 1 36.06-1.61l347.65-2.39-48.24 27c-14.94 8.35 0 26.69 13.94 18.88l79.65-44.53c6.03-3.4 9.08-14.57 1.88-18.72z" fill="#dd2f00"/>
    <path d="M471.61 230.31l-53.26-30.74c-8.84-5.1-17.56-10.88-26.73-15.37a27.45 27.45 0 0 0-23.14-.49c-14.12 5.95-23.9 23.92-11.67 36.81 6.2 6.55 16.23 10.5 24 15L407.72 251l6.28-23.26-40.41-.27-93.51-.61-105-.7-75-.49c-4.43 0-8.86 0-13.28-.09-13.7-.36-27.34-1.07-41 .29-6.9.69-12.51 2.69-17.29 8a43.16 43.16 0 0 0-8.88 15.46c-1.75 5.3-2.22 11.21.07 16.39 3.42 7.76 10.72 9.64 18.52 8.92 10.88-1 21.75-1.25 32.67-1.25 4.68 0 9.35-.06 14-.09l73.52-.51 104.36-.71 98-.67 54.75-.38h2.59l-6.31-23.29-25 14c-8.08 4.52-16.7 8.62-24.43 13.72-14.74 9.74-14.4 30.05.62 39.41 16.41 10.22 32.8-2.85 47-10.79l51.08-28.56c8.67-4.85 16.5-9.1 19.74-19.15s-.55-20.16-9.2-26c-5.6-3.76-13.84-1.08-17.1 4.49-3.59 6.14-1.13 13.33 4.49 17.1-1.4-.94-1.58-1.89-2-3.39-.05 1.3 0 1.49 0 .57s0-.73-.29.56c.53-1.22.46-1.19-.23.09q1.27-1.53-.18 0l.82-.72-3.47 1.93-24.25 13.49-46.75 26.14c-1.63.91-3.75 1.7-5.19 2.9 1-.31.87-.25-.51.17 1.4-.05 1.36-.05-.11 0-1.3-.07-1.47-.06-.52 0s.8 0-.43-.24c1.34.64 1.39.62.13 0-1-.68-1.14-.75-.38-.23s.66.43-.21-.37c.91 1.26 1 1.31.26.15.57 1.56.65 1.68.23.36l.2 1.49c.34-2.32-1.21 2-1.37 2.52.92-.85 1.09-1.06.5-.63s-.37.28.89-.52c16.2-8.77 32.17-18 48.24-27 10.86-6.07 6-23.38-6.31-23.3l-36.86.25-87.62.61-104.43.71-85.66.59c-14.83.1-29.7-.06-44.52.28q-6.18.14-12.35.53-2.84.18-5.67.41c-1.84.15-5.36-.15-6.94.63-.78.39 6 2.46 6.47 2.9-.29-.29 2.81 5.3 2.3 3.85a10.92 10.92 0 0 1 .1 1.84c.42.51-.4 1.31 0 0 .18-.55.3-1.18.45-1.75s.32-.9.45-1.36c.48-1.65-.94 1.82-.11.23.47-.91.91-1.82 1.44-2.7s2.31-2.94.64-1.15c.64-.68 1.3-1.34 1.95-2-.11.11-1.93 1.16-.81.68 1.36-.6-1.91 1.13-.88.29.65-.53-1.58.13.64-.05l2.91-.24c1.94-.14 3.89-.25 5.83-.33 4.6-.15 9.13-.15 13.68-.15 8.26.07 16.49.56 24.74.61l65.1.43 100.37.67 97.07.64 55 .36h2.65c12.38.08 17-17.11 6.31-23.29l-42.1-24.3-3.37-2c-1.13-.73-1.31-.83-.53-.31.08-.62 2.15 4.11 1.66 2.46-.4-1.37-.29 5 .12 2.24-.29 1.95-1 1.11.31-.13-2.5 2.35.38-.15.59-.29-2.51 1.68.43-.13.75-.35 1.81-1.25-1.3-.2.79-.32 2.42-.14-2-.75 1.23-.21.95 0 .69 0-.77-.21a8.74 8.74 0 0 1 1.5.4c.85.27.66.21-.56-.2l3.44 2 10.31 5.95 21.47 12.39L459 251.9c14 8.1 26.56-13.54 12.61-21.59z" fill="#fff"/>
  </g>
  <path d="M465.3 241.11l-79-45.62c-12.58-7.26-31.67 10.45-17.71 18.51L414 240.24l-327.4-2.16c-14.19-.72-28.66-1-42.82.49-9.22 1-18.8 24.89-9.42 23.91a304.6 304.6 0 0 1 36.06-1.61l347.65-2.39-48.24 27c-14.94 8.35 0 26.69 13.94 18.88l79.65-44.53c6.03-3.4 9.08-14.57 1.88-18.72z" fill="#dd2f00"/>
</svg>
