<svg data-name="Layer 1" xmlns="http://www.w3.org/2000/svg" width="500" height="500">
  <g opacity=".77">
    <path d="M427.58 99.38l-81.65-40.76c-13-6.49-31 12.34-16.55 19.54l47 23.45C283 104.22 188.48 131.1 129.1 207.89c-39.18 50.67-57.54 115.42-60.75 178.75-.72 14.18-1 28.66.49 42.81 1 9.22 24.89 18.8 23.91 9.42-11-104.82 33.51-221.42 125.81-276.61 49.2-29.42 106.22-40.52 162.93-42.69L335 149.41c-14.41 9.24 1.58 26.64 15.05 18l76.82-49.26c5.77-3.73 8.13-15.07.71-18.77z" fill="#dd2f00"/>
    <path d="M433.89 88.58l-55-27.46c-9.18-4.59-18.26-9.51-27.61-13.73a27.55 27.55 0 0 0-24.14.65c-13.4 6.63-21.66 24.78-9.63 36.83 3.07 3.08 7 4.78 10.8 6.69l13.91 7L370 112.4l6.31-23.29c-68.81 2-140 16.52-197.76 55.7A259.71 259.71 0 0 0 103.47 223C83.26 255.56 70 292.45 62.71 330a408.75 408.75 0 0 0-6.91 57.62 307.5 307.5 0 0 0-.16 33.12c.53 9.19 1.14 17.08 8.11 23.76 9.63 9.25 31 17.39 39.6 2.53 4-6.91 1-17.5.61-25.08q-.57-11.74-.23-23.5c1.74-61.77 22.81-126 62.17-173.94a228.21 228.21 0 0 1 76-60.76c34-17 72-25.93 109.79-29.65 9.91-1 19.85-1.62 29.8-2l-6.31-23.29-24.93 16c-8 5.12-16.47 9.85-24 15.62-13.54 10.4-11.64 30.54 3.41 38.61 17.3 9.26 32.71-4.68 46.69-13.64l49.26-31.59c8.19-5.25 15.82-10 18.34-20.08 2.45-9.77-1.26-20-10.07-25.1-13.93-8.11-26.53 13.48-12.62 21.59-.38-.22-3.07-3.94-1.34-1.78-.15-1.42-.22-1.66-.21-.71s0 .72.13-.64q-.66 2.05.18.09a14.37 14.37 0 0 1-1.09 1.86c-.5-.63 4.6-3.45-.09-.56-7.89 4.83-15.59 10-23.38 15l-45.92 29.45c-1.94 1.24-4 2.39-5.85 3.74-2.13 1.56.61.11-1.55.71 1.44-.11 1.42-.14 0-.07 1.51.31 1.55.32.12 0-1.19-.39-1.34-.42-.48-.08s.73.28-.35-.29q1.69 1.5.15.1-1.43-1.56.12.26c-.69-2.49.35 2.31-.15-.47a4.49 4.49 0 0 1 0 2.94c.34-1.11.36-1.23.07-.35a2.33 2.33 0 0 1-.81 1.34c1-1 1.17-1.13.46-.51 8-4.29 15.59-10 23.26-14.92l23.27-14.91c9.94-6.38 6.65-23.81-6.31-23.3-74.11 3-149.56 21.41-206.26 71.66-47.45 42-78 101.93-90.14 163.67a325.2 325.2 0 0 0-5 94.36 14 14 0 0 0 .22 2.45c-.45-1.55 2.25-6.09 5-7.66 5.11-2.94-.34-.57 2.48-1.18l1-.15c-1-.05-1 0 .13.13.57-.47 1.29.44 0 0a16 16 0 0 0-1.75-.45c-.62-.16-1.21-.42-1.81-.62 2.74.93-.16-.13-.69-.41a34.27 34.27 0 0 1-3.46-2.14c1.91 1.34.08-.2-.71-.88-1.25-1.06 1 1.89.37.49s1.21 2 .29.87c-.53-.65.13 1.58 0-.64-.14-1.61-.27-3.23-.37-4.85-1.32-19.77-.18-39.77 2.03-59.33 7.86-69.67 36.9-138 91.62-183.51 49.14-40.84 114.76-58.82 177.41-63.56 8.15-.62 16.32-1 24.5-1.26 11.68-.34 17.92-17.49 6.3-23.29l-43.49-21.71-3.47-1.74c-1.14-.72-1.34-.78-.61-.2s.57.47-.26-.32a3.76 3.76 0 0 1 1.23 1.84 4.28 4.28 0 0 1 .5 2.47c0-1.37 0-1.08-.2.89.87-2.37-1.11 2.36.12-.22 1.14-2.39-1.52 1.53.41-.44s-1.92.8.61-.54c1-.53 2.7-1.21.69-.55a15.3 15.3 0 0 1 2-.58c-1.47.12-1.73.15-.79.09a11.31 11.31 0 0 1 1.54 0c-1.44-.25-1.7-.26-.78 0s.69.14-.49-.34l3.55 1.77 10.64 5.32L376 87.58l45.26 22.59c6 3 13.54 1.61 17.1-4.49 3.25-5.53 1.64-14.07-4.47-17.1z" fill="#fff"/>
  </g>
  <path d="M427.58 99.38l-81.65-40.76c-13-6.49-31 12.34-16.55 19.54l47 23.45C283 104.22 188.48 131.1 129.1 207.89c-39.18 50.67-57.54 115.42-60.75 178.75-.72 14.18-1 28.66.49 42.81 1 9.22 24.89 18.8 23.91 9.42-11-104.82 33.51-221.42 125.81-276.61 49.2-29.42 106.22-40.52 162.93-42.69L335 149.41c-14.41 9.24 1.58 26.64 15.05 18l76.82-49.26c5.77-3.73 8.13-15.07.71-18.77z" fill="#dd2f00"/>
</svg>
