<?xml version="1.0" encoding="UTF-8" standalone="no"?>
<!-- Generator: Adobe Illustrator 16.0.0, SVG Export Plug-In . SVG Version: 6.00 Build 0)  -->

<svg
   version="1.1"
   id="Capa_1"
   x="0px"
   y="0px"
   width="482.136px"
   height="482.135px"
   viewBox="0 0 482.136 482.135"
   style="enable-background:new 0 0 482.136 482.135;"
   xml:space="preserve"
   sodipodi:docname="link_24px.svg"
   inkscape:version="1.1 (c68e22c387, 2021-05-23)"
   xmlns:inkscape="http://www.inkscape.org/namespaces/inkscape"
   xmlns:sodipodi="http://sodipodi.sourceforge.net/DTD/sodipodi-0.dtd"
   xmlns="http://www.w3.org/2000/svg"
   xmlns:svg="http://www.w3.org/2000/svg"><defs
   id="defs39" /><sodipodi:namedview
   id="namedview37"
   pagecolor="#ffffff"
   bordercolor="#666666"
   borderopacity="1.0"
   inkscape:pageshadow="2"
   inkscape:pageopacity="0.0"
   inkscape:pagecheckerboard="0"
   showgrid="false"
   inkscape:zoom="1.7463988"
   inkscape:cx="241.35381"
   inkscape:cy="241.35381"
   inkscape:window-width="1920"
   inkscape:window-height="1027"
   inkscape:window-x="-8"
   inkscape:window-y="-8"
   inkscape:window-maximized="1"
   inkscape:current-layer="Capa_1" />
<g
   id="g4">
	<path
   d="M455.482,198.184L326.829,326.832c-35.535,35.54-93.108,35.54-128.646,0l-42.881-42.886l42.881-42.876l42.884,42.876   c11.845,11.822,31.064,11.846,42.886,0l128.644-128.643c11.816-11.831,11.816-31.066,0-42.9l-42.881-42.881   c-11.822-11.814-31.064-11.814-42.887,0l-45.928,45.936c-21.292-12.531-45.491-17.905-69.449-16.291l72.501-72.526   c35.535-35.521,93.136-35.521,128.644,0l42.886,42.881C491.018,105.045,491.018,162.663,455.482,198.184z M201.206,366.698   l-45.903,45.9c-11.845,11.846-31.064,11.817-42.881,0l-42.884-42.881c-11.845-11.821-11.845-31.041,0-42.886l128.646-128.648   c11.819-11.814,31.069-11.814,42.884,0l42.886,42.886l42.876-42.886l-42.876-42.881c-35.54-35.521-93.113-35.521-128.65,0   L26.655,283.946c-35.538,35.545-35.538,93.146,0,128.652l42.883,42.882c35.51,35.54,93.11,35.54,128.646,0l72.496-72.499   C246.724,384.578,222.588,379.197,201.206,366.698z"
   id="path2" />
</g>
<g
   id="g6">
</g>
<g
   id="g8">
</g>
<g
   id="g10">
</g>
<g
   id="g12">
</g>
<g
   id="g14">
</g>
<g
   id="g16">
</g>
<g
   id="g18">
</g>
<g
   id="g20">
</g>
<g
   id="g22">
</g>
<g
   id="g24">
</g>
<g
   id="g26">
</g>
<g
   id="g28">
</g>
<g
   id="g30">
</g>
<g
   id="g32">
</g>
<g
   id="g34">
</g>
</svg>
