<?xml version="1.0" encoding="UTF-8"?>
<svg xmlns="http://www.w3.org/2000/svg" xmlns:xlink="http://www.w3.org/1999/xlink" width="24px" height="24px" viewBox="0 0 24 24" version="1.1">
<g id="surface1">
<path style=" stroke:none;fill-rule:nonzero;fill:rgb(0%,0%,0%);fill-opacity:1;" d="M 15 11 L 13 11 L 13 9 C 13 8.449219 12.550781 8 12 8 C 11.449219 8 11 8.449219 11 9 L 11 11 L 9 11 C 8.449219 11 8 11.449219 8 12 C 8 12.550781 8.449219 13 9 13 L 11 13 L 11 15 C 11 15.550781 11.449219 16 12 16 C 12.550781 16 13 15.550781 13 15 L 13 13 L 15 13 C 15.550781 13 16 12.550781 16 12 C 16 11.449219 15.550781 11 15 11 Z M 15 11 "/>
<path style=" stroke:none;fill-rule:nonzero;fill:rgb(0%,0%,0%);fill-opacity:1;" d="M 4 8 C 4.550781 8 5 7.550781 5 7 L 5 5 L 7 5 C 7.550781 5 8 4.550781 8 4 C 8 3.449219 7.550781 3 7 3 L 4 3 C 3.449219 3 3 3.449219 3 4 L 3 7 C 3 7.550781 3.449219 8 4 8 Z M 4 8 "/>
<path style=" stroke:none;fill-rule:nonzero;fill:rgb(0%,0%,0%);fill-opacity:1;" d="M 20 16 C 19.449219 16 19 16.449219 19 17 L 19 19 L 17 19 C 16.449219 19 16 19.449219 16 20 C 16 20.550781 16.449219 21 17 21 L 20 21 C 20.550781 21 21 20.550781 21 20 L 21 17 C 21 16.449219 20.550781 16 20 16 Z M 20 16 "/>
<path style=" stroke:none;fill-rule:nonzero;fill:rgb(0%,0%,0%);fill-opacity:1;" d="M 7 19 L 5 19 L 5 17 C 5 16.449219 4.550781 16 4 16 C 3.449219 16 3 16.449219 3 17 L 3 20 C 3 20.550781 3.449219 21 4 21 L 7 21 C 7.550781 21 8 20.550781 8 20 C 8 19.449219 7.550781 19 7 19 Z M 7 19 "/>
<path style=" stroke:none;fill-rule:nonzero;fill:rgb(0%,0%,0%);fill-opacity:1;" d="M 20 3 L 17 3 C 16.449219 3 16 3.449219 16 4 C 16 4.550781 16.449219 5 17 5 L 19 5 L 19 7 C 19 7.550781 19.449219 8 20 8 C 20.550781 8 21 7.550781 21 7 L 21 4 C 21 3.449219 20.550781 3 20 3 Z M 20 3 "/>
</g>
</svg>
