<?xml version="1.0" encoding="UTF-8"?>
<svg xmlns="http://www.w3.org/2000/svg" xmlns:xlink="http://www.w3.org/1999/xlink" width="24px" height="24px" viewBox="0 0 24 24" version="1.1">
<g id="surface1">
<path style=" stroke:none;fill-rule:nonzero;fill:rgb(0%,0%,0%);fill-opacity:1;" d="M 4 8 C 4.550781 8 5 7.550781 5 7 L 5 5 L 7 5 C 7.550781 5 8 4.550781 8 4 C 8 3.449219 7.550781 3 7 3 L 4 3 C 3.449219 3 3 3.449219 3 4 L 3 7 C 3 7.550781 3.449219 8 4 8 Z M 4 8 "/>
<path style=" stroke:none;fill-rule:nonzero;fill:rgb(0%,0%,0%);fill-opacity:1;" d="M 20 16 C 19.449219 16 19 16.449219 19 17 L 19 19 L 17 19 C 16.449219 19 16 19.449219 16 20 C 16 20.550781 16.449219 21 17 21 L 20 21 C 20.550781 21 21 20.550781 21 20 L 21 17 C 21 16.449219 20.550781 16 20 16 Z M 20 16 "/>
<path style=" stroke:none;fill-rule:nonzero;fill:rgb(0%,0%,0%);fill-opacity:1;" d="M 7 19 L 5 19 L 5 17 C 5 16.449219 4.550781 16 4 16 C 3.449219 16 3 16.449219 3 17 L 3 20 C 3 20.550781 3.449219 21 4 21 L 7 21 C 7.550781 21 8 20.550781 8 20 C 8 19.449219 7.550781 19 7 19 Z M 7 19 "/>
<path style=" stroke:none;fill-rule:nonzero;fill:rgb(0%,0%,0%);fill-opacity:1;" d="M 20 3 L 17 3 C 16.449219 3 16 3.449219 16 4 C 16 4.550781 16.449219 5 17 5 L 19 5 L 19 7 C 19 7.550781 19.449219 8 20 8 C 20.550781 8 21 7.550781 21 7 L 21 4 C 21 3.449219 20.550781 3 20 3 Z M 20 3 "/>
<path style=" stroke:none;fill-rule:nonzero;fill:rgb(0%,0%,0%);fill-opacity:1;" d="M 16 11.5 C 15.449219 11.5 15 11.949219 15 12.5 C 15 14.152344 13.652344 15.5 12 15.5 C 10.347656 15.5 9 14.152344 9 12.5 C 9 10.847656 10.347656 9.5 12 9.5 C 12.007812 9.5 12.011719 9.496094 12.019531 9.496094 L 12.019531 11.113281 C 12.019531 11.34375 12.28125 11.476562 12.464844 11.339844 L 15.851562 8.796875 C 16.050781 8.648438 16.050781 8.351562 15.851562 8.203125 L 12.464844 5.660156 C 12.277344 5.523438 12.019531 5.65625 12.019531 5.886719 L 12.019531 7.503906 C 12.011719 7.503906 12.007812 7.5 12 7.5 C 9.242188 7.5 7 9.742188 7 12.5 C 7 15.257812 9.242188 17.5 12 17.5 C 14.757812 17.5 17 15.257812 17 12.5 C 17 11.949219 16.550781 11.5 16 11.5 Z M 16 11.5 "/>
</g>
</svg>
