<svg xmlns="http://www.w3.org/2000/svg" width="566.929" height="566.929" xml:space="preserve"><circle fill="#FF8F0E" cx="283.465" cy="283.465" r="283.464"/><path fill="#9F3000" d="M203.963 127.284a132.833 132.833 0 0 0-58.538 14.372c-.208.097-.403.208-.61.305-.272.14-.558.244-.83.387v.028c-78.228 37.149-100.627 135.357-64.27 207.736 50.494 105.675 179.684 141.803 283.222 108.439 94.94-26.213 174.093-119.674 154.433-225.239-.123-.656-.203-1.309-.334-1.966h-.056c-11.065-73.355-86.335-117.387-155.65-100.13-24.916 6.204-47.109 16.514-66.929 29.685-25.292-22.433-57.752-34.018-90.438-33.617zm191.871 18.637a5.308 5.308 0 0 1 5.481 3.876l5.482 19.605c.037.116.083.242.111.36.693 2.856-1.076 5.731-3.932 6.424-2.857.693-5.731-1.075-6.425-3.932l-5.482-19.605a5.295 5.295 0 0 1 3.684-6.535 5.483 5.483 0 0 1 1.081-.193zm-154.072 12.377a5.322 5.322 0 0 1 .444 10.633l-20.297 1.55a5.32 5.32 0 0 1-.804-10.606l20.297-1.55c.12-.012.24-.023.36-.027zm-98.607 9.941c.354.007.694.059 1.053.139l19.882 4.458c.118.022.216.053.332.083 2.844.743 4.566 3.664 3.822 6.507-.744 2.844-3.665 4.538-6.507 3.793l-19.854-4.486a5.3 5.3 0 0 1-4.015-6.341 5.32 5.32 0 0 1 5.287-4.153zm187.965 5.871a5.33 5.33 0 0 1 4.402 2.381 5.303 5.303 0 0 1-1.467 7.366l-16.56 11.879a5.286 5.286 0 0 1-7.394-1.218 5.318 5.318 0 0 1 1.219-7.422l16.531-11.879c.096-.073.177-.126.277-.193a5.354 5.354 0 0 1 2.992-.914zm146.373 12.266a5.322 5.322 0 1 1 .443 10.634l-20.297 1.55a5.318 5.318 0 0 1-.804-10.606l20.298-1.55c.12-.013.24-.021.36-.028zm-272.173 5.9c14.056.057 28.185 4.155 39.736 11.907-32.113 35.735-59.554 86.421-77.424 126.381a32.305 32.305 0 0 0 2.963 32.509 32.353 32.353 0 0 0 29.824 13.347 32.327 32.327 0 0 0 26.223-19.466c16.636-37.203 41.492-81.333 67.565-109.989 23.996 25.535 50.69 67.088 61.862 99.659a32.304 32.304 0 0 0 24.368 21.654 32.327 32.327 0 0 0 30.847-10.577 32.322 32.322 0 0 0 5.927-32.065c-13.826-40.309-43.966-88.251-72.191-119.211 10.104-5.354 20.698-9.664 31.928-12.46a58.094 58.094 0 0 1 12.626-1.688c29.712-.738 59.795 20.299 63.719 49.621l.139.997.193.997c13.11 66.334-43.656 134.652-109.186 152.744l-.664.193-.664.194c-74.676 24.063-171.57-4.7-205.328-75.347l-.139-.278-.138-.305c-20.692-41.193-6.391-101.662 34.974-120.731l.72-.332.72-.388c9.579-5.011 20.47-7.413 31.4-7.366zm-95.145 35.665a5.34 5.34 0 0 1 4.209 2.382c1.63 2.445.978 5.763-1.467 7.393l-16.532 11.879c-2.386 1.711-5.71 1.141-7.421-1.246a5.318 5.318 0 0 1 1.219-7.421l16.531-11.852a5.3 5.3 0 0 1 2.769-1.107c.235-.022.458-.039.692-.028zm244.482 16.642a5.32 5.32 0 0 1 5.039 3.793 5.346 5.346 0 0 1-3.572 6.646l-19.272 6.507c-2.783.94-5.816-.542-6.756-3.323-.94-2.782.567-5.789 3.35-6.729l19.272-6.535c.111-.042.218-.076.332-.111a5.526 5.526 0 0 1 1.607-.248zm-97.997 3.129a5.32 5.32 0 1 1 .443 10.633l-20.297 1.551a5.32 5.32 0 0 1-.803-10.606l20.296-1.551c.121-.012.241-.022.361-.027zm224.129 2.105a5.303 5.303 0 0 1 2.99.858l17.141 10.993a5.311 5.311 0 0 1 1.662 7.588c-1.672 2.416-5.004 3.028-7.422 1.356l-17.112-10.993a5.339 5.339 0 0 1-1.607-7.365 5.295 5.295 0 0 1 4.348-2.437zm-111.622 54.717c.354.007.694.058 1.053.139l19.854 4.485c.119.021.244.024.36.057 2.843.744 4.538 3.665 3.793 6.507a5.299 5.299 0 0 1-6.479 3.794l-19.855-4.458a5.33 5.33 0 0 1 1.274-10.524zm-169.191 4.68a5.276 5.276 0 0 1 2.991.831l17.14 10.993c.104.061.206.125.305.193 2.417 1.672 3 5.004 1.329 7.421a5.312 5.312 0 0 1-7.394 1.356l-17.14-11.021c-2.471-1.588-3.167-4.868-1.578-7.339a5.29 5.29 0 0 1 4.347-2.434zm-89.331 1.217a5.323 5.323 0 0 1 .442 10.635l-20.297 1.549a5.318 5.318 0 0 1-.804-10.604l20.298-1.551c.122-.013.241-.022.361-.029zm368.538 13.181a5.333 5.333 0 0 1 4.403 2.383c1.63 2.445.95 5.735-1.495 7.364l-16.532 11.881a5.32 5.32 0 0 1-6.202-8.641l16.56-11.88c.095-.073.176-.126.275-.193a5.38 5.38 0 0 1 2.991-.914zm-347.216 35.722a5.325 5.325 0 0 1 4.956 3.904l5.483 19.604c.037.115.082.217.111.334.692 2.855-1.077 5.73-3.932 6.424s-5.731-1.049-6.424-3.903l-5.483-19.605c-.789-2.829.882-5.773 3.71-6.563a5.22 5.22 0 0 1 1.579-.195zm294.189 12.13c2.934-.131 5.408 2.161 5.538 5.095l.913 20.325c.01.12.025.239.027.359.03 2.938-2.35 5.343-5.289 5.373a5.316 5.316 0 0 1-5.373-5.262l-.912-20.327c-.13-2.933 2.161-5.434 5.096-5.563zm-241.187 40.483a5.52 5.52 0 0 1 1.08.139l19.854 4.485c.118.021.243.054.36.084a5.3 5.3 0 0 1 3.793 6.479c-.745 2.843-3.664 4.539-6.508 3.794l-19.854-4.459c-2.865-.647-4.662-3.504-4.016-6.368a5.326 5.326 0 0 1 5.291-4.154zm185.694 9.083a5.322 5.322 0 1 1 .442 10.634l-20.296 1.55a5.321 5.321 0 0 1-5.707-4.901 5.32 5.32 0 0 1 4.903-5.705l20.297-1.55a4.42 4.42 0 0 1 .361-.028zm-106.887 5.15a5.28 5.28 0 0 1 2.991.829l17.14 10.994c.104.062.206.126.306.193 2.416 1.672 3.001 5.005 1.329 7.422a5.31 5.31 0 0 1-7.393 1.356l-17.141-11.021c-2.469-1.587-3.167-4.866-1.578-7.337a5.29 5.29 0 0 1 4.346-2.436z"/></svg>