<svg xmlns="http://www.w3.org/2000/svg" width="566.93" height="566.93" xml:space="preserve"><circle fill="#FDDED5" cx="283.465" cy="283.465" r="283.465"/><path fill="#A05A2C" d="M475.93 295.913a3.976 3.976 0 0 0 1.937-2.777 3.972 3.972 0 0 0-.912-3.261L300.152 85.4a3.97 3.97 0 0 0-4.919-.879l-178.341 98.395a3.969 3.969 0 0 0-1.06 6.099l181.414 206.014a3.965 3.965 0 0 0 4.958.819l173.726-99.935zM291.37 412.085a3.968 3.968 0 0 0-.986-2.58l-178.34-202.939a3.97 3.97 0 0 0-6.951 2.579l-.769 76.488a3.965 3.965 0 0 0 .996 2.67l179.877 203.321a3.974 3.974 0 0 0 2.976 1.341h.054a3.972 3.972 0 0 0 3.912-4.367l-.769-76.513zM476.092 313.663a6.536 6.536 0 0 0-6.83-.133l-163.75 95.949a6.546 6.546 0 0 0-3.228 5.347l-.114 2.531a6.536 6.536 0 0 0 6.534 6.836c1.144 0 2.284-.3 3.307-.897l163.611-95.88a6.545 6.545 0 0 0 3.204-5.015l.25-2.598a6.53 6.53 0 0 0-2.984-6.14zM476.092 345.42a6.542 6.542 0 0 0-6.83-.133l-163.749 95.95a6.545 6.545 0 0 0-3.228 5.348l-.114 2.529a6.539 6.539 0 0 0 6.534 6.836 6.56 6.56 0 0 0 3.307-.896l163.611-95.882a6.537 6.537 0 0 0 3.204-5.012l.25-2.599a6.535 6.535 0 0 0-2.985-6.141zM476.092 377.177a6.542 6.542 0 0 0-6.83-.133l-163.749 95.95a6.545 6.545 0 0 0-3.228 5.348l-.114 2.529a6.544 6.544 0 0 0 3.154 5.896 6.52 6.52 0 0 0 3.38.939 6.54 6.54 0 0 0 3.307-.896l163.611-95.881a6.54 6.54 0 0 0 3.204-5.013l.25-2.599a6.535 6.535 0 0 0-2.985-6.14z"/></svg>