<?xml version="1.0" encoding="UTF-8" standalone="no"?>
<!-- Generator: Adobe Illustrator 19.1.0, SVG Export Plug-In . SVG Version: 6.00 Build 0)  -->

<svg
   xmlns:dc="http://purl.org/dc/elements/1.1/"
   xmlns:cc="http://creativecommons.org/ns#"
   xmlns:rdf="http://www.w3.org/1999/02/22-rdf-syntax-ns#"
   xmlns:svg="http://www.w3.org/2000/svg"
   xmlns="http://www.w3.org/2000/svg"
   xmlns:sodipodi="http://sodipodi.sourceforge.net/DTD/sodipodi-0.dtd"
   xmlns:inkscape="http://www.inkscape.org/namespaces/inkscape"
   version="1.1"
   x="0px"
   y="0px"
   width="24px"
   height="24px"
   viewBox="0 0 24 24"
   enable-background="new 0 0 24 24"
   xml:space="preserve"
   id="svg10"
   sodipodi:docname="sharp-crop_free-24px.svg"
   inkscape:version="0.92.3 (2405546, 2018-03-11)"><metadata
   id="metadata16"><rdf:RDF><cc:Work
       rdf:about=""><dc:format>image/svg+xml</dc:format><dc:type
         rdf:resource="http://purl.org/dc/dcmitype/StillImage" /></cc:Work></rdf:RDF></metadata><defs
   id="defs14" /><sodipodi:namedview
   pagecolor="#ffffff"
   bordercolor="#666666"
   borderopacity="1"
   objecttolerance="10"
   gridtolerance="10"
   guidetolerance="10"
   inkscape:pageopacity="0"
   inkscape:pageshadow="2"
   inkscape:window-width="1853"
   inkscape:window-height="1025"
   id="namedview12"
   showgrid="false"
   inkscape:zoom="9.8333333"
   inkscape:cx="12"
   inkscape:cy="12"
   inkscape:window-x="67"
   inkscape:window-y="27"
   inkscape:window-maximized="1"
   inkscape:current-layer="svg10" />
<g
   id="Bounding_Boxes">
	<g
   id="ui_x5F_spec_x5F_header_copy_3">
	</g>
	<path
   fill="none"
   d="M0,0h24v24H0V0z"
   id="path3" />
</g>
<g
   id="Sharp">
	<g
   id="ui_x5F_spec_x5F_header_copy_2">
	</g>
	<path
   d="M3,3v6h2V5h4V3H3z M5,15H3v6h6v-2H5V15z M19,19h-4v2h6v-6h-2V19z M21,3h-6v2h4v4h2V3z"
   id="path7" />
</g>
<g
   id="g844"><g
     id="Bounding_Boxes-5">
	<g
   id="ui_x5F_spec_x5F_header_copy_3-3">
	</g>
	<path
   d="M 0,0 H 24 V 24 H 0 Z"
   id="path3-5"
   inkscape:connector-curvature="0"
   style="fill:none" />
</g><g
     id="g17"><g
       id="Sharp-6">
	<g
   id="ui_x5F_spec_x5F_header_copy_2-2">
	</g>
	<path
   id="path7-9"
   d="M 3,3 V 9 H 5 V 5 H 9 V 3 Z M 5,15 H 3 v 6 H 9 V 19 H 5 Z m 14,4 h -4 v 2 h 6 V 15 H 19 Z M 21,3 h -6 v 2 h 4 v 4 h 2 z"
   inkscape:connector-curvature="0" />
</g><path
       id="path18"
       d="M 1.7029518,22.297048 22.344927,1.6550724"
       style="fill:none;stroke:#000000;stroke-width:3.04699993;stroke-linecap:butt;stroke-linejoin:miter;stroke-miterlimit:4;stroke-dasharray:none;stroke-opacity:1"
       inkscape:connector-curvature="0" /></g></g></svg>