<svg id="dashed-info" xmlns="http://www.w3.org/2000/svg" width="24" height="24" viewBox="0 0 24 24"><title>gbd-icon-abfrage</title><path d="M12,24a12.1,12.1,0,0,1-1.21-.06l.31-3.2a8.8,8.8,0,0,0,1.85,0l.34,3.2A10.91,10.91,0,0,1,12,24Zm-3.67-.58a11.81,11.81,0,0,1-2.3-1l1.6-2.79a7.87,7.87,0,0,0,1.68.74Zm7.41,0-1-3a8.75,8.75,0,0,0,1.68-.76L18,22.37A11.22,11.22,0,0,1,15.74,23.4ZM4,20.94a12.33,12.33,0,0,1-1.68-1.86l2.58-1.9a8.86,8.86,0,0,0,1.24,1.36Zm16.06-.05L17.9,18.51a8.93,8.93,0,0,0,1.23-1.38L21.73,19A12.84,12.84,0,0,1,20.06,20.89Zm-19-4a12.37,12.37,0,0,1-.78-2.39l3.13-.68A8.76,8.76,0,0,0,4,15.58ZM23,16.84l-2.92-1.31a9.54,9.54,0,0,0,.56-1.74l3.14.65A12.25,12.25,0,0,1,23,16.84ZM.4,12H0A12.41,12.41,0,0,1,.26,9.47l3.14.67A8.55,8.55,0,0,0,3.21,12ZM20.79,12a8.61,8.61,0,0,0-.19-1.83l3.14-.67A12.34,12.34,0,0,1,24,12ZM4,8.38,1,7.08A11.55,11.55,0,0,1,2.29,4.9L4.88,6.79A9,9,0,0,0,4,8.38ZM20,8.37a8.66,8.66,0,0,0-.92-1.59l2.59-1.9A12.74,12.74,0,0,1,23,7.06ZM6.11,5.42,4,3A12.18,12.18,0,0,1,6,1.55L7.6,4.33A9.33,9.33,0,0,0,6.11,5.42Zm11.76,0a8.62,8.62,0,0,0-1.48-1.08L18,1.54A12.69,12.69,0,0,1,20,3ZM9.27,3.58,8.28.52A12.1,12.1,0,0,1,10.74,0l.33,3.2A8.61,8.61,0,0,0,9.27,3.58Zm5.44,0a8.48,8.48,0,0,0-1.8-.38L13.24,0A12.25,12.25,0,0,1,15.7.52Z"/><rect x="10.8" y="6" width="2.4" height="2.4"/><rect x="10.8" y="10.8" width="2.4" height="7.2"/></svg>