<?xml version="1.0" encoding="UTF-8" standalone="no"?>
<svg
   width="24"
   height="24"
   version="1.1"
   id="svg6"
   sodipodi:docname="gbd-icon-flurstuecksuche-suche.svg"
   xml:space="preserve"
   inkscape:version="1.2 (1:1.2+202205241504+da316b6974)"
   xmlns:inkscape="http://www.inkscape.org/namespaces/inkscape"
   xmlns:sodipodi="http://sodipodi.sourceforge.net/DTD/sodipodi-0.dtd"
   xmlns="http://www.w3.org/2000/svg"
   xmlns:svg="http://www.w3.org/2000/svg"><defs
     id="defs10" /><sodipodi:namedview
     id="namedview8"
     pagecolor="#ffffff"
     bordercolor="#666666"
     borderopacity="1.0"
     inkscape:showpageshadow="2"
     inkscape:pageopacity="0.0"
     inkscape:pagecheckerboard="0"
     inkscape:deskcolor="#d1d1d1"
     showgrid="false"
     inkscape:zoom="11.888233"
     inkscape:cx="-24.309752"
     inkscape:cy="17.874818"
     inkscape:window-width="1920"
     inkscape:window-height="948"
     inkscape:window-x="1920"
     inkscape:window-y="27"
     inkscape:window-maximized="1"
     inkscape:current-layer="svg6" /><path
     d="M 9.35,20.5 H 8.17 v -1.36 a 7.86,7.86 0 0 1 0,-8.87 v -2.1 h 2.1 a 7.85,7.85 0 0 1 4.43,-1.37 8.69,8.69 0 0 1 0.89,0 7.65,7.65 0 0 1 3.52,1.32 h 1.39 v 1.2 a 8,8 0 0 1 2,4.12 V 1.5 h -21 v 21 h 12 a 7.82,7.82 0 0 1 -4.15,-2 z m 8.15,-17 h 3 v 3 h -3 z m -4.67,0 h 3 v 3 h -3 z m -4.66,0 h 3 v 3 h -3 z m -1.67,17 h -3 v -3 h 3 z m 0,-4.67 h -3 v -3 h 3 z m 0,-4.66 h -3 v -3 h 3 z m 0,-4.67 h -3 v -3 h 3 z"
     id="path2"
     style="display:inline"
     sodipodi:insensitive="true" /><path
     d="m 19.26,17.57 a 5.38,5.38 0 0 0 -3.94,-8.23 4.3,4.3 0 0 0 -0.62,0 5.4,5.4 0 0 0 0,10.8 5.27,5.27 0 0 0 2.86,-0.84 l 2.9,2.89 a 1.2020815,1.2020815 0 0 0 1.7,-1.7 z M 14.7,17.7 a 3,3 0 1 1 3,-3 3,3 0 0 1 -3,3 z"
     id="path4"
     style="display:none"
     sodipodi:insensitive="true" /><g
     id="g271"
     transform="matrix(0.64916538,0,0,0.64916538,6.9901444,6.3925551)"
     style="display:inline"
     sodipodi:insensitive="true"><path
       d="m 20.78,8.26 h -0.05 l -7,-5.1 a 1.72,1.72 0 0 0 -3.44,0 l -7,5.1 A 1.73,1.73 0 0 0 1.5,10 1.7,1.7 0 0 0 2.31,11.45 L 5,19.85 a 1.7416156,1.7416156 0 1 0 3,1.77 h 8 a 1.7416156,1.7416156 0 1 0 3,-1.77 l 2.72,-8.41 A 1.7,1.7 0 0 0 22.5,10 1.73,1.73 0 0 0 20.78,8.26 Z M 17,19.14 a 1.77,1.77 0 0 0 -0.65,0.38 H 7.66 A 1.77,1.77 0 0 0 7,19.14 L 4.44,11.21 A 1.72,1.72 0 0 0 5,10 3.16,3.16 0 0 0 5,9.68 l 6.59,-4.8 a 1.54,1.54 0 0 0 1,0 l 6.59,4.8 a 3.16,3.16 0 0 0 0,0.32 1.72,1.72 0 0 0 0.51,1.22 z"
       id="path259"
       style="display:inline"
       sodipodi:insensitive="true" /><path
       d="M 16.21,15.72 14.45,14 a 3.68,3.68 0 0 0 0.47,-1.77 3.72,3.72 0 1 0 -3.72,3.71 3.6,3.6 0 0 0 1.8,-0.49 l 1.76,1.76 a 1.05,1.05 0 0 0 1.49,0 1.06,1.06 0 0 0 -0.04,-1.49 z m -5,-1.91 a 1.62,1.62 0 1 1 1.62,-1.61 0.5,0.5 0 0 1 0,0.12 1.61,1.61 0 0 1 -1.48,1.48 z"
       id="path261"
       style="display:inline"
       sodipodi:insensitive="true" /></g><g
     id="g542"
     transform="matrix(0.55648808,0,0,0.55648808,8.0178044,7.9261097)"
     style="display:none"
     sodipodi:insensitive="true"><polygon
       points="15.66,16.8 16.8,15.66 13.49,12.35 16.61,11.13 7.2,7.2 11.13,16.61 12.35,13.49 "
       id="polygon531" /><path
       d="M 12,24 A 12,12 0 1 0 0,12 12,12 0 0 0 12,24 Z M 12,2.4 A 9.6,9.6 0 1 1 2.4,12 9.6,9.6 0 0 1 12,2.4 Z"
       id="path533" /></g></svg>
