<svg id="Layer_1" data-name="Layer 1" xmlns="http://www.w3.org/2000/svg" width="8.47mm" height="8.47mm" viewBox="0 0 24 24"><title>falling_rocks-georisks</title><path d="M12,4.2l8.33,14H3.66L12,4.2M10.89.9.2,18.85a1.37,1.37,0,0,0,1.1,2.09H22.69a1.37,1.37,0,0,0,1.11-2.09L13.11.9A1.27,1.27,0,0,0,10.89.9Z"/><path d="M17.9,16.55l-4-6.68c-.32.12-.25.44-.44.9s-.72.3-.94.83-.36.48-.58,1,.39.81.16,1.34-.33.48-.56,1-.52.4-.74.93-.6.72-.23,1.16h7.6Z"/><path d="M13,10.05c-.21.23-.53.14-.82.14a.83.83,0,0,1-.71-.25,1,1,0,0,1-.32-.75,1,1,0,0,1,.36-.7.91.91,0,0,1,.67-.39.93.93,0,0,1,.72.34,1,1,0,0,1,.29.75A1.16,1.16,0,0,1,13,10.05Z"/><path d="M10.17,11.49c-.16.17-.31.33-.52.33a.86.86,0,0,1-.6-.24A1,1,0,0,1,8.79,11a1,1,0,0,1,.26-.63c.16-.17.39-.1.6-.1a.59.59,0,0,1,.52.18.74.74,0,0,1,.24.55A.71.71,0,0,1,10.17,11.49Z"/><path d="M11.73,11.53a.55.55,0,0,1-.76.1c-.2-.21-.08-.56.12-.77s.49-.3.69-.09A.55.55,0,0,1,11.73,11.53Z"/><path d="M10,15.72c-.22.23-.38.5-.65.58s-.65.31-.94.23a2.22,2.22,0,0,1-.78-.61c-.22-.23-.19-.62-.26-.91s-.27-.62-.19-.92.41-.44.63-.67.33-.71.6-.79a2.11,2.11,0,0,1,1,0c.27.08.48.46.7.69s.2.55.27.84a1.5,1.5,0,0,1,0,.84A1.54,1.54,0,0,1,10,15.72Z"/></svg>