<svg data-name="Layer 1" xmlns="http://www.w3.org/2000/svg" width="500" height="500">
  <g opacity=".77" fill="#fff">
    <path d="M221.52 202.87c6.64 0 16.51 9 12.55 13.08-10.8 11.13-22.28 22.72-35.3 31.32a4.69 4.69 0 0 1-2.61.71c-6.69 0-17.37-10.33-11.39-14.28 12.23-8.07 22.92-19 33.06-29.42a5 5 0 0 1 3.69-1.41m0-11a15.92 15.92 0 0 0-11.58 4.75c-9.24 9.51-19.7 20.29-31.23 27.9a14.76 14.76 0 0 0-6 16.91c2.76 9.19 13.93 17.55 23.45 17.55a15.72 15.72 0 0 0 8.67-2.53c13.52-8.92 25.28-20.62 37.14-32.84a14.67 14.67 0 0 0 2.69-16.21c-3.56-8.42-14.16-15.53-23.14-15.53z"/>
    <path d="M221.15 202.83c2.29 0 6 2.1 6.77 2.66 3.24 2.3 7.21 6.11 7.2 10.38 0 20.43-.36 40.87-.59 61.3-.14 12.2-1.18 25 .51 37.17.32 2.29-.8 3-2.29 3a9.82 9.82 0 0 1-4.17-1.23c-3.55-1.89-8.58-6-9.17-10.26-1.75-12.56-.84-25.76-.71-38.4.23-21 .61-41.92.62-62.89a1.6 1.6 0 0 1 1.83-1.77m0-11a12.52 12.52 0 0 0-12.83 12.76c0 14.78-.2 29.83-.39 44.39q-.12 9.2-.22 18.39c0 2.75-.1 5.49-.17 8.39-.25 10.32-.51 21 1 31.64 1.5 10.84 12.69 17.28 14.91 18.46a20.78 20.78 0 0 0 9.33 2.52 13.19 13.19 0 0 0 10.13-4.45 13.65 13.65 0 0 0 3.05-11.1c-1.14-8.24-.87-17.38-.62-26.23.09-3.05.18-6.2.22-9.3q.09-8.13.2-16.26c.19-14.79.39-30.09.39-45.17 0-7.07-4.2-13.94-11.84-19.36-.27-.19-6.68-4.68-13.13-4.68z"/>
    <path d="M285.51 206.69a24 24 0 0 1 9.55 1.82c7.13 3.07 12.49 9.81 16 16.53 9.13 17.53 9.24 41.9 2.79 60.34-2.52 7.2-6.39 13.86-12.48 18.6-7.53 5.85-18.48 8.84-28 9a36.33 36.33 0 0 0 10.63-2.57c1.15-.45 7-3.29 2.8-3.65h-.46c2.82-.08-2.24-.66-1.28-1.55a33.16 33.16 0 0 0 6.11-8c4-7 5.89-15.06 6.77-23 1.77-16.11.36-34.4-8.68-48.3-3.17-4.86-7.39-9.41-12.84-11.67.38-.43.78-.84 1.19-1.22 1.81-.66 2.73-1.71 2.38-1.71-.2 0-.78.32-1.83 1.22-.18.15-.37.32-.55.49a8.63 8.63 0 0 1-3 .52h-.83a14.17 14.17 0 0 1-2-.41 10 10 0 0 0 2 .41 9.73 9.73 0 0 1 1.85.44c.26.09.51.19.76.3a32.65 32.65 0 0 0-4 5.65c-8.25 14.42-9.53 33-8.7 49.28.76 14.88 4.07 35.71 22.58 37.64h-1.19c-4.51 0-16.67 6.24-13 6.27h1.18-1.22c-.4 0-1.06 0-1.58-.07-27.08-2.34-27.64-35.86-26-56.2 1.41-17.18 5.87-39.26 23.79-46.36a48 48 0 0 1 17.12-3.71m0-11a57.86 57.86 0 0 0-21.17 4.49c-10.88 4.3-19 12.86-24.2 25.42-3.38 8.18-5.51 18.08-6.5 30.27-1.29 15.81-.43 28.52 2.62 38.86 5.15 17.41 17 27.78 33.38 29.19.82.07 1.67.11 2.52.11h1.63c12.73-.27 25.54-4.49 34.33-11.31 7.14-5.55 12.56-13.51 16.11-23.65 7.95-22.72 6.6-49.83-3.42-69.06-3.79-7.26-10.57-16.9-21.41-21.56a34.9 34.9 0 0 0-13.89-2.71zm-4.38 96.91c-2.87-3.25-5.62-10-6.34-24.08-.8-15.45.75-28.1 4.6-37.72q.35.49.69 1c8.55 13.15 8 31.39 7 41.09-.85 7.75-2.62 13.91-5.41 18.84-.16.29-.33.58-.5.85z"/>
  </g>
  <g opacity=".77">
    <path d="M286.93 360.16C256 372.94 220 364.7 192.66 347c-30.42-19.64-48.37-53.72-45.9-90.13 2.52-37.18 26.59-69.29 58.07-87.78 16.87-9.9 35.58-16 55.27-15.71 18.51.29 36.38 6.28 51.87 16.3 33 21.37 57.42 58.38 52 98.78-5.05 37.88-30.42 72.77-63.79 90.81-32.13 17.37-73.67 22.45-106.23 3.37-31.93-18.71-51.11-55.53-57.49-91-6.86-38.15 3.82-77.07 25.81-108.57 10.41-14.92 24-28.37 41.27-35 16.46-6.33 35.41-4.56 52.11-.07 7.46 2 15 5.41 20.82 10.61l-1.91-4.61.17 2.12c.21 8.24 13 8.27 12.83 0-.13-4.73-1.79-7.11-5.35-10.23a45.17 45.17 0 0 0-12.78-7.75 73.82 73.82 0 0 0-29.78-5.35c-18.84.31-38.85 4.55-55.35 13.82-36.84 20.7-58 64.77-62.65 105.51-4.84 42.28 9.52 87 38 118.58 13.87 15.4 31.42 27.23 51.54 32.62 19.77 5.3 40.72 4.83 60.53 0 41.55-10.11 77.68-39.28 96-78 9.4-19.9 13.59-41.8 10.55-63.7-3.25-23.36-15-43.37-30.68-60.65-29.38-32.37-72.59-50.25-116.09-40.43-42.5 9.59-79.69 42.72-94.67 83.5-14.55 39.61-4.06 87.18 26.78 116.22 26.79 25.23 65.9 37.83 102.36 32.31a86.77 86.77 0 0 0 23.25-7c3-1.38.83-6.71-2.29-5.43z" fill="#dd2f00"/>
    <path d="M283.61 348.11c-30.83 12.35-68.22 3.06-92.92-17.92-11.76-10-21.19-22.79-26.21-36.58-5.32-14.59-6.95-30.05-4.25-44.51 5.81-31 27.15-56.3 54.66-71.29 16-8.71 33.88-13.27 52.12-11.52 16.68 1.6 33.21 9.52 45.87 19.23 25.28 19.38 42 48.36 39 79.91-2.85 29.81-22.68 59.87-47.69 76.85-27.26 18.49-64.25 26.91-95.2 14-29.28-12.2-47.92-42-56.51-71.38-9.92-33.9-5.63-69.42 11.29-100.4 7.86-14.39 18-28.72 31.57-37.94 14.9-10.1 31.79-11.92 49.39-8.3 8 1.65 16.59 3.75 23 9.21 4.26 3.65 10.1 4.91 15.15 2 4.36-2.55 7.83-9.09 5.75-14.12l-1.92-4.61c-2.38-5.76-7.06-10-13.71-9-5.71.86-11.35 6-10.84 12.28.49 6 1.46 11.44 6.12 15.73a19.64 19.64 0 0 0 18.5 4.34c13.63-4.13 16.85-20.46 9.26-31.5s-22.38-17.47-35.17-20.19c-14.24-3-28.65-2.3-42.94-.07a116.41 116.41 0 0 0-64.25 32.09c-16.57 16.39-28.29 37.19-35.9 59.09a168 168 0 0 0 13.74 139.69c12.43 21.13 29.83 40.1 51.43 52 24.87 13.72 53.5 16.77 81.27 12.37 45.89-7.26 87.79-37.46 110.27-78 13.79-24.82 20-53.07 15.9-81.28-3.66-25.14-17-47.58-33.89-66.17-33.14-36.53-84-55.52-132.54-42.68-44.82 11.88-82.16 46.72-98.6 89.81-16.54 43.36-4.92 96.43 28.41 128.74A137.29 137.29 0 0 0 217 382.55c24.83 5.88 53.55 5.93 76.9-5.45 16.7-8.14 7.9-33-10.32-29-6.6 1.45-10.46 9.12-8.73 15.38 1.87 6.8 8.76 10.18 15.37 8.73l.91-.2h-6.65l-5.33-13.26 4.48-4.49c-3.7 2.57-9 3.65-13.33 4.72a74.07 74.07 0 0 1-14.57 2.15 108.08 108.08 0 0 1-28.2-1.85c-18.87-3.85-37-12.05-51.6-24.69-27-23.42-38.53-60.84-30.83-94.57 8.06-35.27 34.83-64.83 67.68-80.12 34.17-15.91 73.4-10.8 104.71 11 32.53 22.62 55.4 61.44 47.76 101.87-7.17 38-33.4 69.43-66.61 87.12-35.29 18.79-81.56 21.45-115.12-3.9-30.37-22.93-48.2-62.78-50.1-99.87-1.82-35.61 10.08-74.47 34.79-100.85a91.28 91.28 0 0 1 47.88-27.2c17.8-4 42.29-5.91 57.28 6.72-.39-.33 3 3 1.9 1.73s.5-1.46-.08.14c.75-2.08.9-4.71 3.35-6 2.22-1.19 3.31-1.33 5.48 0a9.06 9.06 0 0 1 3.09 4.2c.88 1.94.09.92-.05-.76l-24.55 3.32 1.91 4.62 20.89-12.16c-17-14.56-42.69-20-64.66-18-22.16 1.93-41.45 12.83-56.45 29-28.58 30.89-45.08 75.28-41.94 117.38 2.85 38.3 19.62 78.74 49.46 103.83a106.06 106.06 0 0 0 57.1 24.6c20.18 2.31 41.37-1.17 60.18-8.58a140.86 140.86 0 0 0 81.25-82.89 108.31 108.31 0 0 0 4.79-58.44c-3.87-19.09-13.67-36.54-26.17-51.3-27.9-32.95-71.35-51.42-114.23-41.8-38.12 8.55-73.71 37-89.93 72.64C128.44 252.1 131 294.66 154.16 327c23.49 32.84 65.35 54.15 106 51.71a96.27 96.27 0 0 0 30.08-6.48c6.27-2.51 10.67-8.35 8.73-15.38-1.62-5.96-9.06-11.26-15.36-8.74z" fill="#fff"/>
  </g>
  <path d="M286.93 360.16C256 372.94 220 364.7 192.66 347c-30.42-19.64-48.37-53.72-45.9-90.13 2.52-37.18 26.59-69.29 58.07-87.78 16.87-9.9 35.58-16 55.27-15.71 18.51.29 36.38 6.28 51.87 16.3 33 21.37 57.42 58.38 52 98.78-5.05 37.88-30.42 72.77-63.79 90.81-32.13 17.37-73.67 22.45-106.23 3.37-31.93-18.71-51.11-55.53-57.49-91-6.86-38.15 3.82-77.07 25.81-108.57 10.41-14.92 24-28.37 41.27-35 16.46-6.33 35.41-4.56 52.11-.07 7.46 2 15 5.41 20.82 10.61l-1.91-4.61.17 2.12c.21 8.24 13 8.27 12.83 0-.13-4.73-1.79-7.11-5.35-10.23a45.17 45.17 0 0 0-12.78-7.75 73.82 73.82 0 0 0-29.78-5.35c-18.84.31-38.85 4.55-55.35 13.82-36.84 20.7-58 64.77-62.65 105.51-4.84 42.28 9.52 87 38 118.58 13.87 15.4 31.42 27.23 51.54 32.62 19.77 5.3 40.72 4.83 60.53 0 41.55-10.11 77.68-39.28 96-78 9.4-19.9 13.59-41.8 10.55-63.7-3.25-23.36-15-43.37-30.68-60.65-29.38-32.37-72.59-50.25-116.09-40.43-42.5 9.59-79.69 42.72-94.67 83.5-14.55 39.61-4.06 87.18 26.78 116.22 26.79 25.23 65.9 37.83 102.36 32.31a86.77 86.77 0 0 0 23.25-7c3-1.38.83-6.71-2.29-5.43z" fill="#dd2f00"/>
  <path d="M198.77 247.27c13-8.6 24.5-20.19 35.3-31.32 4.82-5-10.85-17.22-16.24-11.67-10.14 10.45-20.83 21.35-33.06 29.42-6.85 4.52 8.16 17.42 14 13.57z" fill="#dd2f00"/>
  <path d="M219.32 204.6c0 21-.39 41.93-.62 62.89-.13 12.64-1 25.84.71 38.4.59 4.28 5.62 8.37 9.17 10.26 2.49 1.32 7.06 2.55 6.46-1.81-1.69-12.13-.65-25-.51-37.17.23-20.43.58-40.87.59-61.3 0-4.27-4-8.08-7.2-10.38-1.15-.81-8.6-5-8.6-.89zM286.84 306.76c-18.92-1.63-22.27-22.67-23-37.68-.83-16.24.45-34.86 8.7-49.28a27.8 27.8 0 0 1 5.7-7.36c4.44-3.81.6 2.7-6.39.56 1.27.39 2.59.37 3.89.85 5.81 2.15 10.29 6.88 13.6 12 9 13.9 10.45 32.19 8.68 48.3-.88 8-2.79 16-6.77 23a33.16 33.16 0 0 1-6.11 8c-1.06 1-16.59 7.8-12.9 7.83 9.77.06 21.32-2.93 29.17-9 6.09-4.74 10-11.4 12.48-18.6 6.45-18.44 6.34-42.81-2.79-60.34-3.51-6.72-8.87-13.46-16-16.53-8.31-3.58-18.61-1.3-26.67 1.89-17.92 7.1-22.38 29.18-23.79 46.36-1.66 20.34-1.11 53.86 26 56.2 4.36.38 20.36-5.84 16.2-6.2z" fill="#dd2f00"/>
</svg>
