<svg data-name="Layer 1" xmlns="http://www.w3.org/2000/svg" width="500" height="500">
  <g opacity=".77" fill="#fff">
    <path d="M227.51 206.47c5.34 0 14.68 6.07 14.13 10.82q-1.57 13.44-3.13 26.9c-.23 1.95-1.64 2.74-3.58 2.74-5.35 0-14.68-6.07-14.13-10.81q1.56-13.45 3.13-26.91c.23-1.94 1.64-2.74 3.58-2.74m0-11c-7.68 0-13.65 5.13-14.5 12.47l-3.14 26.9c-.37 3.21.14 8.12 4.72 13.26 4.35 4.88 12.73 9.83 20.34 9.83s13.65-5.13 14.5-12.47l3.13-26.9c.38-3.21-.14-8.12-4.71-13.25-4.35-4.89-12.74-9.84-20.34-9.84z"/>
    <path d="M257.28 236.25a48.18 48.18 0 0 1 11.72 1.39c10.9 2.69 21.65 10 25.95 20.75 4.14 10.3 1.62 24.86-5.7 33.22-9.44 10.79-25.58 15.68-39.26 17.71a69.25 69.25 0 0 1-10.15.76c-10.67 0-21.2-2.63-30.07-9-2.06-1.46 5.18-3.87 6.16-4.17 2-.63 6.38-2.2 9.57-2.2a4.73 4.73 0 0 1 2.73.67c6.39 4.55 16.38 8.67 24.51 8.67a17.66 17.66 0 0 0 6.14-1c10.67-4 16.83-13.64 18.2-24.63 1.3-10.5-2.07-20.17-10.25-27a39.92 39.92 0 0 0-13-7.14 34.55 34.55 0 0 0-7-1.57h-.4a2.15 2.15 0 0 0 .26-.63c-.07.28-.44.46-.95.57-.93-.06-1.87-.08-2.81-.13h-.79c-1.27 0 .31.29 1.94.29a8.43 8.43 0 0 0 1.66-.14l.69.06c-1.39 2.35-6.83 3.28-8.94 3.8a54.35 54.35 0 0 1-8.26 1c-1.24 0-2.08-.17-2-.67 1.76-7.08 14.14-8.75 20.12-9.74a60.9 60.9 0 0 1 9.87-.85m0-11a71.68 71.68 0 0 0-11.67 1l-.88.14c-8 1.31-24.69 4-28.12 17.8a11.28 11.28 0 0 0 2.07 9.72c2.39 3 5.94 4.6 10.56 4.6a62.77 62.77 0 0 0 10.9-1.35l.75-.18a35.4 35.4 0 0 0 8.17-2.64c.42.11.84.24 1.25.38a29 29 0 0 1 9.39 5.13c5.14 4.32 7.3 10.13 6.41 17.26-.45 3.63-2.44 12.42-11.15 15.69a6.63 6.63 0 0 1-2.27.29c-5 0-12.83-2.85-18.13-6.63a15.34 15.34 0 0 0-9.11-2.71c-4.15 0-8.38 1.26-12 2.43l-.8.26c-6 1.85-12.94 4.92-14.12 12.27a11.65 11.65 0 0 0 4.84 11.37c10.09 7.2 22.7 11 36.45 11a80 80 0 0 0 11.76-.88c25.88-3.83 39.26-13.72 45.93-21.35 10.14-11.59 13.35-30.34 7.63-44.57-5.25-13-18.09-23.51-33.52-27.32a59.65 59.65 0 0 0-14.31-1.71z"/>
    <path d="M272.43 199c4.39 0 8.16 3.77 10.47 7.18.91 1.34 4.74 8.88.48 8.88h-49.81c-4.39 0-8.16-3.77-10.47-7.18-.91-1.34-4.74-8.88-.48-8.88h49.81m0-11h-49.81a12.67 12.67 0 0 0-11.43 6.71c-4.4 8.29 2.05 18.24 2.8 19.34 5.25 7.74 12.2 12 19.58 12h49.81a12.67 12.67 0 0 0 11.43-6.71c4.4-8.3-2.05-18.24-2.8-19.34-5.25-7.74-12.2-12-19.58-12z"/>
  </g>
  <g opacity=".77">
    <path d="M286.93 360.16C256 372.94 220 364.7 192.66 347c-30.42-19.64-48.37-53.72-45.9-90.13 2.52-37.18 26.59-69.29 58.07-87.78 16.87-9.9 35.58-16 55.27-15.71 18.51.29 36.38 6.28 51.87 16.3 33 21.37 57.42 58.38 52 98.78-5.05 37.88-30.42 72.77-63.79 90.81-32.13 17.37-73.67 22.45-106.23 3.37-31.93-18.71-51.11-55.53-57.49-91-6.86-38.15 3.82-77.07 25.81-108.57 10.41-14.92 24-28.37 41.27-35 16.46-6.33 35.41-4.56 52.11-.07 7.46 2 15 5.41 20.82 10.61l-1.91-4.61.17 2.12c.21 8.24 13 8.27 12.83 0-.13-4.73-1.79-7.11-5.35-10.23a45.17 45.17 0 0 0-12.78-7.75 73.82 73.82 0 0 0-29.78-5.35c-18.84.31-38.85 4.55-55.35 13.82-36.84 20.7-58 64.77-62.65 105.51-4.84 42.28 9.52 87 38 118.58 13.87 15.4 31.42 27.23 51.54 32.62 19.77 5.3 40.72 4.83 60.53 0 41.55-10.11 77.68-39.28 96-78 9.4-19.9 13.59-41.8 10.55-63.7-3.25-23.36-15-43.37-30.68-60.65-29.38-32.37-72.59-50.25-116.09-40.43-42.5 9.59-79.69 42.72-94.67 83.5-14.55 39.61-4.06 87.18 26.78 116.22 26.79 25.23 65.9 37.83 102.36 32.31a86.77 86.77 0 0 0 23.25-7c3-1.38.83-6.71-2.29-5.43z" fill="#dd2f00"/>
    <path d="M283.61 348.11c-30.83 12.35-68.22 3.06-92.92-17.92-11.76-10-21.19-22.79-26.21-36.58-5.32-14.59-6.95-30.05-4.25-44.51 5.81-31 27.15-56.3 54.66-71.29 16-8.71 33.88-13.27 52.12-11.52 16.68 1.6 33.21 9.52 45.87 19.23 25.28 19.38 42 48.36 39 79.91-2.85 29.81-22.68 59.87-47.69 76.85-27.26 18.49-64.25 26.91-95.2 14-29.28-12.2-47.92-42-56.51-71.38-9.92-33.9-5.63-69.42 11.29-100.4 7.86-14.39 18-28.72 31.57-37.94 14.9-10.1 31.79-11.92 49.39-8.3 8 1.65 16.59 3.75 23 9.21 4.26 3.65 10.1 4.91 15.15 2 4.36-2.55 7.83-9.09 5.75-14.12l-1.92-4.61c-2.38-5.76-7.06-10-13.71-9-5.71.86-11.35 6-10.84 12.28.49 6 1.46 11.44 6.12 15.73a19.64 19.64 0 0 0 18.5 4.34c13.63-4.13 16.85-20.46 9.26-31.5s-22.38-17.47-35.17-20.19c-14.24-3-28.65-2.3-42.94-.07a116.41 116.41 0 0 0-64.25 32.09c-16.57 16.39-28.29 37.19-35.9 59.09a168 168 0 0 0 13.74 139.69c12.43 21.13 29.83 40.1 51.43 52 24.87 13.72 53.5 16.77 81.27 12.37 45.89-7.26 87.79-37.46 110.27-78 13.79-24.82 20-53.07 15.9-81.28-3.66-25.14-17-47.58-33.89-66.17-33.14-36.53-84-55.52-132.54-42.68-44.82 11.88-82.16 46.72-98.6 89.81-16.54 43.36-4.92 96.43 28.41 128.74A137.29 137.29 0 0 0 217 382.55c24.83 5.88 53.55 5.93 76.9-5.45 16.7-8.14 7.9-33-10.32-29-6.6 1.45-10.46 9.12-8.73 15.38 1.87 6.8 8.76 10.18 15.37 8.73l.91-.2h-6.65l-5.33-13.26 4.48-4.49c-3.7 2.57-9 3.65-13.33 4.72a74.07 74.07 0 0 1-14.57 2.15 108.08 108.08 0 0 1-28.2-1.85c-18.87-3.85-37-12.05-51.6-24.69-27-23.42-38.53-60.84-30.83-94.57 8.06-35.27 34.83-64.83 67.68-80.12 34.17-15.91 73.4-10.8 104.71 11 32.53 22.62 55.4 61.44 47.76 101.87-7.17 38-33.4 69.43-66.61 87.12-35.29 18.79-81.56 21.45-115.12-3.9-30.37-22.93-48.2-62.78-50.1-99.87-1.82-35.61 10.08-74.47 34.79-100.85a91.28 91.28 0 0 1 47.88-27.2c17.8-4 42.29-5.91 57.28 6.72-.39-.33 3 3 1.9 1.73s.5-1.46-.08.14c.75-2.08.9-4.71 3.35-6 2.22-1.19 3.31-1.33 5.48 0a9.06 9.06 0 0 1 3.09 4.2c.88 1.94.09.92-.05-.76l-24.55 3.32 1.91 4.62 20.89-12.16c-17-14.56-42.69-20-64.66-18-22.16 1.93-41.45 12.83-56.45 29-28.58 30.89-45.08 75.28-41.94 117.38 2.85 38.3 19.62 78.74 49.46 103.83a106.06 106.06 0 0 0 57.1 24.6c20.18 2.31 41.37-1.17 60.18-8.58a140.86 140.86 0 0 0 81.25-82.89 108.31 108.31 0 0 0 4.79-58.44c-3.87-19.09-13.67-36.54-26.17-51.3-27.9-32.95-71.35-51.42-114.23-41.8-38.12 8.55-73.71 37-89.93 72.64C128.44 252.1 131 294.66 154.16 327c23.49 32.84 65.35 54.15 106 51.71a96.27 96.27 0 0 0 30.08-6.48c6.27-2.51 10.67-8.35 8.73-15.38-1.62-5.96-9.06-11.26-15.36-8.74z" fill="#fff"/>
  </g>
  <path d="M286.93 360.16C256 372.94 220 364.7 192.66 347c-30.42-19.64-48.37-53.72-45.9-90.13 2.52-37.18 26.59-69.29 58.07-87.78 16.87-9.9 35.58-16 55.27-15.71 18.51.29 36.38 6.28 51.87 16.3 33 21.37 57.42 58.38 52 98.78-5.05 37.88-30.42 72.77-63.79 90.81-32.13 17.37-73.67 22.45-106.23 3.37-31.93-18.71-51.11-55.53-57.49-91-6.86-38.15 3.82-77.07 25.81-108.57 10.41-14.92 24-28.37 41.27-35 16.46-6.33 35.41-4.56 52.11-.07 7.46 2 15 5.41 20.82 10.61l-1.91-4.61.17 2.12c.21 8.24 13 8.27 12.83 0-.13-4.73-1.79-7.11-5.35-10.23a45.17 45.17 0 0 0-12.78-7.75 73.82 73.82 0 0 0-29.78-5.35c-18.84.31-38.85 4.55-55.35 13.82-36.84 20.7-58 64.77-62.65 105.51-4.84 42.28 9.52 87 38 118.58 13.87 15.4 31.42 27.23 51.54 32.62 19.77 5.3 40.72 4.83 60.53 0 41.55-10.11 77.68-39.28 96-78 9.4-19.9 13.59-41.8 10.55-63.7-3.25-23.36-15-43.37-30.68-60.65-29.38-32.37-72.59-50.25-116.09-40.43-42.5 9.59-79.69 42.72-94.67 83.5-14.55 39.61-4.06 87.18 26.78 116.22 26.79 25.23 65.9 37.83 102.36 32.31a86.77 86.77 0 0 0 23.25-7c3-1.38.83-6.71-2.29-5.43z" fill="#dd2f00"/>
  <path d="M223.93 209.21l-3.13 26.91c-.75 6.47 16.85 15.39 17.71 8.07l3.13-26.9c.75-6.47-16.86-15.4-17.71-8.08z" fill="#dd2f00"/>
  <path d="M246.7 242.05c-.35 1.41-7.94.25-3.76.44 1.31.06 2.59.08 3.9.23a34.55 34.55 0 0 1 7 1.57 39.92 39.92 0 0 1 13 7.14c8.18 6.87 11.55 16.54 10.25 27-1.37 11-7.53 20.62-18.2 24.63-8.55 3.21-22.52-1.88-30.65-7.68-2.62-1.87-9.6.69-12.3 1.53-1 .3-8.22 2.71-6.16 4.17 11.69 8.33 26.26 10.26 40.22 8.2 13.68-2 29.82-6.92 39.26-17.71 7.32-8.36 9.84-22.92 5.7-33.22-4.3-10.71-15-18.06-25.95-20.75a53 53 0 0 0-21.54-.54c-6 1-18.36 2.66-20.12 9.74-.41 1.63 9.49-.19 10.21-.36 2.29-.57 8.5-1.61 9.2-4.43zM233.57 215h49.81c4.26 0 .43-7.54-.48-8.88-2.31-3.41-6.08-7.18-10.47-7.18h-49.81c-4.26 0-.43 7.54.48 8.88 2.31 3.41 6.08 7.18 10.47 7.18z" fill="#dd2f00"/>
</svg>
