<svg data-name="Layer 1" xmlns="http://www.w3.org/2000/svg" width="500" height="500">
  <g opacity=".77" fill="#fff">
    <path d="M256.87 198.9a27.16 27.16 0 0 1 10.66 2c11.71 4.95 18.61 18.27 11.9 30-2.51 4.4-6.86 7.16-11.47 9.08a38.52 38.52 0 0 1 21.65 17.2c6.49 11.43 4 27.5-5.9 36.23-9 7.93-22.77 11.73-35.48 11.73a58 58 0 0 1-11.31-1.08c-.23-.05-.43-.11-.61-.16l-.48-.09c-8.78-2.16-19.78-7.33-23.47-16.25-3-7.32-1.62-17 1-24.29 3.7-10.25 11.54-17 20.94-21-5.29-2-10.57-5.62-11.93-11.14-1.51-6.12.18-13.63 3.51-18.91 4.27-6.76 12-9.91 19.41-11.78a47.51 47.51 0 0 1 11.59-1.62m.77 38.94c.77-.71 1.5-1.39 1.6-1.52a17.71 17.71 0 0 0 3.4-10.31c.27-8.58-5.35-15.64-13-19.1a6.87 6.87 0 0 0-2.3-.81 1.17 1.17 0 0 0-.94.48 22.54 22.54 0 0 0-4.91 12.5c-.37 3.91-.29 8.18 2.16 11.46 2.85 3.81 7.85 6 12.36 7.25l1.62.12m3.68 61.49c.08 0 .28-.13.66-.48h.6c.2 0 .31 0 .3-.05a.69.69 0 0 0-.27-.48 34.47 34.47 0 0 0 2.9-2.05 25.71 25.71 0 0 0 7.84-15.52c2-14.32-6-26.61-18.65-33a32.77 32.77 0 0 0-9.53-3.2 5.7 5.7 0 0 0-.8 0h-1.15c-.39.27-.79.52-1.17.8-5.46 4.29-9.09 11.05-10.68 17.7s-2.2 14.86 1 21c3.85 7.52 13.31 11.82 21.19 13.87 1.32.18 5.77.68 8 .84-.24.27-.37.53-.26.53m-4.43-111.38a58.34 58.34 0 0 0-14.28 1.95c-18.49 4.66-24.16 13.63-26 16.58-5.17 8.19-7 18.7-4.89 27.42a22.88 22.88 0 0 0 3.5 7.63 44.58 44.58 0 0 0-12.2 18.11c-2 5.49-6 19.62-.81 32.22 6.27 15.16 23.77 20.95 31 22.73l.72.16.84.19a68.27 68.27 0 0 0 13.48 1.3c16.51 0 32.5-5.42 42.76-14.49 13.64-12 17.24-34 8.18-49.9a47.25 47.25 0 0 0-11.43-13.41c.44-.64.86-1.3 1.25-2a30.13 30.13 0 0 0 2.44-24.91 34.81 34.81 0 0 0-19.62-20.69 38 38 0 0 0-14.94-2.9zm-1.2 99.24c-6.67-1.84-11.94-5-13.52-8.06-1.37-2.68-1.38-7.84 0-13.47a23.29 23.29 0 0 1 4.49-9.35 28.32 28.32 0 0 1 3.21 1.37c9.2 4.6 13.94 12.67 12.68 21.58a15.33 15.33 0 0 1-3.7 8.28c-1.18-.12-2.33-.25-3.12-.35z"/>
    <path d="M262.44 298.27a.35.35 0 0 1 .2.05 7.79 7.79 0 0 0-.63.51h-.43a1.37 1.37 0 0 1 .86-.53m0-11a12.06 12.06 0 0 0-9.1 4.24l-14.78 16.71 22.25 1.55h.59l4.63.26 3.2-2.94 12.86-9.5-13.56-8.62a11.4 11.4 0 0 0-6.09-1.76z"/>
  </g>
  <g opacity=".77">
    <path d="M286.93 360.16C256 372.94 220 364.7 192.66 347c-30.42-19.64-48.37-53.72-45.9-90.13 2.52-37.18 26.59-69.29 58.07-87.78 16.87-9.9 35.58-16 55.27-15.71 18.51.29 36.38 6.28 51.87 16.3 33 21.37 57.42 58.38 52 98.78-5.05 37.88-30.42 72.77-63.79 90.81-32.13 17.37-73.67 22.45-106.23 3.37-31.93-18.71-51.11-55.53-57.49-91-6.86-38.15 3.82-77.07 25.81-108.57 10.41-14.92 24-28.37 41.27-35 16.46-6.33 35.41-4.56 52.11-.07 7.46 2 15 5.41 20.82 10.61l-1.91-4.61.17 2.12c.21 8.24 13 8.27 12.83 0-.13-4.73-1.79-7.11-5.35-10.23a45.17 45.17 0 0 0-12.78-7.75 73.82 73.82 0 0 0-29.78-5.35c-18.84.31-38.85 4.55-55.35 13.82-36.84 20.7-58 64.77-62.65 105.51-4.84 42.28 9.52 87 38 118.58 13.87 15.4 31.42 27.23 51.54 32.62 19.77 5.3 40.72 4.83 60.53 0 41.55-10.11 77.68-39.28 96-78 9.4-19.9 13.59-41.8 10.55-63.7-3.25-23.36-15-43.37-30.68-60.65-29.38-32.37-72.59-50.25-116.09-40.43-42.5 9.59-79.69 42.72-94.67 83.5-14.55 39.61-4.06 87.18 26.78 116.22 26.79 25.23 65.9 37.83 102.36 32.31a86.77 86.77 0 0 0 23.25-7c3-1.38.83-6.71-2.29-5.43z" fill="#dd2f00"/>
    <path d="M283.61 348.11c-30.83 12.35-68.22 3.06-92.92-17.92-11.76-10-21.19-22.79-26.21-36.58-5.32-14.59-6.95-30.05-4.25-44.51 5.81-31 27.15-56.3 54.66-71.29 16-8.71 33.88-13.27 52.12-11.52 16.68 1.6 33.21 9.52 45.87 19.23 25.28 19.38 42 48.36 39 79.91-2.85 29.81-22.68 59.87-47.69 76.85-27.26 18.49-64.25 26.91-95.2 14-29.28-12.2-47.92-42-56.51-71.38-9.92-33.9-5.63-69.42 11.29-100.4 7.86-14.39 18-28.72 31.57-37.94 14.9-10.1 31.79-11.92 49.39-8.3 8 1.65 16.59 3.75 23 9.21 4.26 3.65 10.1 4.91 15.15 2 4.36-2.55 7.83-9.09 5.75-14.12l-1.92-4.61c-2.38-5.76-7.06-10-13.71-9-5.71.86-11.35 6-10.84 12.28.49 6 1.46 11.44 6.12 15.73a19.64 19.64 0 0 0 18.5 4.34c13.63-4.13 16.85-20.46 9.26-31.5s-22.38-17.47-35.17-20.19c-14.24-3-28.65-2.3-42.94-.07a116.41 116.41 0 0 0-64.25 32.09c-16.57 16.39-28.29 37.19-35.9 59.09a168 168 0 0 0 13.74 139.69c12.43 21.13 29.83 40.1 51.43 52 24.87 13.72 53.5 16.77 81.27 12.37 45.89-7.26 87.79-37.46 110.27-78 13.79-24.82 20-53.07 15.9-81.28-3.66-25.14-17-47.58-33.89-66.17-33.14-36.53-84-55.52-132.54-42.68-44.82 11.88-82.16 46.72-98.6 89.81-16.54 43.36-4.92 96.43 28.41 128.74A137.29 137.29 0 0 0 217 382.55c24.83 5.88 53.55 5.93 76.9-5.45 16.7-8.14 7.9-33-10.32-29-6.6 1.45-10.46 9.12-8.73 15.38 1.87 6.8 8.76 10.18 15.37 8.73l.91-.2h-6.65l-5.33-13.26 4.48-4.49c-3.7 2.57-9 3.65-13.33 4.72a74.07 74.07 0 0 1-14.57 2.15 108.08 108.08 0 0 1-28.2-1.85c-18.87-3.85-37-12.05-51.6-24.69-27-23.42-38.53-60.84-30.83-94.57 8.06-35.27 34.83-64.83 67.68-80.12 34.17-15.91 73.4-10.8 104.71 11 32.53 22.62 55.4 61.44 47.76 101.87-7.17 38-33.4 69.43-66.61 87.12-35.29 18.79-81.56 21.45-115.12-3.9-30.37-22.93-48.2-62.78-50.1-99.87-1.82-35.61 10.08-74.47 34.79-100.85a91.28 91.28 0 0 1 47.88-27.2c17.8-4 42.29-5.91 57.28 6.72-.39-.33 3 3 1.9 1.73s.5-1.46-.08.14c.75-2.08.9-4.71 3.35-6 2.22-1.19 3.31-1.33 5.48 0a9.06 9.06 0 0 1 3.09 4.2c.88 1.94.09.92-.05-.76l-24.55 3.32 1.91 4.62 20.89-12.16c-17-14.56-42.69-20-64.66-18-22.16 1.93-41.45 12.83-56.45 29-28.58 30.89-45.08 75.28-41.94 117.38 2.85 38.3 19.62 78.74 49.46 103.83a106.06 106.06 0 0 0 57.1 24.6c20.18 2.31 41.37-1.17 60.18-8.58a140.86 140.86 0 0 0 81.25-82.89 108.31 108.31 0 0 0 4.79-58.44c-3.87-19.09-13.67-36.54-26.17-51.3-27.9-32.95-71.35-51.42-114.23-41.8-38.12 8.55-73.71 37-89.93 72.64C128.44 252.1 131 294.66 154.16 327c23.49 32.84 65.35 54.15 106 51.71a96.27 96.27 0 0 0 30.08-6.48c6.27-2.51 10.67-8.35 8.73-15.38-1.62-5.96-9.06-11.26-15.36-8.74z" fill="#fff"/>
  </g>
  <path d="M286.93 360.16C256 372.94 220 364.7 192.66 347c-30.42-19.64-48.37-53.72-45.9-90.13 2.52-37.18 26.59-69.29 58.07-87.78 16.87-9.9 35.58-16 55.27-15.71 18.51.29 36.38 6.28 51.87 16.3 33 21.37 57.42 58.38 52 98.78-5.05 37.88-30.42 72.77-63.79 90.81-32.13 17.37-73.67 22.45-106.23 3.37-31.93-18.71-51.11-55.53-57.49-91-6.86-38.15 3.82-77.07 25.81-108.57 10.41-14.92 24-28.37 41.27-35 16.46-6.33 35.41-4.56 52.11-.07 7.46 2 15 5.41 20.82 10.61l-1.91-4.61.17 2.12c.21 8.24 13 8.27 12.83 0-.13-4.73-1.79-7.11-5.35-10.23a45.17 45.17 0 0 0-12.78-7.75 73.82 73.82 0 0 0-29.78-5.35c-18.84.31-38.85 4.55-55.35 13.82-36.84 20.7-58 64.77-62.65 105.51-4.84 42.28 9.52 87 38 118.58 13.87 15.4 31.42 27.23 51.54 32.62 19.77 5.3 40.72 4.83 60.53 0 41.55-10.11 77.68-39.28 96-78 9.4-19.9 13.59-41.8 10.55-63.7-3.25-23.36-15-43.37-30.68-60.65-29.38-32.37-72.59-50.25-116.09-40.43-42.5 9.59-79.69 42.72-94.67 83.5-14.55 39.61-4.06 87.18 26.78 116.22 26.79 25.23 65.9 37.83 102.36 32.31a86.77 86.77 0 0 0 23.25-7c3-1.38.83-6.71-2.29-5.43z" fill="#dd2f00"/>
  <path d="M261.58 298.8h.43a7.79 7.79 0 0 1 .63-.51c-.31-.16-.76.17-1.06.51z" fill="#dd2f00"/>
  <path d="M289.61 257.23A38.52 38.52 0 0 0 268 240c4.61-1.92 9-4.68 11.47-9.08 6.71-11.75-.19-25.07-11.9-30-7.12-3-14.93-2.26-22.25-.41s-15.14 5-19.41 11.78c-3.33 5.28-5 12.79-3.51 18.91 1.36 5.52 6.64 9.09 11.93 11.14-9.4 3.94-17.24 10.72-20.94 21-2.61 7.25-4 17-1 24.29 3.69 8.92 14.69 14.09 23.47 16.25l.48.09c.18.05.38.11.61.16 15 3 35-.27 46.79-10.65 9.85-8.75 12.36-24.82 5.87-36.25zM241.5 219a22.54 22.54 0 0 1 4.93-12.43c.7-.85 1.52-.45 3.24.33 7.62 3.46 13.24 10.52 13 19.1a17.71 17.71 0 0 1-3.4 10.31c-.1.13-.83.81-1.6 1.52l-1.62-.12c-4.51-1.24-9.51-3.44-12.36-7.25-2.48-3.27-2.56-7.54-2.19-11.46zm31.88 61.74a25.71 25.71 0 0 1-7.84 15.52 34.47 34.47 0 0 1-2.9 2.05.69.69 0 0 1 .27.48c0 .06-.34.06-.9 0-.92.85-.8.4-.4-.05-2.26-.16-6.71-.66-8-.84-7.88-2-17.34-6.35-21.19-13.87-3.16-6.17-2.51-14.51-1-21s5.22-13.41 10.68-17.69c.38-.29.78-.54 1.17-.81a18.73 18.73 0 0 1 1.95 0 32.77 32.77 0 0 1 9.53 3.2c12.66 6.41 20.65 18.7 18.63 33.02z" fill="#dd2f00"/>
</svg>
