<?xml version="1.0" encoding="UTF-8" standalone="no"?>
<svg
   height="24px"
   viewBox="0 0 24 24"
   width="24px"
   fill="#000000"
   version="1.1"
   id="svg243"
   sodipodi:docname="person_black_24dp.svg"
   inkscape:version="1.2 (1:1.2+202206011327+fc4e4096c5)"
   xmlns:inkscape="http://www.inkscape.org/namespaces/inkscape"
   xmlns:sodipodi="http://sodipodi.sourceforge.net/DTD/sodipodi-0.dtd"
   xmlns="http://www.w3.org/2000/svg"
   xmlns:svg="http://www.w3.org/2000/svg">
  <sodipodi:namedview
     id="namedview7"
     pagecolor="#ffffff"
     bordercolor="#666666"
     borderopacity="1.0"
     inkscape:showpageshadow="2"
     inkscape:pageopacity="0.0"
     inkscape:pagecheckerboard="0"
     inkscape:deskcolor="#d1d1d1"
     showgrid="false"
     inkscape:zoom="32.583333"
     inkscape:cx="12.015345"
     inkscape:cy="12"
     inkscape:window-width="1920"
     inkscape:window-height="975"
     inkscape:window-x="1920"
     inkscape:window-y="0"
     inkscape:window-maximized="1"
     inkscape:current-layer="svg243" />
  <defs
     id="defs247" />
  <path
     d="M 0,0 H 24 V 24 H 0 Z"
     fill="none"
     id="path239"
     style="display:inline" />
  <path
     d="M 14,2 H 6 C 4.9,2 4.01,2.9 4.01,4 L 4,20 c 0,1.1 0.89,2 1.99,2 H 18 c 1.1,0 2,-0.9 2,-2 V 8 Z M 6,20 V 4 h 7 c 1.749971,1.5849824 3.374375,3.290872 5,5 v 11 z"
     id="path241"
     style="display:inline" />
  <path
     d="m 12.057657,13.959742 c 1.333597,0 2.413751,-1.080154 2.413751,-2.413751 0,-1.333597 -1.080154,-2.4137499 -2.413751,-2.4137499 -1.333597,0 -2.4137501,1.0801529 -2.4137501,2.4137499 0,1.333597 1.0801531,2.413751 2.4137501,2.413751 z m 0,1.206874 c -1.611177,0 -4.8275004,0.808608 -4.8275004,2.413751 v 1.206876 h 9.6550024 v -1.206876 c 0,-1.605143 -3.216323,-2.413751 -4.827502,-2.413751 z"
     id="path2"
     style="display:inline;stroke-width:0.603438" />
</svg>
