<?xml version="1.0" encoding="utf-8"?>
<svg version="1.1" id="Layer_1" xmlns="http://www.w3.org/2000/svg" xmlns:xlink="http://www.w3.org/1999/xlink" x="0px" y="0px"
	 viewBox="0 0 24 24" enable-background="new 0 0 24 24" xml:space="preserve">
<g>
	<path d="M4,8c0.552,0,1-0.448,1-1V5h2c0.552,0,1-0.448,1-1S7.552,3,7,3H4C3.448,3,3,3.448,3,4v3C3,7.552,3.448,8,4,8z"/>
	<path d="M20,16c-0.552,0-1,0.448-1,1v2h-2c-0.552,0-1,0.448-1,1s0.448,1,1,1h3c0.552,0,1-0.448,1-1v-3C21,16.448,20.552,16,20,16z"
		/>
	<path d="M7,19H5v-2c0-0.552-0.448-1-1-1s-1,0.448-1,1v3c0,0.552,0.448,1,1,1h3c0.552,0,1-0.448,1-1S7.552,19,7,19z"/>
	<path d="M20,3h-3c-0.552,0-1,0.448-1,1s0.448,1,1,1h2v2c0,0.552,0.448,1,1,1s1-0.448,1-1V4C21,3.448,20.552,3,20,3z"/>
	<path d="M16,11.5c-0.552,0-1,0.448-1,1c0,1.654-1.346,3-3,3s-3-1.346-3-3s1.346-3,3-3c0.006,0,0.012-0.004,0.018-0.004v1.619
		c0,0.229,0.262,0.36,0.445,0.223l3.388-2.541c0.198-0.148,0.198-0.445,0-0.594l-3.388-2.541c-0.184-0.138-0.445-0.007-0.445,0.223
		v1.619C12.012,7.504,12.006,7.5,12,7.5c-2.757,0-5,2.243-5,5s2.243,5,5,5s5-2.243,5-5C17,11.948,16.552,11.5,16,11.5z"/>
</g>
</svg>
