<svg xmlns="http://www.w3.org/2000/svg" width="566.93" height="566.93" xml:space="preserve"><circle fill="olive" cx="283.465" cy="283.464" r="283.465"/><path fill="#FFF" d="M473.476 246.481a14.647 14.647 0 0 0-11.894-6.098h-34.827c.019-.32.047-.64.045-.965-.196-40.823-14.416-79.245-40.04-108.188-26.083-29.465-60.855-45.69-97.915-45.69-37.202.008-72.065 16.344-98.168 46-25.643 29.133-39.765 67.747-39.765 108.732 0 .039.006.076.006.114h-34.789c-4.714 0-9.142 2.27-11.893 6.099a14.642 14.642 0 0 0-1.992 13.216l58.572 174.284a14.647 14.647 0 0 0 13.885 9.981h228.32a14.649 14.649 0 0 0 13.885-9.982l58.561-174.285a14.652 14.652 0 0 0-1.991-13.218zm-293.441-6.211c0-69.248 48.816-125.596 108.814-125.608 59.678 0 108.498 56.027 108.828 124.896.001.279.028.551.045.825H180.03c0-.038.005-.075.005-.113zm72.451 85.137-4.619-55.728h80.209l-4.8 55.728h-70.79zm68.178 30.345-5.071 58.915h-55.708l-4.882-58.915h65.661zm-103.788-86.073 4.619 55.728h-65.023v3.682l-19.967-59.409h80.371zm-51.444 86.073h58.577l4.883 58.915h-43.661l-19.799-58.915zm227.062 58.915h-46.086l5.072-58.915h60.808l-19.794 58.915zm29.99-89.26h-68.391l4.798-55.728h82.317l-18.724 55.728z"/></svg>