<svg xmlns="http://www.w3.org/2000/svg" viewBox="0 0 24 24"><path d="M24 12v-.34a.66.66 0 010 .14c0 .07 0 .14-.07.22a1 1 0 01.08.31C24 12.22 24 12.11 24 12zm-3.35-8.3l-1.17 1.15a4 4 0 00-2.36-.74 8.71 8.71 0 00-4.89 2.48 3 3 0 00-1 1.68 2.73 2.73 0 001 1.73c2.39 1.44 7.74.11 9.24 0 0 0 2.16-.09 2.49 1.16a11.91 11.91 0 00-3.31-7.46zm.57 12.58a50.74 50.74 0 01-14.91 6.29A12 12 0 0024 12.84c-.41 1.89-2.78 3.44-2.78 3.44z"/><path d="M3.76 20.71c4.82-.77 11.15-2.34 15.89-5.58a8.68 8.68 0 002.56-2.32c-.87-1.11-4.74.29-4.74.29a18.89 18.89 0 01-3.94.59 4.76 4.76 0 01-3.39-1.25 2.33 2.33 0 01-.48-2c-.22-1.09.21-3 3.81-6.27a10 10 0 014.86-2.35A12 12 0 003.76 20.71z"/></svg>