<svg xmlns="http://www.w3.org/2000/svg" width="566.93" height="566.93" xml:space="preserve"><circle fill="#F0F" cx="283.465" cy="283.464" r="283.465"/><path opacity=".5" fill="#FFF" d="m165.452 158.716 239.169 1.937L365.89 447.27l-163.643 1.936-36.795-290.49z"/><path fill="#FFF" d="M426.671 126.834c.222-.191.344-.384.344-.578 0-4.58-62.525-8.292-139.66-8.292-77.131 0-139.659 3.712-139.659 8.292 0 .194.121.387.343.578h-.343l43.588 332.375h.196c-.385.21-.59.419-.59.633 0 3.165 43.189 5.728 96.467 5.728s96.467-2.562 96.467-5.728c0-.214-.207-.426-.591-.633l43.635-332.375h-.197zM355.249 434.91c-2.233 2.066-134.671 1.099-136.903-.97l-41.405-262.436c73.333 50.832 121.562-6.904 217.629-1.938L355.249 434.91z"/></svg>