<svg xmlns="http://www.w3.org/2000/svg" width="566.93" height="566.93" xml:space="preserve"><circle fill="#FFC837" cx="283.465" cy="283.464" r="283.465"/><path d="M120.72 173.782v247.183h325.49V173.782H120.72zm285.508 23.252L302.229 300.635c-5.169 5.168-11.695 7.754-19.579 7.754-8.158 0-14.958-2.722-20.401-8.165l-103.19-103.19h247.169zm-262.667 15.908 84.431 84.841-84.431 84.433V212.942zm15.087 185.18 84.841-84.431 3.672 3.673c9.792 9.519 21.621 14.278 35.488 14.278 13.868 0 25.559-4.76 35.078-14.278l3.672-3.673 84.83 84.431H158.648zm263.898-15.906-84.43-84.432 84.43-84.842v169.274z"/></svg>