<svg xmlns="http://www.w3.org/2000/svg" width="24" height="24">
  <path d="M24 9.19a2 2 0 0 0-2-2h-.11L14 1.69a2 2 0 0 0-4 0L2.15 7.16H2A2 2 0 0 0 1.12 11l2.93 8.66a2 2 0 0 0 1.81 3 2 2 0 0 0 1.69-.9h8.9a2 2 0 0 0 3.73-1.14 2.05 2.05 0 0 0-.23-.92l2.93-8.7A2 2 0 0 0 24 9.19zm-5.86 9.35a2 2 0 0 0-1.82 1.14H7.68a2 2 0 0 0-1.82-1.14l-2.64-7.69a2.05 2.05 0 0 0 .71-2.44l6.83-4.76a2 2 0 0 0 2.48 0l6.83 4.76a2.05 2.05 0 0 0 .71 2.44l-2.61 7.69z"/>
  <path d="M14.8 13.51a4.46 4.46 0 0 0 .69-2.66A4.5 4.5 0 1 0 11 15.62a4.43 4.43 0 0 0 2.39-.7l2.41 2.41a1 1 0 0 0 .71.29 1 1 0 0 0 .71-.29 1 1 0 0 0 0-1.42zm-3.8.11a2.5 2.5 0 1 1 2.5-2.5 2.5 2.5 0 0 1-2.5 2.5z"/>
</svg>
