<?xml version="1.0" encoding="UTF-8" standalone="no"?><!DOCTYPE svg PUBLIC "-//W3C//DTD SVG 1.1//EN" "http://www.w3.org/Graphics/SVG/1.1/DTD/svg11.dtd"><svg width="100%" height="100%" viewBox="0 0 100 100" version="1.1" xmlns="http://www.w3.org/2000/svg" xmlns:xlink="http://www.w3.org/1999/xlink" xml:space="preserve" xmlns:serif="http://www.serif.com/" style="fill-rule:evenodd;clip-rule:evenodd;stroke-linejoin:round;stroke-miterlimit:2;"><rect id="Bullet" x="0" y="0" width="100" height="100" style="fill:none;"/><g id="Bullet1" serif:id="Bullet"><path d="M10.175,26.506l40.248,-23.148l39.726,23.461l0,47.755l-39.935,22.105l-40.352,-22.627l0.313,-47.546Z" style="fill:#84ac2b;fill-rule:nonzero;"/><path d="M7.285,24.821l-0.335,50.925l43.255,24.254l42.845,-23.716l0,-51.122l-42.608,-25.162l-43.157,24.821Zm45.622,26.923l-0,40.128l34.341,-19.008l-0,-40.983l-34.341,19.863Zm-40.133,20.615l34.33,19.25l0,-39.854l-34.066,-19.441l-0.264,40.045Zm2.51,-45.445l34.712,19.811l34.432,-19.916l-34.025,-20.093l-35.119,20.198Z" style="fill:#fff;"/></g></svg>