<svg width="15" height="20" viewBox="0 0 15 20" fill="none" xmlns="http://www.w3.org/2000/svg">
    <path d="M7.40741 0C3.31217 0 0 3.13 0 7C0 8.74 0.5291 10.37 1.49206 11.84C2.49735 13.38 3.82011 14.7 4.83598 16.24C5.33333 16.99 5.69312 17.69 6.07407 18.5C6.34921 19.05 6.57143 20 7.40741 20C8.24339 20 8.46561 19.05 8.73016 18.5C9.12169 17.69 9.4709 16.99 9.96825 16.24C10.9841 14.71 12.3069 13.39 13.3122 11.84C14.2857 10.37 14.8148 8.74 14.8148 7C14.8148 3.13 11.5026 0 7.40741 0ZM7.40741 9.75C5.94709 9.75 4.7619 8.63 4.7619 7.25C4.7619 5.87 5.94709 4.75 7.40741 4.75C8.86773 4.75 10.0529 5.87 10.0529 7.25C10.0529 8.63 8.86773 9.75 7.40741 9.75Z" fill="#C74040"/>
</svg>
