<svg xmlns="http://www.w3.org/2000/svg" width="566.93" height="566.93" xml:space="preserve"><circle fill="#003380" cx="283.465" cy="283.465" r="283.464"/><path fill="#FFF" d="M206.269 123.713c-22.536 0-66.068 57.117-66.068 109.292 0 41.99 19.164 77.562 45.664 89.858l-5.486 124.286h51.781l-5.485-124.286c26.5-12.297 45.663-47.868 45.663-89.858.001-52.176-43.53-109.292-66.069-109.292zM422.309 273.884l-6.886-142.778a4.94 4.94 0 0 0-4.94-4.94h-3.243a4.941 4.941 0 0 0-4.94 4.94l2.295 142.778h-14.262l-3.612-144.168a4.94 4.94 0 0 0-4.941-4.94h-4.22a4.94 4.94 0 0 0-4.94 4.94l1.955 144.168h-17.697l1.952-144.168a4.94 4.94 0 0 0-4.939-4.94h-4.221a4.939 4.939 0 0 0-4.938 4.94l-3.614 144.168h-13.964l2.296-142.761a4.94 4.94 0 0 0-4.94-4.939h-3.243a4.94 4.94 0 0 0-4.94 4.939l-7.16 142.761c0 41.99 9.655 57.803 36.153 70.099l-5.484 103.166h51.781l-5.484-103.166c26.499-12.297 36.176-28.109 36.176-70.099z"/></svg>