<?xml version="1.0" encoding="utf-8"?>
<!-- Generator: Adobe Illustrator 22.0.1, SVG Export Plug-In . SVG Version: 6.00 Build 0)  -->
<svg version="1.1" id="Ebene_1" xmlns="http://www.w3.org/2000/svg" xmlns:xlink="http://www.w3.org/1999/xlink" x="0px" y="0px"
	 viewBox="0 0 141.7 141.7" style="enable-background:new 0 0 141.7 141.7;" xml:space="preserve">
<style type="text/css">
	.st0{clip-path:url(#SVGID_2_);fill:#006FB8;}
	.st1{clip-path:url(#SVGID_4_);fill:#84AC2B;}
	.st2{clip-path:url(#SVGID_4_);fill:none;stroke:#FFFFFF;stroke-width:5.565;}
	.st3{fill:#84AC2B;}
	.st4{clip-path:url(#SVGID_6_);fill:none;stroke:#FFFFFF;stroke-width:5.565;}
	.st5{fill:none;stroke:#FFFFFF;stroke-width:5.565;}
</style>
<g>
	<defs>
		<rect id="SVGID_1_" x="4.6" y="4.6" width="132.5" height="132.5"/>
	</defs>
	<clipPath id="SVGID_2_">
		<use xlink:href="#SVGID_1_"  style="overflow:visible;"/>
	</clipPath>
	<path class="st0" d="M4.6,4.6v90.4c0,0,0,42.1,42.1,42.1h90.4V4.6H4.6z"/>
</g>
<g>
	<defs>
		<path id="SVGID_3_" d="M4.6,4.6v90.4c0,0,0,42.1,42.1,42.1h90.4V4.6H4.6z"/>
	</defs>
	<clipPath id="SVGID_4_">
		<use xlink:href="#SVGID_3_"  style="overflow:visible;"/>
	</clipPath>
	<path class="st1" d="M116.8,94.5c40.5,0,73.3-32.8,73.3-73.3c0-40.5-32.8-73.3-73.3-73.3S43.5-19.3,43.5,21.1
		C43.5,61.6,76.4,94.5,116.8,94.5"/>
	<circle class="st2" cx="116.8" cy="21.1" r="73.3"/>
</g>
<polygon class="st3" points="35.3,46.2 73.9,24 112,46.5 112,92.3 73.7,113.5 35,91.8 "/>
<polygon class="st3" points="35.2,46.6 35.2,47 73.5,68.8 112,46.5 111.6,46.3 "/>
<g>
	<defs>
		<polygon id="SVGID_5_" points="35.3,46.2 35,91.8 73.7,113.5 112,92.3 112,46.5 73.9,24 		"/>
	</defs>
	<clipPath id="SVGID_6_">
		<use xlink:href="#SVGID_5_"  style="overflow:visible;"/>
	</clipPath>
	<polyline class="st4" points="34.6,46.6 73.5,68.8 112.4,46.3 	"/>
	<line class="st4" x1="73.5" y1="69.2" x2="73.5" y2="114"/>
</g>
<polygon class="st5" points="35.3,46.2 73.9,24 112,46.5 112,92.3 73.7,113.5 35,91.8 "/>
</svg>
