<svg xmlns="http://www.w3.org/2000/svg" viewBox="0 0 24 24"><path d="M24 9.19a2 2 0 00-2-2h-.11L14 1.69a2 2 0 00-4 0L2.15 7.16H2A2 2 0 001.12 11l2.93 8.66a2 2 0 001.81 3 2 2 0 001.69-.9h8.9a2 2 0 003.73-1.14 2.05 2.05 0 00-.23-.92l2.93-8.7A2 2 0 0024 9.19zm-5.86 9.35a2 2 0 00-1.82 1.14H7.68a2 2 0 00-1.82-1.14l-2.64-7.69a2.05 2.05 0 00.71-2.44l6.83-4.76a2 2 0 002.48 0l6.83 4.76a2.05 2.05 0 00.71 2.44l-2.61 7.69z"/><path d="M14.8 13.51a4.46 4.46 0 00.69-2.66A4.5 4.5 0 1011 15.62a4.43 4.43 0 002.39-.7l2.41 2.41a1 1 0 00.71.29 1 1 0 00.71-.29 1 1 0 000-1.42zm-3.8.11a2.5 2.5 0 112.5-2.5 2.5 2.5 0 01-2.5 2.5z"/></svg>