<svg xmlns="http://www.w3.org/2000/svg" xmlns:xlink="http://www.w3.org/1999/xlink" xml:space="preserve" id="Ebene_1" x="0" y="0" style="enable-background:new 0 0 141.7 141.7" version="1.1" viewBox="0 0 141.7 141.7"><style>.st3{fill:#84ac2b}.st4{clip-path:url(#SVGID_6_);fill:none;stroke:#fff;stroke-width:5.565}</style><defs><path id="SVGID_1_" d="M4.6 4.6h132.5v132.5H4.6z"/></defs><clipPath id="SVGID_2_"><use xlink:href="#SVGID_1_" style="overflow:visible"/></clipPath><path d="M4.6 4.6V95s0 42.1 42.1 42.1h90.4V4.6H4.6z" style="clip-path:url(#SVGID_2_);fill:#006fb8"/><defs><path id="SVGID_3_" d="M4.6 4.6V95s0 42.1 42.1 42.1h90.4V4.6H4.6z"/></defs><clipPath id="SVGID_4_"><use xlink:href="#SVGID_3_" style="overflow:visible"/></clipPath><path d="M116.8 94.5c40.5 0 73.3-32.8 73.3-73.3s-32.8-73.3-73.3-73.3-73.3 32.8-73.3 73.2c0 40.5 32.9 73.4 73.3 73.4" style="clip-path:url(#SVGID_4_);fill:#84ac2b"/><circle cx="116.8" cy="21.1" r="73.3" style="clip-path:url(#SVGID_4_);fill:none;stroke:#fff;stroke-width:5.565"/><path d="M35.3 46.2 73.9 24 112 46.5v45.8l-38.3 21.2L35 91.8z" class="st3"/><path d="M35.2 46.6v.4l38.3 21.8L112 46.5l-.4-.2z" class="st3"/><defs><path id="SVGID_5_" d="M35.3 46.2 35 91.8l38.7 21.7L112 92.3V46.5L73.9 24z"/></defs><clipPath id="SVGID_6_"><use xlink:href="#SVGID_5_" style="overflow:visible"/></clipPath><path d="m34.6 46.6 38.9 22.2 38.9-22.5M73.5 69.2V114" class="st4"/><path d="M35.3 46.2 73.9 24 112 46.5v45.8l-38.3 21.2L35 91.8z" style="fill:none;stroke:#fff;stroke-width:5.565"/></svg>