<svg width="24" height="24" viewBox="0 0 24 24" fill="none" xmlns="http://www.w3.org/2000/svg">
<path d="M12.2155 22.1576C17.9625 22.1576 22.6213 17.4988 22.6213 11.7519C22.6213 6.00499 17.9625 1.34619 12.2155 1.34619C6.46861 1.34619 1.80981 6.00499 1.80981 11.7519C1.80981 17.4988 6.46861 22.1576 12.2155 22.1576Z" fill="#004FFF"/>
<path d="M9.11433 6.25928C8.30293 6.25928 6.7356 8.31574 6.7356 10.1943C6.7356 11.7061 7.42558 12.9868 8.3797 13.4295L8.18218 17.9044H10.0465L9.84903 13.4295C10.8031 12.9868 11.4931 11.7061 11.4931 10.1943C11.4931 8.3157 9.92583 6.25928 9.11433 6.25928ZM16.8927 11.6661L16.6448 6.52546C16.6448 6.42789 16.5645 6.3476 16.4669 6.3476H16.3501C16.2526 6.34763 16.1723 6.42789 16.1723 6.52546L16.2549 11.6661H15.7414L15.6114 6.47541C15.6114 6.37784 15.5311 6.29755 15.4335 6.29755H15.2815C15.184 6.29755 15.1037 6.37784 15.1037 6.47541L15.1741 11.6661H14.5369L14.6072 6.47541C14.6072 6.37784 14.5269 6.29759 14.4294 6.29755H14.2774C14.1798 6.29759 14.0996 6.37784 14.0996 6.47538V6.47541L13.9695 11.6661H13.4667L13.5494 6.52607C13.5493 6.4285 13.4691 6.34824 13.3715 6.34824H13.2547C13.1572 6.34824 13.0769 6.4285 13.0769 6.52607L12.8191 11.6661C12.8191 13.1779 13.1667 13.7472 14.1208 14.1899L13.9233 17.9044H15.7877L15.5902 14.1899C16.5443 13.7472 16.8927 13.1779 16.8927 11.6661Z" fill="white"/>
</svg>
