<svg xmlns="http://www.w3.org/2000/svg" fill-rule="evenodd" stroke-linejoin="round" stroke-miterlimit="2" clip-rule="evenodd" viewBox="0 0 24 24"><path fill-rule="nonzero" d="M24 9.19c0-1.097-.903-2-2-2h-.11L14 1.69c0-1.097-.903-2-2-2s-2 .903-2 2L2.15 7.16H2A2.01 2.01 0 00-.102 9.157c0 .803.483 1.531 1.222 1.843l2.93 8.66c-.176.304-.269.65-.269 1.002A2.01 2.01 0 005.86 22.66a2 2 0 001.69-.9h8.9a2.002 2.002 0 001.735 1.006 2.01 2.01 0 001.995-2.146 2.047 2.047 0 00-.23-.92l2.93-8.7A2.004 2.004 0 0024 9.19zm-5.86 9.35a2.002 2.002 0 00-1.82 1.14H7.68a2.002 2.002 0 00-1.82-1.14l-2.64-7.69a2.055 2.055 0 00.71-2.44l6.83-4.76a2.007 2.007 0 002.48 0l6.83 4.76a2.055 2.055 0 00.71 2.44l-2.61 7.69h-.03z"/><path fill-rule="nonzero" d="M16.61 11.13L7.2 7.2l3.93 9.41 1.22-3.12 3.31 3.31 1.14-1.14-3.31-3.31 3.12-1.22z"/></svg>