<svg version="1.1" xmlns="http://www.w3.org/2000/svg" xmlns:xlink="http://www.w3.org/1999/xlink" x="0px" y="0px"
	 width="20px" height="20px" viewBox="0 0 20 20" >
<g>
	<path fill-opacity="0.5" d="M3.694,3.694l2.281,4l1.344-0.375l0.344-1.312L3.694,3.694z"/>
	<path fill-opacity="0.5" d="M15.775,3.694l-4,2.281l0.375,1.344l1.344,0.375L15.775,3.694z"/>
	<path fill-opacity="0.5" d="M6.006,11.807l-2.312,3.969l3.969-2.312L7.319,12.15L6.006,11.807z"/>
	<path fill-opacity="0.5" d="M13.463,11.807L12.15,12.15l-0.375,1.344l4,2.281L13.463,11.807z"/>
</g>
<path d="M18.807,9.736l-7.15,1.926L9.73,18.816l-1.925-7.154L0.654,9.736L7.805,7.81L9.73,0.656l1.926,7.154L18.807,9.736z"/>
<path fill="#FFFFFF" d="M10.274,4.947c-0.011,0-0.028,0.004-0.051,0.01s-0.04,0.012-0.049,0.019
	c-0.014,0.01-0.024,0.029-0.029,0.057c-0.005,0.028-0.008,0.064-0.008,0.107v0.617h-0.051l-0.51-0.689v0.434
	c0,0.049,0.003,0.087,0.009,0.113C9.591,5.64,9.6,5.658,9.613,5.669c0.009,0.009,0.028,0.017,0.057,0.024
	c0.028,0.007,0.047,0.011,0.057,0.012v0.042H9.38V5.706c0.011,0,0.029-0.004,0.054-0.012c0.025-0.007,0.042-0.013,0.047-0.018
	C9.496,5.665,9.505,5.647,9.51,5.625c0.005-0.023,0.008-0.062,0.008-0.116V5.093c0-0.019-0.003-0.037-0.01-0.055
	C9.502,5.02,9.494,5.006,9.483,4.997C9.469,4.983,9.45,4.972,9.425,4.963C9.4,4.954,9.381,4.948,9.366,4.947V4.905h0.241
	l0.474,0.642v-0.4c0-0.049-0.003-0.087-0.01-0.113s-0.015-0.043-0.027-0.052c-0.011-0.008-0.029-0.015-0.054-0.022
	C9.964,4.953,9.945,4.948,9.932,4.947V4.905h0.343V4.947z"/>
<path fill="#FFFFFF" d="M14.1,9.785l-0.018,0.248h-0.698V9.99c0.012,0,0.027-0.002,0.048-0.005c0.02-0.002,0.031-0.005,0.038-0.008
	c0.012-0.006,0.021-0.014,0.025-0.023c0.007-0.01,0.008-0.021,0.008-0.036V9.312c0-0.013-0.001-0.024-0.006-0.035
	s-0.014-0.019-0.027-0.024c-0.011-0.005-0.024-0.01-0.043-0.014c-0.019-0.003-0.032-0.006-0.043-0.007V9.19h0.651v0.203H13.99
	c-0.007-0.03-0.024-0.062-0.052-0.096c-0.025-0.034-0.05-0.052-0.074-0.056c-0.013-0.001-0.026-0.002-0.043-0.003
	c-0.019,0-0.037-0.001-0.059-0.001H13.63v0.335h0.095c0.03,0,0.054-0.003,0.067-0.009c0.014-0.006,0.026-0.016,0.037-0.029
	c0.009-0.012,0.017-0.027,0.022-0.046c0.006-0.019,0.009-0.037,0.013-0.054h0.044v0.33h-0.044c-0.004-0.019-0.007-0.039-0.015-0.06
	c-0.006-0.021-0.014-0.037-0.021-0.046c-0.013-0.016-0.026-0.026-0.042-0.03c-0.017-0.005-0.036-0.007-0.062-0.007H13.63v0.252
	c0,0.025,0.002,0.045,0.005,0.06c0.004,0.015,0.011,0.026,0.021,0.033c0.011,0.008,0.024,0.013,0.043,0.015
	c0.017,0.002,0.042,0.003,0.074,0.003c0.014,0,0.031,0,0.052,0c0.021,0,0.04,0,0.054-0.002c0.016-0.002,0.031-0.004,0.048-0.009
	c0.015-0.004,0.027-0.01,0.033-0.017c0.019-0.019,0.038-0.048,0.059-0.086c0.02-0.039,0.032-0.067,0.038-0.085H14.1z"/>
<path fill="#FFFFFF" d="M6.792,9.228c-0.009,0-0.021,0.002-0.034,0.007C6.745,9.238,6.733,9.244,6.722,9.25
	C6.708,9.259,6.698,9.27,6.688,9.28C6.681,9.292,6.673,9.308,6.667,9.328c-0.029,0.091-0.061,0.198-0.099,0.32
	C6.531,9.77,6.491,9.9,6.448,10.038H6.394L6.181,9.389l-0.222,0.649H5.907C5.868,9.9,5.828,9.756,5.785,9.607
	c-0.042-0.149-0.07-0.249-0.084-0.3C5.698,9.295,5.692,9.284,5.686,9.275C5.678,9.266,5.669,9.257,5.657,9.249
	C5.647,9.242,5.635,9.237,5.623,9.234C5.609,9.23,5.597,9.228,5.586,9.228V9.185H5.93v0.042C5.9,9.229,5.874,9.232,5.854,9.236
	C5.833,9.241,5.822,9.248,5.822,9.258c0,0.004,0,0.009,0.001,0.016S5.825,9.286,5.826,9.29c0.009,0.035,0.024,0.092,0.047,0.173
	c0.024,0.081,0.058,0.201,0.104,0.361l0.209-0.626h0.058l0.212,0.64c0.029-0.099,0.054-0.185,0.074-0.258
	C6.552,9.505,6.569,9.442,6.583,9.39c0.009-0.037,0.015-0.062,0.019-0.076C6.603,9.301,6.604,9.289,6.604,9.28
	c0-0.014-0.009-0.025-0.028-0.034C6.559,9.237,6.528,9.23,6.487,9.228V9.185h0.306V9.228z"/>
<path fill="#FFFFFF" d="M10.058,13.018c0.017,0.02,0.03,0.041,0.038,0.064c0.009,0.024,0.014,0.051,0.014,0.082
	c0,0.075-0.027,0.137-0.083,0.185c-0.055,0.048-0.124,0.072-0.205,0.072c-0.038,0-0.075-0.006-0.113-0.019
	c-0.037-0.01-0.07-0.024-0.098-0.042l-0.024,0.044H9.54L9.53,13.115h0.049c0.009,0.036,0.021,0.068,0.034,0.097
	c0.014,0.028,0.032,0.056,0.053,0.081c0.02,0.022,0.044,0.041,0.072,0.056c0.027,0.014,0.06,0.021,0.096,0.021
	c0.027,0,0.05-0.003,0.07-0.011c0.021-0.008,0.038-0.017,0.05-0.03s0.021-0.028,0.027-0.046c0.006-0.018,0.009-0.038,0.009-0.062
	c0-0.033-0.009-0.064-0.027-0.094c-0.02-0.029-0.047-0.052-0.085-0.066c-0.026-0.01-0.055-0.021-0.089-0.034
	c-0.032-0.012-0.061-0.024-0.085-0.035c-0.047-0.021-0.084-0.049-0.11-0.084c-0.027-0.035-0.04-0.079-0.04-0.136
	c0-0.032,0.006-0.062,0.02-0.089c0.012-0.028,0.03-0.053,0.055-0.075c0.023-0.02,0.051-0.036,0.081-0.048
	c0.032-0.012,0.064-0.018,0.098-0.018c0.04,0,0.073,0.006,0.105,0.019c0.03,0.012,0.058,0.025,0.083,0.041l0.024-0.04h0.047
	l0.006,0.279h-0.049c-0.009-0.032-0.018-0.063-0.029-0.093c-0.011-0.028-0.026-0.055-0.043-0.079
	c-0.017-0.022-0.038-0.041-0.062-0.055s-0.054-0.021-0.09-0.021s-0.069,0.013-0.096,0.036c-0.026,0.023-0.04,0.055-0.04,0.089
	c0,0.036,0.009,0.066,0.026,0.09c0.017,0.024,0.042,0.044,0.075,0.06c0.029,0.014,0.057,0.025,0.084,0.036
	c0.029,0.01,0.055,0.021,0.081,0.032c0.024,0.011,0.047,0.021,0.069,0.035C10.022,12.984,10.041,12.999,10.058,13.018z"/>
</svg>
