<svg xmlns="http://www.w3.org/2000/svg" fill-rule="evenodd" stroke-linejoin="round" stroke-miterlimit="2" clip-rule="evenodd" viewBox="0 0 40 40"><g transform="translate(42.275 -2.541) scale(1.38666)"><path fill="none" d="M-30.487 1.833h28.846v28.846h-28.846z"/><clipPath id="a"><path d="M-30.487 1.833h28.846v28.846h-28.846z"/></clipPath><g clip-path="url(#a)"><path fill-rule="nonzero" d="M-24.853 31.117c-.54 0-1.014-.217-1.42-.65a2.145 2.145 0 01-.608-1.514V4.433c0-.576.203-1.08.608-1.514.406-.432.88-.649 1.42-.649h12.204l7.403 7.897v18.786c0 .577-.203 1.082-.609 1.515-.405.432-.879.649-1.42.649h-17.578zm11.19-19.976V4.434h-11.19v24.52h17.578V11.14h-6.389zm-11.19-6.707v6.707-6.707 24.52-24.52z"/></g></g></svg>