<svg xmlns="http://www.w3.org/2000/svg" fill-rule="evenodd" stroke-linejoin="round" stroke-miterlimit="2" clip-rule="evenodd" viewBox="0 0 40 40"><g transform="translate(42.275 -2.541) scale(1.38666)"><path fill="none" d="M-30.487 1.833h28.846v28.846h-28.846z"/><clipPath id="a"><path d="M-30.487 1.833h28.846v28.846h-28.846z"/></clipPath><g clip-path="url(#a)"><path d="M-24.852 30.679c-.541 0-1.015-.217-1.42-.65a2.143 2.143 0 01-.609-1.514V3.996c0-.577.203-1.082.609-1.514.405-.433.879-.65 1.42-.65h12.202l7.404 7.897v18.786c0 .577-.203 1.082-.609 1.515-.405.432-.878.649-1.42.649h-17.577zm17.578-10.692v-9.284h-6.39V3.996h-11.188v15.99h17.578z"/><path fill="#fff" fill-rule="nonzero" d="M-21.264 22.435c.373-.087.73-.135 1.087-.135a2.8 2.8 0 01.754.095c.222.072.412.175.579.31.159.142.278.325.373.547.087.222.127.492.127.801 0 .317-.048.587-.135.81-.087.23-.214.412-.381.547a1.546 1.546 0 01-.587.309 2.92 2.92 0 01-.77.095h-.333v2.039h-.714v-5.418zm.714 2.752h.286c.182 0 .341-.023.492-.063a.943.943 0 00.365-.19.84.84 0 00.23-.35c.055-.142.079-.317.079-.53 0-.215-.024-.39-.08-.54a1.004 1.004 0 00-.213-.35.833.833 0 00-.342-.182 1.529 1.529 0 00-.436-.055c-.135 0-.262.008-.38.023v2.237zM-17.297 22.435c.373-.087.73-.135 1.087-.135a2.8 2.8 0 01.753.095c.222.072.413.175.58.31.158.142.277.325.372.547.087.222.127.492.127.801 0 .317-.048.587-.135.81-.087.23-.214.412-.38.547a1.546 1.546 0 01-.588.309 2.92 2.92 0 01-.77.095h-.332v2.039h-.714v-5.418zm.714 2.752h.285c.183 0 .341-.023.492-.063a.943.943 0 00.365-.19.84.84 0 00.23-.35c.056-.142.08-.317.08-.53 0-.215-.024-.39-.08-.54a1.004 1.004 0 00-.214-.35.833.833 0 00-.341-.182 1.529 1.529 0 00-.437-.055c-.134 0-.261.008-.38.023v2.237zM-10.729 22.356v.61h-1.222v4.887h-.714v-4.887h-1.221v-.61h3.157z"/></g></g></svg>