<?xml version="1.0" encoding="utf-8"?>
<!DOCTYPE svg PUBLIC "-//W3C//DTD SVG 1.1//EN" "http://www.w3.org/Graphics/SVG/1.1/DTD/svg11.dtd">
<svg version="1.1" id="Layer_1" xmlns="http://www.w3.org/2000/svg" x="0px" y="0px"
     width="24px" height="24px" viewBox="0 0 24 24" enable-background="new 0 0 24 24" xml:space="preserve">
<path d="M15.223,12.155l-6.445-4.92l1.052,7.776l1.534-1.94l2.177,3.695l1.209-0.711l-2.093-3.553L15.223,12.155z"/>
<g>
	<path d="M12,24c-0.409,0-0.814-0.021-1.213-0.061l0.316-3.199c0.608,0.062,1.239,0.06,1.843-0.006l0.345,3.196
		C12.867,23.977,12.437,24,12,24z M8.327,23.425c-0.799-0.257-1.572-0.601-2.295-1.018l1.6-2.788
		c0.529,0.307,1.093,0.557,1.679,0.746L8.327,23.425z M15.74,23.402l-1-3.054c0.583-0.192,1.146-0.445,1.677-0.755l1.613,2.778
		C17.307,22.795,16.536,23.143,15.74,23.402z M4,20.938c-0.622-0.56-1.188-1.185-1.684-1.861l2.586-1.901
		c0.363,0.496,0.78,0.955,1.236,1.365L4,20.938z M20.056,20.89L17.9,18.506c0.457-0.416,0.869-0.876,1.227-1.372l2.601,1.884
		C21.239,19.695,20.676,20.324,20.056,20.89z M1.054,16.904c-0.344-0.767-0.608-1.571-0.784-2.392l3.135-0.677
		c0.129,0.601,0.322,1.188,0.574,1.748L1.054,16.904z M22.975,16.841l-2.929-1.309c0.246-0.557,0.437-1.144,0.562-1.746l3.141,0.656
		C23.574,15.271,23.314,16.077,22.975,16.841z M0.396,12.005L0,12.003c0-0.876,0.087-1.717,0.258-2.533l3.139,0.665
		c-0.126,0.598-0.19,1.215-0.19,1.834L0.396,12.005z M20.794,11.95c-0.001-0.616-0.067-1.232-0.194-1.834l3.136-0.669
		c0.176,0.82,0.264,1.66,0.265,2.499L20.794,11.95z M3.963,8.384l-2.93-1.308c0.34-0.765,0.762-1.499,1.255-2.178L4.883,6.79
		C4.521,7.287,4.212,7.824,3.963,8.384z M20.031,8.37c-0.251-0.561-0.562-1.096-0.923-1.593l2.59-1.896
		c0.493,0.678,0.917,1.409,1.26,2.174L20.031,8.37z M6.114,5.419L3.966,3.031c0.623-0.563,1.304-1.061,2.026-1.48l1.607,2.783
		C7.07,4.641,6.571,5.006,6.114,5.419z M17.875,5.409c-0.459-0.413-0.96-0.777-1.488-1.083l1.603-2.785
		c0.722,0.417,1.405,0.914,2.028,1.477L17.875,5.409z M9.275,3.583L8.282,0.525c0.795-0.26,1.621-0.436,2.454-0.523L11.072,3.2
		C10.461,3.264,9.857,3.394,9.275,3.583z M14.708,3.578c-0.581-0.189-1.186-0.317-1.796-0.379L13.241,0
		c0.834,0.086,1.659,0.26,2.455,0.519L14.708,3.578z"/>
</g>
</svg>
