<svg xmlns="http://www.w3.org/2000/svg" width="24" height="24" viewBox="0 0 24 24">
<path d="M18.556,4.303L4.1,18.76c0.078,0.3,0.237,0.572,0.448,0.792C4.768,19.763,5.04,19.922,5.34,20L19.806,5.543
	C19.638,4.937,19.164,4.462,18.556,4.303z M11.843,4.233l-7.814,7.814v2.489L14.332,4.233H11.843z M5.788,4.233
	c-0.967,0-1.76,0.792-1.76,1.759v1.76l3.52-3.52H5.788z M18.108,20.071c0.484,0,0.924-0.194,1.24-0.52
	c0.326-0.316,0.52-0.756,0.52-1.24v-1.76l-3.52,3.52H18.108z M9.564,20.071h2.49l7.814-7.814V9.768L9.564,20.071z"/>
<path d="M19,5v14H5V5H19 M19,3H5C3.9,3,3,3.9,3,5v14c0,1.1,0.9,2,2,2h14c1.1,0,2-0.9,2-2V5C21,3.9,20.1,3,19,3z"/>
</svg>
