<svg xmlns="http://www.w3.org/2000/svg" width="566.929" height="566.929" xml:space="preserve"><circle fill="#EBB137" cx="283.465" cy="283.464" r="283.465"/><path fill="#1FA2FF" d="M308.457 293.509v73.724c8.543-2.215 17.325-5.854 22.924-11.117 7.642-7.185 11.517-16.384 11.518-27.344-.001-9.6-2.915-17.415-8.662-23.227-3.924-3.967-12.403-7.931-25.78-12.036z"/><path fill="#1FA2FF" d="M472.817 214.166 296.19 79.69a7.01 7.01 0 0 0-8.491 0L111.073 214.166a7.008 7.008 0 0 0 4.245 12.582h28.318v215.726a7.008 7.008 0 0 0 7.007 7.008h282.604a7.008 7.008 0 0 0 7.007-7.008V226.749h28.318a7.007 7.007 0 0 0 4.245-12.583zM357.533 372.892c-10.823 10.462-28.354 17.594-49.076 20.168v14.272c0 8.933-7.242 16.174-16.176 16.174-8.933 0-16.175-7.241-16.175-16.174v-13.9c-20.585-2.848-36.861-9.245-48.422-19.081-12.904-10.977-20.285-26.527-21.938-46.221a1.205 1.205 0 0 1 1.02-1.291l31.49-4.74a1.206 1.206 0 0 1 1.365.991c2.398 14.308 7.295 25.46 14.558 33.148 5.727 6.062 13.083 10.086 21.927 12.019v-82.806c-20.396-4.476-36.146-11.403-46.854-20.651-12-10.364-18.086-23.878-18.086-40.167 0-16.162 6.008-30.232 17.856-41.821 10.637-10.402 26.466-16.912 47.085-19.417v-9.939c0-8.933 7.241-16.175 16.175-16.175s16.175 7.241 16.175 16.175v10.488c17.479 2.644 32.127 7.94 41.111 15.005 11.614 9.133 19.002 22.089 21.958 38.508a1.203 1.203 0 0 1-1.039 1.407l-32.713 4a1.205 1.205 0 0 1-1.329-.975c-1.812-9.78-5.642-17.615-11.385-23.288-4.036-3.987-10.698-6.708-16.604-8.47v74.158c22.883 4.558 40.75 11.729 50.78 20.469 12.23 10.655 18.432 24.816 18.432 42.085-.001 17.641-6.774 33.132-20.135 46.049z"/><path fill="#1FA2FF" d="M245.063 222.559c0 9.753 3.388 17.542 10.068 23.151 5.355 4.498 12.393 8.222 20.978 11.116v-68.079c-8.921 2.239-16.052 5.984-21.25 11.183-6.501 6.499-9.796 14.113-9.796 22.629z"/></svg>