<svg xmlns="http://www.w3.org/2000/svg" width="566.93" height="566.93" xml:space="preserve"><circle fill="#37C837" cx="283.465" cy="283.464" r="283.465"/><path d="M451.734 149.392c-2.546-4.494-8.252-6.069-12.743-3.526l-32.793 18.582a9.352 9.352 0 0 0-4.493 5.998l-5.422 23.089H123.327a9.346 9.346 0 0 0-9.055 11.67l32.964 128.64a9.35 9.35 0 0 0 7.766 6.939l204.427 28.496v10.832H177.054c-4.017 0-7.433 2.539-8.755 6.096a27.674 27.674 0 0 0-7.612 5.644c-5.158 5.393-7.998 12.54-7.998 20.128-.001 15.777 12.403 28.614 27.651 28.615h.002c7.441 0 14.424-3.013 19.657-8.483 5.157-5.393 7.997-12.54 7.998-20.127v-.005c0-4.747-1.13-9.224-3.115-13.167h114.197c-2.476 4.349-3.801 9.317-3.802 14.494-.001 15.777 12.404 28.613 27.652 28.616h.006c7.44 0 14.421-3.013 19.654-8.483 5.157-5.393 7.997-12.541 7.998-20.127v-.006a29.187 29.187 0 0 0-3.827-14.494h2.016c5.164 0 9.349-4.187 9.349-9.35v-29.189l34.978-155.336a9.409 9.409 0 0 0 .223-2.198l5.645-24.038 29.235-16.565c4.493-2.547 6.073-8.253 3.528-12.745zm-274.471 164.26h45.331v17.673l-46.359-6.462a6.202 6.202 0 0 0 1.028-3.425v-7.786zm-29.348-52.488h16.882v40.022h-6.626l-10.256-40.022zm29.348 0h45.331v40.022h-45.331v-40.022zm192.414 40.022h-15.041v-40.022h25.766l-9.432 40.159a6.268 6.268 0 0 0-1.293-.137zm-27.506 0h-46.66v-40.022h46.66v40.022zm-59.126 0H235.06v-40.022h47.985v40.022zm12.465-52.487v-36.468h46.66v36.468h-46.66zm-12.465 0H235.06v-36.468h47.985v36.468zm-60.451 0h-45.331v-36.468h45.331v36.468zm12.465 64.953h47.986v26.1l-47.986-6.688v-19.412zm60.451 27.001v-27.001h46.66v34.344l-46.722-6.514a5.98 5.98 0 0 0 .062-.829zm59.125 8.868v-35.869h13.439l-8.396 35.756a9.74 9.74 0 0 0-.176 1.003l-4.879-.681c.002-.07.012-.138.012-.209zm28.633-100.564a6.204 6.204 0 0 0-1.767-.258h-26.866v-36.468h37.257l-8.624 36.726zm-218.471-36.725V248.7H144.72l-9.345-36.468h29.422zm-3.432 101.42h3.432v7.786c0 .651.102 1.28.286 1.87l-1.29-.181-2.428-9.475zm33.36 98.327v.002c0 4.153-1.533 8.042-4.315 10.954-2.706 2.828-6.279 4.385-10.065 4.385h-.001c-7.93-.001-14.38-6.883-14.379-15.341 0-4.155 1.534-8.044 4.316-10.955a14.434 14.434 0 0 1 3.642-2.763 9.34 9.34 0 0 0 3.133.549h10.656c4.196 2.683 7.013 7.58 7.013 13.169zm162.592 1.326v.003c-.001 4.152-1.534 8.043-4.316 10.953-2.706 2.829-6.281 4.385-10.063 4.385h-.001c-7.93 0-14.383-6.883-14.382-15.341.001-4.155 1.534-8.043 4.317-10.954a14.216 14.216 0 0 1 5.392-3.541h9.369c5.628 2.082 9.683 7.792 9.684 14.495z"/></svg>