<?xml version="1.0" encoding="UTF-8" standalone="no"?>
<svg
   height="48"
   width="48"
   version="1.1"
   id="svg20"
   sodipodi:docname="theme_info.svg"
   inkscape:version="1.2.2 (732a01da63, 2022-12-09, custom)"
   xmlns:inkscape="http://www.inkscape.org/namespaces/inkscape"
   xmlns:sodipodi="http://sodipodi.sourceforge.net/DTD/sodipodi-0.dtd"
   xmlns="http://www.w3.org/2000/svg"
   xmlns:svg="http://www.w3.org/2000/svg">
  <defs
     id="defs24" />
  <sodipodi:namedview
     id="namedview22"
     pagecolor="#ffffff"
     bordercolor="#000000"
     borderopacity="0.25"
     inkscape:showpageshadow="2"
     inkscape:pageopacity="0.0"
     inkscape:pagecheckerboard="0"
     inkscape:deskcolor="#d1d1d1"
     showgrid="false"
     inkscape:zoom="17.354167"
     inkscape:cx="10.228091"
     inkscape:cy="24"
     inkscape:window-width="1920"
     inkscape:window-height="974"
     inkscape:window-x="1920"
     inkscape:window-y="27"
     inkscape:window-maximized="1"
     inkscape:current-layer="svg20" />
  <path
     fill="#0d47a1"
     d="M24 44q-1.7 0-2.875-1.175T19.95 39.95h8.1q0 1.7-1.175 2.875T24 44Zm-8.1-7.15v-3h16.2v3Zm.25-6.05q-3.3-2.15-5.225-5.375Q9 22.2 9 18.15q0-6.1 4.45-10.55Q17.9 3.15 24 3.15q6.1 0 10.55 4.45Q39 12.05 39 18.15q0 4.05-1.9 7.275-1.9 3.225-5.25 5.375Zm1.1-3H30.8q2.4-1.6 3.8-4.15 1.4-2.55 1.4-5.5 0-4.95-3.525-8.475Q28.95 6.15 24 6.15q-4.95 0-8.475 3.525Q12 13.2 12 18.15q0 2.95 1.4 5.5t3.85 4.15Zm6.75 0Z"
     id="path18"
     style="fill:#1b7908;fill-opacity:1" />
</svg>
