<?xml version="1.0" encoding="UTF-8" standalone="no"?>
<svg
   xmlns:dc="http://purl.org/dc/elements/1.1/"
   xmlns:cc="http://creativecommons.org/ns#"
   xmlns:rdf="http://www.w3.org/1999/02/22-rdf-syntax-ns#"
   xmlns:svg="http://www.w3.org/2000/svg"
   xmlns="http://www.w3.org/2000/svg"
   id="svg6"
   version="1.1"
   height="24"
   width="24">
  <metadata
     id="metadata12">
    <rdf:RDF>
      <cc:Work
         rdf:about="">
        <dc:format>image/svg+xml</dc:format>
        <dc:type
           rdf:resource="http://purl.org/dc/dcmitype/StillImage" />
        <dc:title></dc:title>
      </cc:Work>
    </rdf:RDF>
  </metadata>
  <defs
     id="defs10" />
  <path
     style="stroke-width:1.43184972"
     id="path8"
     d="M 12.290452,3.9432207 23.352277,9.7029251 V 23.311017 H 0.6779657 V 9.9940746 Z m 2.963856,16.8360583 h 4.858781 V 10.854866 L 12.290452,6.9686476 3.9171532,11.133357 v 9.645922 h 4.8587803 z" />
  <path
     style="stroke-width:0.87980932"
     id="path4"
     d="M 23.466173,8.6967764 23.415599,6.1768391 12.390523,0.58753563 0.51012634,6.5994933 0.52565881,9.0177593 12.392147,2.8798824 Z" />
  <path
     style="stroke-width:0.99463469"
     id="path10"
     d="m 8.4646845,14.205562 c -0.02938,0.292904 -0.03918,0.585805 -0.0098,0.868608 l -1.0480576,0.858509 c -0.09795,0.0808 -0.117539,0.212102 -0.05877,0.323203 l 1.0088766,1.807916 c 0.05877,0.111101 0.186104,0.151501 0.303643,0.111101 l 1.253752,-0.505005 c 0.2252825,0.171703 0.4701555,0.313103 0.7346195,0.424204 l 0.195905,1.373614 c 0.01959,0.131302 0.11754,0.222202 0.244873,0.222202 h 2.02755 c 0.11754,0 0.225284,-0.0909 0.244873,-0.212102 l 0.195899,-1.373614 c 0.254669,-0.111101 0.499543,-0.262601 0.724826,-0.424204 l 1.253752,0.505005 c 0.117539,0.0505 0.244872,0 0.303643,-0.111101 l 1.008878,-1.807916 c 0.05877,-0.111101 0.03918,-0.242401 -0.05877,-0.323203 L 15.742321,15.07417 c 0.02938,-0.292903 0.03918,-0.585806 0.0098,-0.868608 l 1.048057,-0.858509 c 0.09795,-0.0808 0.11754,-0.212102 0.05877,-0.323203 l -1.008877,-1.807918 c -0.05877,-0.111101 -0.186104,-0.1515 -0.303643,-0.111101 l -1.243956,0.505005 C 14.077188,11.438134 13.832315,11.296732 13.567851,11.185632 L 13.371952,9.8120179 c -0.01959,-0.121201 -0.11754,-0.212102 -0.244873,-0.212102 h -2.027551 c -0.11754,0 -0.225284,0.0909 -0.244874,0.212102 l -0.195898,1.3736141 c -0.254669,0.111101 -0.499542,0.262602 -0.7248265,0.424204 l -1.253751,-0.505005 c -0.117539,-0.0505 -0.244873,0 -0.303644,0.111101 L 7.3676589,13.02385 c -0.05877,0.111101 -0.03918,0.242402 0.05877,0.323203 z m 3.6339205,-1.080711 c 0.81298,0 1.46924,0.676707 1.46924,1.515015 0,0.838308 -0.65626,1.515015 -1.46924,1.515015 -0.812978,0 -1.46924,-0.676707 -1.46924,-1.515015 0,-0.838308 0.656262,-1.515015 1.46924,-1.515015 z" />
</svg>
