<?xml version="1.0" encoding="utf-8"?>
<!DOCTYPE svg PUBLIC "-//W3C//DTD SVG 1.1//EN" "http://www.w3.org/Graphics/SVG/1.1/DTD/svg11.dtd">
<svg version="1.1" id="Layer_1" xmlns="http://www.w3.org/2000/svg" xmlns:xlink="http://www.w3.org/1999/xlink" x="0px" y="0px"
	 width="24px" height="24px" viewBox="0 0 24 24" enable-background="new 0 0 24 24" xml:space="preserve">
<path fill="none" d="M0,0h24v24H0V0z"/>
<path d="M15.061,13.487c0.424-0.69,0.668-1.51,0.668-2.38c0-2.526-2.057-4.583-4.583-4.583c-2.527,0-4.583,2.056-4.583,4.583
	c0,2.531,2.057,4.585,4.583,4.585c0.87,0,1.687-0.244,2.377-0.666l2.052,2.051c0.213,0.211,0.493,0.315,0.771,0.315
	s0.555-0.104,0.768-0.315c0.427-0.426,0.427-1.11,0-1.537L15.061,13.487z M8.736,11.107c0-1.328,1.081-2.409,2.409-2.409
	c1.329,0,2.41,1.081,2.41,2.409c0,1.332-1.082,2.414-2.41,2.414S8.736,12.437,8.736,11.107z"/>
<g>
	<path d="M12,24c-0.409,0-0.814-0.021-1.213-0.061l0.316-3.199c0.607,0.062,1.238,0.06,1.842-0.006l0.346,3.195
		C12.867,23.977,12.438,24,12,24z M8.327,23.425c-0.8-0.257-1.572-0.601-2.295-1.018l1.6-2.788c0.529,0.307,1.093,0.557,1.679,0.746
		L8.327,23.425z M15.74,23.402l-1-3.055c0.583-0.191,1.146-0.445,1.677-0.755l1.612,2.778C17.307,22.795,16.536,23.143,15.74,23.402
		z M4,20.938c-0.622-0.56-1.188-1.185-1.684-1.86l2.586-1.901c0.363,0.496,0.78,0.955,1.236,1.365L4,20.938z M20.057,20.891
		L17.9,18.506c0.457-0.416,0.869-0.876,1.227-1.372l2.602,1.884C21.238,19.695,20.676,20.324,20.057,20.891z M1.054,16.904
		c-0.344-0.768-0.608-1.571-0.784-2.393l3.135-0.677c0.129,0.601,0.322,1.188,0.574,1.748L1.054,16.904z M22.975,16.841
		l-2.929-1.309c0.246-0.558,0.437-1.144,0.562-1.746l3.142,0.655C23.574,15.271,23.314,16.077,22.975,16.841z M0.396,12.005
		L0,12.003c0-0.876,0.087-1.717,0.258-2.533l3.139,0.665c-0.126,0.598-0.19,1.215-0.19,1.834L0.396,12.005z M20.794,11.95
		c-0.001-0.616-0.067-1.232-0.194-1.834l3.137-0.669c0.176,0.82,0.264,1.66,0.265,2.498L20.794,11.95z M3.963,8.384l-2.93-1.308
		c0.34-0.766,0.762-1.499,1.255-2.178L4.883,6.79C4.521,7.287,4.212,7.824,3.963,8.384z M20.031,8.37
		c-0.252-0.562-0.562-1.097-0.924-1.593l2.591-1.896c0.493,0.678,0.917,1.409,1.26,2.174L20.031,8.37z M6.114,5.419L3.966,3.031
		C4.589,2.468,5.27,1.97,5.992,1.551L7.6,4.334C7.07,4.641,6.571,5.006,6.114,5.419z M17.875,5.409
		c-0.459-0.413-0.96-0.777-1.488-1.083l1.604-2.785c0.722,0.417,1.404,0.914,2.027,1.477L17.875,5.409z M9.275,3.583L8.282,0.525
		c0.795-0.26,1.62-0.436,2.454-0.523L11.072,3.2C10.461,3.264,9.857,3.394,9.275,3.583z M14.708,3.578
		c-0.581-0.189-1.187-0.317-1.796-0.379L13.241,0c0.834,0.086,1.659,0.26,2.454,0.519L14.708,3.578z"/>
</g>
</svg>
