<svg xmlns="http://www.w3.org/2000/svg" fill-rule="evenodd" stroke-linejoin="round" stroke-miterlimit="2" clip-rule="evenodd" viewBox="0 0 40 40"><g transform="translate(42.275 -2.541) scale(1.38666)"><path fill="none" d="M-30.487 1.833h28.846v28.846h-28.846z"/><clipPath id="a"><path d="M-30.487 1.833h28.846v28.846h-28.846z"/></clipPath><g clip-path="url(#a)"><path d="M-24.852 30.679c-.541 0-1.015-.217-1.42-.65a2.143 2.143 0 01-.609-1.514V3.996c0-.577.203-1.082.609-1.514.405-.433.879-.65 1.42-.65h12.202l7.404 7.897v18.786c0 .577-.203 1.082-.609 1.515-.405.432-.878.649-1.42.649h-17.577zm17.578-10.692v-9.284h-6.39V3.996h-11.188v15.99h17.578z"/><path fill="#fff" fill-rule="nonzero" d="M-18.566 25.1c0 .516-.056.944-.16 1.301-.11.365-.269.65-.467.873-.206.222-.452.38-.738.484-.293.103-.61.15-.968.15-.357 0-.737-.047-1.142-.142v-5.331c.198-.04.397-.08.587-.103.19-.024.373-.04.547-.04.357 0 .683.048.976.15.286.104.532.263.738.485.198.222.357.507.468.864.103.357.159.794.159 1.31zm-.762 0c0-.388-.032-.722-.087-1-.056-.277-.151-.499-.27-.674a1.023 1.023 0 00-.476-.38 1.921 1.921 0 00-.714-.12c-.071 0-.15 0-.222.009l-.23.023v4.284l.23.024c.071.008.143.008.214.008.278 0 .516-.04.714-.12.198-.079.357-.205.484-.38.119-.167.214-.389.27-.666.055-.278.087-.611.087-1.008zM-13.894 25.108c0 .429-.04.817-.111 1.166-.08.357-.198.659-.357.905a1.725 1.725 0 01-.61.587c-.247.134-.54.206-.874.206-.333 0-.618-.072-.864-.206a1.663 1.663 0 01-.611-.587 2.604 2.604 0 01-.365-.905 5.272 5.272 0 01-.119-1.166c0-.428.04-.817.12-1.174.078-.357.197-.658.364-.912a1.8 1.8 0 01.61-.587c.247-.135.532-.206.865-.206.334 0 .627.071.873.206.246.143.444.34.61.587.16.254.279.555.358.912.071.357.11.746.11 1.174zm-.762 0c0-.333-.023-.634-.063-.912a2.448 2.448 0 00-.206-.714 1.192 1.192 0 00-.365-.46.921.921 0 00-.556-.167.897.897 0 00-.547.167c-.15.11-.278.262-.373.46a2.448 2.448 0 00-.206.714 5.39 5.39 0 00-.071.912c0 .333.023.635.071.912.04.278.111.508.206.706.095.199.222.35.373.453.15.11.333.166.547.166a.921.921 0 00.556-.166c.15-.104.27-.254.365-.453.095-.198.166-.428.206-.706.04-.277.063-.579.063-.912zM-11.133 27.972c-.643 0-1.143-.238-1.484-.722-.341-.484-.516-1.222-.516-2.23 0-.515.048-.943.151-1.3.095-.357.23-.643.405-.865.174-.222.38-.38.618-.484.238-.095.5-.142.778-.142.23 0 .452.031.65.087.199.063.365.143.492.23l-.214.595a1.944 1.944 0 00-.405-.206 1.452 1.452 0 00-.507-.08c-.42 0-.73.175-.92.524-.19.357-.286.904-.286 1.642 0 .746.103 1.317.301 1.721.199.405.532.603.984.603.214 0 .397-.024.532-.08.134-.055.261-.118.388-.205l.199.563a1.662 1.662 0 01-.476.246 2.038 2.038 0 01-.69.103z"/></g></g></svg>