<svg xmlns="http://www.w3.org/2000/svg" fill-rule="evenodd" stroke-linejoin="round" stroke-miterlimit="2" clip-rule="evenodd" viewBox="0 0 40 40"><g transform="translate(42.275 -2.541) scale(1.38666)"><path fill="none" d="M-30.487 1.833h28.846v28.846h-28.846z"/><clipPath id="a"><path d="M-30.487 1.833h28.846v28.846h-28.846z"/></clipPath><g clip-path="url(#a)"><path d="M-24.852 30.679c-.541 0-1.015-.217-1.42-.65a2.143 2.143 0 01-.609-1.514V3.996c0-.577.203-1.082.609-1.514.405-.433.879-.65 1.42-.65h12.202l7.404 7.897v18.786c0 .577-.203 1.082-.609 1.515-.405.432-.878.649-1.42.649h-17.577zm17.578-10.692v-9.284h-6.39V3.996h-11.188v15.99h17.578z"/><path fill="#fff" fill-rule="nonzero" d="M-19.7 24.37l.943-2.014h.714l-1.253 2.554c.11.238.23.484.357.738.119.261.246.515.365.77.119.26.23.507.333.753.103.246.198.468.277.682h-.706c-.055-.159-.127-.333-.198-.524-.08-.182-.167-.373-.254-.57-.095-.2-.19-.397-.285-.604-.103-.198-.199-.396-.294-.587-.095.19-.19.389-.293.587-.103.207-.199.405-.286.603-.087.198-.174.389-.246.571-.08.19-.143.365-.198.524h-.69c.071-.206.166-.428.27-.666.103-.238.214-.484.333-.738.119-.246.238-.5.357-.754s.23-.5.34-.73l-1.269-2.61h.73l.952 2.015zM-14.584 27.242v.61h-2.451v-5.496h.713v4.886h1.738zM-12.815 27.361c.285 0 .507-.08.666-.238.15-.159.23-.373.23-.642a.959.959 0 00-.071-.381 1.272 1.272 0 00-.183-.302 1.605 1.605 0 00-.27-.246c-.103-.071-.206-.15-.309-.222-.119-.087-.246-.174-.38-.27a1.78 1.78 0 01-.358-.333 1.507 1.507 0 01-.373-1.04c0-.22.04-.42.12-.602.071-.182.182-.333.317-.46s.293-.222.484-.293a1.66 1.66 0 01.603-.103 2.039 2.039 0 011.04.27l-.223.563a1.862 1.862 0 00-.357-.175 1.438 1.438 0 00-.413-.056c-.261 0-.468.072-.618.207-.16.143-.238.349-.238.618 0 .151.023.278.079.39a.948.948 0 00.198.3c.08.088.175.175.286.247l.34.23c.12.079.247.166.374.261.127.096.246.207.349.326.095.127.182.27.254.436.063.167.095.365.095.595 0 .206-.032.404-.095.587a1.261 1.261 0 01-.294.484c-.135.143-.31.254-.508.333a1.834 1.834 0 01-.721.127c-.254 0-.476-.032-.667-.087a1.981 1.981 0 01-.507-.23l.222-.572c.134.088.277.151.428.199.143.055.31.08.5.08z"/></g></g></svg>