<svg xmlns="http://www.w3.org/2000/svg" fill-rule="evenodd" stroke-linejoin="round" stroke-miterlimit="2" clip-rule="evenodd" viewBox="0 0 40 40"><g transform="translate(42.275 -2.541) scale(1.38666)"><path fill="none" d="M-30.487 1.833h28.846v28.846h-28.846z"/><clipPath id="a"><path d="M-30.487 1.833h28.846v28.846h-28.846z"/></clipPath><g clip-path="url(#a)"><path d="M-25.78 20.384h19.432v9.73H-25.78z"/><path fill-rule="nonzero" d="M-24.853 31.117c-.54 0-1.014-.217-1.42-.65a2.145 2.145 0 01-.608-1.514V4.433c0-.576.203-1.08.608-1.514.406-.432.88-.649 1.42-.649h12.204l7.403 7.897v18.786c0 .577-.203 1.082-.609 1.515-.405.432-.879.649-1.42.649h-17.578zm11.19-19.976V4.434h-11.19v24.52h17.578V11.14h-6.389zm-11.19-6.707v6.707-6.707 24.52-24.52z"/><path fill="#fff" fill-rule="nonzero" d="M-19.423 27.972c-.643 0-1.143-.238-1.484-.722-.34-.484-.515-1.222-.515-2.23 0-.515.047-.943.15-1.3.096-.357.23-.643.405-.865.175-.222.38-.38.619-.484.238-.095.5-.142.777-.142.23 0 .452.031.65.087.199.063.366.143.493.23l-.215.595a1.944 1.944 0 00-.404-.206 1.452 1.452 0 00-.508-.08c-.42 0-.73.175-.92.524-.19.357-.286.904-.286 1.642 0 .746.103 1.317.302 1.721.198.405.531.603.983.603.215 0 .397-.024.532-.08.135-.055.262-.118.389-.205l.198.563a1.662 1.662 0 01-.476.246 2.038 2.038 0 01-.69.103zM-16.512 27.361c.286 0 .508-.08.666-.238.151-.159.23-.373.23-.642a.959.959 0 00-.07-.381 1.272 1.272 0 00-.183-.302 1.605 1.605 0 00-.27-.246c-.103-.071-.206-.15-.31-.222-.118-.087-.245-.174-.38-.27a1.78 1.78 0 01-.357-.333 1.507 1.507 0 01-.373-1.04c0-.22.04-.42.119-.602.071-.182.182-.333.317-.46s.294-.222.484-.293a1.66 1.66 0 01.603-.103 2.039 2.039 0 011.04.27l-.223.563a1.862 1.862 0 00-.357-.175 1.438 1.438 0 00-.412-.056c-.262 0-.468.072-.62.207-.158.143-.237.349-.237.618 0 .151.024.278.08.39a.948.948 0 00.198.3c.079.088.174.175.285.247l.341.23c.12.079.246.166.373.261.127.096.246.207.35.326.094.127.182.27.253.436.063.167.095.365.095.595 0 .206-.032.404-.095.587a1.261 1.261 0 01-.293.484c-.135.143-.31.254-.508.333a1.834 1.834 0 01-.722.127c-.254 0-.476-.032-.666-.087a1.981 1.981 0 01-.508-.23l.222-.572c.135.088.278.151.428.199.143.055.31.08.5.08zM-12.903 27.853c-.119-.397-.245-.793-.364-1.206a53.937 53.937 0 01-.714-2.681 48.89 48.89 0 01-.35-1.61h.746c.072.404.143.817.23 1.221.088.413.175.817.27 1.214.095.396.19.777.294 1.15.095.373.19.73.285 1.063.095-.333.19-.69.294-1.063a46.065 46.065 0 00.555-2.364c.087-.404.159-.817.23-1.221h.722a48.89 48.89 0 01-.35 1.61c-.118.5-.23.968-.348 1.412-.12.444-.246.865-.365 1.27-.12.412-.246.808-.365 1.205h-.77z"/></g></g></svg>