<svg xmlns="http://www.w3.org/2000/svg" fill-rule="evenodd" stroke-linejoin="round" stroke-miterlimit="2" clip-rule="evenodd" viewBox="0 0 40 40"><g transform="translate(42.275 -2.541) scale(1.38666)"><path fill="none" d="M-30.487 1.833h28.846v28.846h-28.846z"/><clipPath id="a"><path d="M-30.487 1.833h28.846v28.846h-28.846z"/></clipPath><g clip-path="url(#a)"><path d="M-24.852 30.679c-.541 0-1.015-.217-1.42-.65a2.143 2.143 0 01-.609-1.514V3.996c0-.577.203-1.082.609-1.514.405-.433.879-.65 1.42-.65h12.202l7.404 7.897v18.786c0 .577-.203 1.082-.609 1.515-.405.432-.878.649-1.42.649h-17.577zm17.578-10.692v-9.284h-6.39V3.996h-11.188v15.99h17.578z"/><path fill="#fff" fill-rule="nonzero" d="M-21.625 22.435c.373-.087.73-.135 1.087-.135a2.8 2.8 0 01.754.095c.222.072.412.175.579.31.159.142.278.325.373.547.087.222.127.492.127.801 0 .317-.048.587-.135.81-.087.23-.214.412-.38.547a1.546 1.546 0 01-.588.309 2.92 2.92 0 01-.77.095h-.333v2.039h-.714v-5.418zm.714 2.752h.286c.182 0 .341-.023.492-.063a.943.943 0 00.365-.19.84.84 0 00.23-.35c.055-.142.08-.317.08-.53 0-.215-.025-.39-.08-.54a1.004 1.004 0 00-.214-.35.833.833 0 00-.342-.182 1.529 1.529 0 00-.436-.055c-.135 0-.262.008-.38.023v2.237zM-14.192 25.1c0 .516-.055.944-.158 1.301-.111.365-.27.65-.468.873-.206.222-.452.38-.738.484-.293.103-.61.15-.968.15-.357 0-.738-.047-1.142-.142v-5.331c.198-.04.397-.08.587-.103.19-.024.373-.04.547-.04.357 0 .683.048.976.15.286.104.532.263.738.485.198.222.357.507.468.864.103.357.158.794.158 1.31zm-.761 0c0-.388-.032-.722-.087-1-.056-.277-.151-.499-.27-.674a1.023 1.023 0 00-.476-.38 1.921 1.921 0 00-.714-.12c-.071 0-.15 0-.222.009l-.23.023v4.284l.23.024c.071.008.143.008.214.008.278 0 .516-.04.714-.12.198-.079.357-.205.484-.38.119-.167.214-.389.27-.666.055-.278.087-.611.087-1.008zM-12.97 27.853v-5.497h2.467v.61h-1.753v1.73h1.555v.595h-1.555v2.562h-.714z"/></g></g></svg>